<?xml version="1.0" encoding="utf-8"?>
<!-- Generator: Adobe Illustrator 19.0.0, SVG Export Plug-In . SVG Version: 6.00 Build 0)  -->
<svg version="1.1" id="Layer_1" xmlns="http://www.w3.org/2000/svg" xmlns:xlink="http://www.w3.org/1999/xlink" x="0px" y="0px"
	 viewBox="0 0 612 230" preserveAspectRatio="none" style="enable-background:new 0 0 612 230;" xml:space="preserve">
<style type="text/css">
	.st0{fill:#FCB53A;}
	.st1{fill:#DF263A;}
</style>
<g id="XMLID_89_">
	<rect id="XMLID_318_" x="0" y="0" class="st0" width="612" height="230"/>
	<g id="XMLID_224_">
		<g id="XMLID_228_">
			<g id="XMLID_229_">
				<g id="XMLID_230_">
					<path id="XMLID_317_" class="st1" d="M619.3,228c-0.1,2.5,1.1,1.6,1.4,2C620.4,225.8,619,228.1,619.3,228z"/>
					<polygon id="XMLID_316_" class="st1" points="616.5,187 617,187.7 615.7,181.7 					"/>
					<path id="XMLID_315_" class="st1" d="M616.5,148.6c-2.1,3.6,0.3,13.9-0.4,20.7l-0.5,1.1l1.7,3.1
						C617,165.3,615.9,154.5,616.5,148.6z"/>
					<path id="XMLID_314_" class="st1" d="M621.1,128.1c-0.8,1.3-0.7-4.4-0.3,4.8c0.1-0.5,0.1-0.6,0.2-0.9
						C621,131.2,621,130.1,621.1,128.1z"/>
					<path id="XMLID_313_" class="st1" d="M621.1,132.1C621.1,136.1,621.8,129.4,621.1,132.1L621.1,132.1z"/>
					<path id="XMLID_312_" class="st1" d="M620.6,113.4l0.7,5.3c0.5-1.1,0.6-5.9,1-4.1C621.9,109.2,621.4,110.3,620.6,113.4z"/>
					<path id="XMLID_311_" class="st1" d="M619,108.3l0.3,2.8C619.5,110.6,619.6,109.9,619,108.3z"/>
					<path id="XMLID_310_" class="st1" d="M620,117l-0.7-5.9c-0.3,0.8-1,0.9,0.2,2.7C618.9,113.3,619.5,114.5,620,117z"/>
					<path id="XMLID_309_" class="st1" d="M619.7,120.3c-0.5,3-0.8,6.8-1.5,1.5C618.5,132,620,130.4,619.7,120.3z"/>
					<path id="XMLID_308_" class="st1" d="M614.3,146.7l-0.6,4l0.7,3.5C614,152.4,614.9,146.4,614.3,146.7z"/>
					<path id="XMLID_307_" class="st1" d="M621.7,80.2c-0.5-0.3-1.2,1.8-1.8,2.2l0.5,3.9C620.7,84.3,621,80.5,621.7,80.2z"/>
					<path id="XMLID_306_" class="st1" d="M619.9,82.4l-0.8-5.9C619,81.8,619.4,82.7,619.9,82.4z"/>
					<polygon id="XMLID_305_" class="st1" points="616.6,107.4 618.3,117.1 616.6,105.5 					"/>
					<polygon id="XMLID_304_" class="st1" points="621.7,57.8 622.8,61.1 621.2,55.1 					"/>
					<path id="XMLID_303_" class="st1" d="M621.6,42.8c0.9,2.5,1.5-3.4,2-0.8c-0.2-4-0.9-7.5-1.6-10.6
						C622.4,34.8,622.3,38.3,621.6,42.8z"/>
					<path id="XMLID_302_" class="st1" d="M621,26.2c0.2,1.7,0.6,3.4,1,5.2C621.8,29.7,621.5,28,621,26.2z"/>
					<path id="XMLID_301_" class="st1" d="M619.3,66.5c0.3-0.5,1-1.3,1.3-4.6l-1.3,2.3C619.3,64.9,619.3,65.7,619.3,66.5z"/>
					<path id="XMLID_300_" class="st1" d="M619.3,64.3L619.3,64.3c0.1-2.6,0.1-4.3,0.1-5.1C619.4,59.8,619.4,61.4,619.3,64.3z"/>
					<path id="XMLID_299_" class="st1" d="M619.3,67.1c0-0.2,0-0.4,0-0.6C619.2,66.7,619.2,66.9,619.3,67.1z"/>
					<path id="XMLID_298_" class="st1" d="M617.8,92c-0.7-3.5-1.5-10.7-2.6-3.7C616.1,90.8,616.7,86.8,617.8,92z"/>
					<path id="XMLID_297_" class="st1" d="M617.7,70l-0.3,6.2c0.3-0.1,0.8-1.2,1.2,0.5L617.7,70z"/>
					<polygon id="XMLID_296_" class="st1" points="617.3,66.9 617.7,70 617.8,67.6 					"/>
					<path id="XMLID_295_" class="st1" d="M619.8,36.9c-0.6-2.7-0.6-5.7-0.7-9c-0.3,3.6-0.4,7.3-0.4,10.8
						C619.1,39.2,619.9,40.8,619.8,36.9z"/>
					<path id="XMLID_294_" class="st1" d="M619.5,50.2c0-0.2-0.1-0.4-0.1-0.6C619.3,50,619.2,50.3,619.5,50.2z"/>
					<path id="XMLID_293_" class="st1" d="M611.2-7.1c0.3,0.1,0.5,0.2,0.7,0.2c0.1-0.1,0.2-0.1,0.3-0.2L611.2-7.1z"/>
					<path id="XMLID_292_" class="st1" d="M618.5,39.3c-0.2,2.7,0.1,4.3,0.5,5.8c-0.1-2-0.2-4.1-0.2-6.4
						C618.6,38.5,618.4,38.5,618.5,39.3z"/>
					<path id="XMLID_291_" class="st1" d="M620.4,17.1c-0.3,1.4-0.5,3-0.7,4.7C620.1,20.4,620.7,17.6,620.4,17.1z"/>
					<path id="XMLID_290_" class="st1" d="M619.7,48.7c0,0.1,0,0.3,0.1,0.4C620.1,48.2,619.9,48.3,619.7,48.7z"/>
					<path id="XMLID_289_" class="st1" d="M619.7,48.7c-0.2-1.4-0.5-2.5-0.8-3.6c0.1,1.6,0.2,3.2,0.4,4.5
						C619.5,49.3,619.6,49,619.7,48.7z"/>
					<path id="XMLID_288_" class="st1" d="M597.2,1.1c0.3-0.6,2.1-1.2,4.8-1.4c2.7-0.3,6.3-0.2,8.8,0.4c0.6-0.1,1.1-0.2,1.5-0.3
						c0.8,1.9,2.5,0.4,4.2-4.2c-0.6-0.9-2.1-1.8-4.4-2.5c-0.3,0.3-0.5,0.5-1.9,0.8c-1.4,0.3-3.9,0.6-8.4,0.9
						c1.6,0.3,6.3,0.7,9.4,1.1c3.1,0.4,4.5,0.9,0.8,1.5c-5.2,0.3-7.1,0.2-8.5-0.1c-0.7-0.1-1.2-0.3-1.9-0.5
						c-0.3-0.1-0.7-0.2-1.2-0.3c-0.4-0.1-0.8-0.2-1.3-0.3c3.4,1.5-10.4,2.2-8.6,4.3l7.2-0.8C597.8,0.3,595.2,0.8,597.2,1.1z"/>
					<path id="XMLID_287_" class="st1" d="M618.8,5l0.1,4c0.2-4.7,0.7-8.1,1.6-15.5c-0.1-0.9-0.2-1.8-0.2-1.8
						c-6.1,0.5-7.4,0.8-8,1.2l6.8,0.1l-0.1,13.3L618.8,5z"/>
					<path id="XMLID_286_" class="st1" d="M618.9,21.3c-1.3-2-1.8-8.1-3.2-4.3c0.1,7.5,1.1,5.2,1.6,9.7c-0.3-12,0.7,3.5,1.5-5.2
						c0.2,2.4,0.3,4.5,0.3,6.5c0.2-2.2,0.4-4.3,0.6-6.2c0,0.1-0.1,0.2-0.1,0.3l0,0.1c0,0,0,0,0,0c-0.2,0.5-0.3,0.7-0.2,0.1
						c0,0,0-0.2,0-0.3C619.2,21.8,619.1,21.6,618.9,21.3c0.3-3.5,0.3-0.5,0.5,0.5c0.1,0,0.1,0.1,0.2,0.1c0,0,0,0,0,0
						c0,0-0.2-3-0.4-6c-0.1-1.5-0.2-3-0.2-4.1c-0.1-1.7-0.1-2.9-0.1-2.9c0,0.9-0.1,1.9-0.1,3c0,0.7,0,1.6,0,2.5
						C618.8,16.3,618.9,18.5,618.9,21.3z"/>
					<path id="XMLID_285_" class="st1" d="M612.4,81.8c0.1-0.4,0.2-0.4,0.3-0.4C612.6,80.7,612.5,80.4,612.4,81.8z"/>
					<path id="XMLID_284_" class="st1" d="M613.2,76.9c0.2,0.9,0.7,1.6,0.6,4.5c-0.4,2.5-0.6,0-1,0.1c0.3,1.7,0.9,6,1.6,0.6
						l-0.2-0.9c0.4-4.9,2.1-11.1,2.2-10.2C615.2,72.4,614.4,73.7,613.2,76.9z"/>
					<path id="XMLID_283_" class="st1" d="M615.7,48.8l-0.6-10l-1.1,5.1l0.7-0.3C614.4,49.3,615.2,48.1,615.7,48.8z"/>
					<path id="XMLID_282_" class="st1" d="M609.7-7.8c0,0,0.7-0.3,1.5-0.7c0.8-0.3,1.6-0.7,1.6-0.7s-2.8,0.5-5.5,1c-2.5,0.5-5,1-5,1
						L609.7-7.8z"/>
					<polygon id="XMLID_281_" class="st1" points="592.9,-7.6 593.4,-8.8 589.9,-8.1 					"/>
					<path id="XMLID_280_" class="st1" d="M7.1,143.3l0.3,3C7.4,144.8,7.2,143.9,7.1,143.3z"/>
					<path id="XMLID_279_" class="st1" d="M7.2,121.9l-0.6-0.5C6.9,122.4,7.2,122.8,7.2,121.9z"/>
					<path id="XMLID_278_" class="st1" d="M272.5-7.5c-4.3-1.1-9.1-2.8-8.6-1.5l1.3,1.3C268.2-7.9,270.5-7.8,272.5-7.5z"/>
					<path id="XMLID_277_" class="st1" d="M53.1,0.3c0.4,0.1,0.8,0.3,1.3,0.4c1-0.4,2-0.9,2.9-1.2C56-0.3,54.6,0,53.1,0.3z"/>
					<path id="XMLID_276_" class="st1" d="M50,5.7l-5.7-0.8C45.6,5.1,47.5,5.4,50,5.7z"/>
					<path id="XMLID_275_" class="st1" d="M29.9,221.5l3.4-1.3C28,220.2,30.4,220.8,29.9,221.5z"/>
					<path id="XMLID_274_" class="st1" d="M459.3-7.1c-3.7-0.5-6.7-0.7-9.3-0.8C454.5-7.2,458.1-6,459.3-7.1z"/>
					<path id="XMLID_273_" class="st1" d="M-6.7,134.9c0.2,1.8,0.5,2.6,0.8,2.5C-6.1,135.5-6.4,134.5-6.7,134.9z"/>
					<path id="XMLID_272_" class="st1" d="M439.3-7.9c0.7,0.1,1.3,0.2,2,0.3c2.7-0.2,5.4-0.4,8.7-0.3C446.7-8.5,443-8.8,439.3-7.9z"
						/>
					<path id="XMLID_271_" class="st1" d="M452.9,222.6c0.3,0.1,0.7,0.1,1,0.2C454,222.6,453.6,222.5,452.9,222.6z"/>
					<path id="XMLID_270_" class="st1" d="M576.2,235.7c-1.2,0.1-3.2,0.1-5.1,0.1C572,235.9,573.5,235.9,576.2,235.7z"/>
					<path id="XMLID_269_" class="st1" d="M540.4-8.2C543.2-8.3,540.9-8.3,540.4-8.2L540.4-8.2z"/>
					<path id="XMLID_268_" class="st1" d="M553.9-3c-0.6,0.1-1,0.3-1.1,0.6C553-2.7,553.4-2.9,553.9-3z"/>
					<path id="XMLID_267_" class="st1" d="M411.8,0.2c-0.1,0-0.1,0-0.2,0C412.4,0.4,412.2,0.4,411.8,0.2z"/>
					<path id="XMLID_266_" class="st1" d="M544.6-7.6c-1-0.2-2.2-0.3-3.5-0.4C541.6-7.9,542.7-7.7,544.6-7.6z"/>
					<path id="XMLID_265_" class="st1" d="M544-8.2c1,0,1.7,0.1,2.4,0.1C546.8-8.3,546.5-8.4,544-8.2z"/>
					<path id="XMLID_264_" class="st1" d="M536.6-8.1c1.6,0,3.1,0,4.5,0.1c-0.5-0.1-0.8-0.2-0.6-0.2C539.6-8.2,538.5-8.1,536.6-8.1z
						"/>
					<path id="XMLID_263_" class="st1" d="M226.3,226.1c0.2,0,0.4,0.1,0.6,0.1C229.7,225.6,228.4,225.7,226.3,226.1z"/>
					<path id="XMLID_262_" class="st1" d="M200.5,6c0.1,0,0.2,0,0.3-0.1c-0.1,0-0.3,0-0.4,0L200.5,6z"/>
					<path id="XMLID_261_" class="st1" d="M190.6,7c4.2-1.6,6.6-1.4,9.8-1.1l-3.3-3.8L190.6,7z"/>
					<path id="XMLID_254_" class="st1" d="M7.5,194.4l1.2-7c1.9,8.4,1.3,14.5,2.9,8c-4.1-1-0.4-27.1-4.5-28.1l0.9-4.6
						c0,1.3,0.2,1.5,0.2,2.8c2-8.9-2.9-6.6-2.4-18.2c0.3-4,0.9-6.8,1.4-4.1l-1-9c0.1-2.6,0.8-2,0.7,0.6l-0.3-13.7l0.1,0.1
						c-0.6-1.9-1.6-6.4-2-8.5c0.6-3.5,0.4,1.7,0.9,0.9l-1-7.6c1.1-3.1,2.1,3.2,1.9,8.4c4.1-7.1-1-6.3,1.4-21.5l0.5,7.1
						C10.6,95.6,9.8,90,11.2,82c-0.8,1.9-3.6,16.2-4.6,8c0.3-2.3,0.5-5.4-0.4-9.8c1.4,0,1.1-4.4,1-9.8l1.9,0.4
						c-0.6-5.8-1.5-5.4-2.4-8.8c0.2-6.5,1.7-7.9,2.9-9.4c0.3-10.4-2.4,7.2-2.7-5.1c0.7-8.7,0-14.8-1.2-25.2c0.7-6.1,1.2,1.1,1.7-1.1
						l-1.5-5.4c0-1.3,0.5-0.9,0.7-0.7c-0.3-2.3-0.8-2.4-1.2-2.8c-0.1-0.1-0.2-0.2-0.3-0.4C5,11.8,5,11.6,4.9,11.5
						c-0.1-0.1-0.1-0.2-0.2-0.3C4.6,10.9,4.4,10.2,4.2,9C3.3,8.2,3.8,6.1,4.4,4.4c1.9,0.4,3.7,0.9,5.2,1.1c0.4,0,0.7,0.1,1.1,0.1
						c0.2,0,0.4,0,0.5,0l0.8,0c1.4-0.1,2.7-0.3,3.9-0.6c2.2,0.5-1.1,1.2-0.4,1.9C27.7,5.3,26,5.7,35.9,3.6l8.5,1.3
						c-6.2-1.4,1.7-3.1,8.7-4.5C50.9-0.4,49-1,47.7-1.3l11.1-1c1.3,0.3,0.2,1-1.6,1.8c0.8-0.2,1.5-0.3,2-0.5c4,0.7,1.9,1.8-0.9,2.9
						c-1.4-0.4-2.7-0.8-4-1.2c-2.7,1.2-5.3,2.5-4.7,3.6c0.7-0.2,2.1-0.4,3.6-0.5c-0.7,0.3-1.2,0.6-0.8,0.8c0.4,0.2,1.5-0.2,3.4-0.7
						L58.3,6l0.6-0.8l14.5,1.3c10.4-2.2,19.5-5.3,36-6.2c-4.1,1.6-0.9,2.6-1.1,4.4c-4.5-2-12.8,0.8-21.4,0.4
						c4.5,0.2,3.5,1.1,2.3,1.4l15.3-1.8c-0.3,1.5,3.2,1.1,7.2,1.8c-3-3,11.4-2,17.6-2.9c0.4,1-1.1,2-8.7,1.8
						c8.4,2.3,10.8-3.5,19-1.6c-1.9,0-2.8-0.1-3.6,0.4c4.3-0.9,14.9-0.2,12.4,0.7l-1.8,0c12.3,0.4,37.4,0,39.2-2.5
						c0.1,0.3-1.6,3.1-2.4,3.6l21.9-8.6c-1.9,2.2,5.5,7.4-4.7,8.6c2.9,0.3,6.5,0.7,12.7-0.1c-2-0.3-5-3.2-2.2-3.4
						c7.5,2.4,5.2,1.3,14.4,3.4c-3-0.5,0.3-3.9,5.1-3.8c-0.7,0.5,0.4,3.4-1.3,3.8l11.8-3.4c-2.9,0.6-0.5,2.9,2.1,3.8
						c-1.2-0.7,10.2,0.1,13.3-0.3l-5-0.8c13.3,0.5,13.1-4.7,26.3-4.6c-1.6,0.7-3.9,4.3,2.8,4.7c3.1-1.7,13.6-8.3,25.3-9.6l2.2,1
						l8.9-1.1c-5.6,2.6-21.2,8.1-29.7,10.2c5,0.8,1.4,1.2,8.8,1.1c2.6,0.9-4.1,1.4-6.2,1.5l17.3,0.6c-0.8-2,13.3-2,12.6-3.7
						l-18.8,2.1c-0.8-2,10.9-5.7,23.2-5.4c3.1,0.8-2.3,3.6-2.1,4.3c1.6-0.7,11.7-1.3,12.8-0.8l-5.2,1.1c6.8,0.8,11.2-2.7,19.4-0.7
						c2.8,0.1,8.5,2.6,9,1.4c-4.6-2.3-5.5-9.4-2.4-11.1c1,0.2,14.9,2.2,18.1,3.3c4.7,1.8-7,4.3-3,5.9c0.2-0.6,2.8-1.2,3.8-1.4
						c3,0.5-1.2,1.7,5.2,1.5c1.1-2,13.2,0.2,3.1-1.7c6.3-0.6,6.7,0.4,14.2,0.3c-2.4-1.3,6.7-4.5,13-5.1c-0.4,0.5,1.1,1.2,1.7,1.5
						c13,0.2,19.9,1.1,32,1.1c1.1,0.5,7,1.1,4.5,2c1.7-0.4,3.3-1.1,7.1-1.1c7.2,1.8-8.3,0.3-2.8,2.4c0.5-1.2,9.7-1.6,15-2.4
						c-1.6-1.8-12.3-0.4-17.6,0.4c0-2.5,9.2-5.2,21.9-6.4c10.1-0.6,4.4,1.6,6.1,1.3C496.8-2,494-6.9,509.7-5.1
						c6.2,1.6,0.3,3.2,1.7,4.4c-8.2,0.6-12.6-1-18.1-1l6.8,0.8c-2.6,0.5-8.1,0.9-11,0.5c5.2,1.4,31.9,0.3,46.5,1.6
						c2.6-0.5,7.1-1.1,4.9-1.7l-4.6,0.2c-4.2-1.3,8.7-1.8,2.8-2.4c6.2-0.9,13.1-2.4,21.8-1.6l1.6,1.8c-0.2-0.5-5.7-1.1-8.1-0.5
						c3.6-0.8,13.3,2.5,17.3,0.1l-6.1-1.3c6.2-0.9,13.9-2.9,21.6-2.3c-3.5-1.8-1.8,0.2-7.3-1.9c4.8,2.6-19.7-0.1-12.1,2.7
						c-5.6-2.5-9.7-1-17.1-3.1c0.2,0.6,2.6,1.2-3.9,0.9c-0.3,0.2-1,0.4-1.4,0.5c-0.2,0-0.3,0-0.4,0c0.1,0,0.2,0,0.4,0.1
						c-0.3,0.1-0.3,0.1,0.1,0c1.5,0.3,2.8,0.6,3.3,0.9c-3.2,1.4-13.5,1.3-17,2.1c-3.8-0.3,1.6-0.7-0.5-1.3l-5.2,1.1
						c-0.5-1.3-10.2-2.2-1.2-3l-8.1-0.1c-4.8-0.8-11.4-1.1-15.5-0.5c-3.8-0.3-9.7,1.5-6.4,0.4l-12.8,0.8l-0.1-0.3
						c-12.6-0.2-26,2.2-40.4-0.2c-4.2,0.3-8.6,0.8-15.7,0.4l-1.4-1.2c-5.4,0.4-16.4-1.2-18.7,0c-5.9-3.1-26.4-0.7-36-1.2l-0.4,1.5
						c-6.6-0.1-12.9,0.3-21.1,1l0.5,1.3c-7.1,1.1-18.2-1-29.3-0.8c0.8-0.5,3.6-0.4,5.6-0.1c-13.3-3-28.1,2.2-40.2,0
						c-3,0.5-5.2,0.3-7.3,0c0.3,0,0.5,0,0.7-0.1c-0.3,0-0.8,0-1.2,0c-1.3-0.2-2.7-0.5-4.2-0.7c1.3,0.3,2.5,0.6,3.5,0.7
						c-2.3,0-5.9,0.2-9.3,0.5l-1.5-1.4c-0.3,0-0.5,0-0.8,0c-3.4-0.5-2.7,0.7-0.9,1.8c-1.7,0.2-3.3,0.5-4.6,0.9
						c-2.8-2.3-9.1,0.8-12.8-1.7c-2.3,1.2-17.4,0.9-19.2,3.5c-0.1-0.3-1.1-0.5,0.7-0.5c-3.9-0.3-7.7-0.6-11.2,0.1l-1.6-1.8L206.4-3
						c-5.1-1.1-7.2-1.8-2.2-3.2c-12.3,2.2-9.9,0.8-20.4,3l0.5-1.2c-3.7,0-9.7,1.6-11.9,0.7C164.1-6,131.2-4,109.8-6.1
						C114-2.6,99.9-7.7,99-5c-1.2-0.8-4.2-1.3-0.8-2C87.4-6.2,81.9-8.3,74.3-6c-1.2-0.8,2.3-1.2,1.2-1.7c-0.9,0.2-3.5,0.7-4.6,0.2
						c-1.1-0.5,1.6-0.7,3.3-1.1C63.1-8.4,62-5.9,61.2-3.5c-5.7-1.1-8.5-1-12.6,0.6c-2-0.8-5.3-1.6,1.7-1.9C46.4-4.9,26.5-5.9,26.1-4
						c-1.2-0.5-5.4-0.1-6.5,0.1c-4.6-0.1-7-0.1-9.5-0.2C6.9-4.1,3.7-4.1-2-4l3.4,0.3c-1,0.8-2.3,1.1-3.9,1.2
						c0.1,1.6-0.1,3.2-0.2,5.2C-2.9,4.7-3,7-2.9,9.8l-0.2-0.3c-0.2,2.2-0.3,3.9-0.4,5.3c-0.1,1.3-0.1,2.3-0.2,3.1
						c0,1.6,0.1,2.5,0.1,3.3c0.2,1.7,0.3,3.3-0.6,11.2l1.4-0.9c3.1,1.5-1.8,13.9-0.6,23l0.8-3.3c1.1,5-4.2,13.9-4.6,18.9
						c-0.3,1.1-0.4-1.7-0.6-3.2C-9.7,80-6,68.7-5.5,78.4c-1,1.8-2.6-2.3-2.8,4.2c-0.8,3.3,3.3,19,1.4,27.9c0.8-2,1.6-3.9,2.2,0.6
						c0.3,6.9-3,18.7-0.5,25c-0.2,0.9-0.4,1.2-0.6,1.2c0.6,5.3,1.1,17.2,2.4,20.4c-5,4.9,2.4,32.9-2.2,32.8l0.2,16.3l-0.5-0.4
						c-0.2,5.2,0,8.7,0.4,11.4c0,0.2,0,0.3,0.1,0.5c0,0.2,0.1,0.4,0.1,0.7c0.1,0.4,0.1,0.9,0.2,1.3c0.1,0.8,0.2,1.6,0.4,2.3
						c0.3,1.4,0.5,2.5,0.8,3.6c-0.3,3.4-0.7,1.3-1,1.1c-0.1,3-0.2,5.6-0.3,7.9c3.7,0.1,6.8,0.2,9.6,0.2c1.4,0,2.7,0,4,0
						c0.6,0,1.3,0,1.9-0.1l0.9,0l0.5,0l0.3,0c3.3-0.3,6.8-0.9,12.3-1.9l1.3,1.5c3.5-0.9,22,2.3,36.9,0.6c-0.1,0.2-0.5,0.5-1.6,0.7
						c16.8-1.7,40.2,4.1,46.3-1.3l11.1-1.3c-14.3-0.4,2.1-2.3-3.8-3.2c5.6-0.3,14.6,1.6,7.6,1.9l-1.1-0.3c-2.5,2.8,17.8,1,17.4,2.9
						c28.2-0.1,55.7,1.4,82.1,1.5l-3-2.2l9.2,0.1c2.4,0.5,3.2,1.7-3.3,1.6c3.5,1.2,11-1,11.2-1.5c12.9,0.9-5,2.6-1.1,2.6l5.4-0.2
						l-1.2-0.3c4.3-0.9,4.7-1.8,12.6-1.7c5,0.4,2.6,1.4,4.5,1.4c0,0.2,0.7,0.2,3,0.1l11.6,0.2l-4.6-1.7c5.1-0.9,10.9,0.1,5.6-1.9
						c7.9,3,43.3,1.1,48.1,2c7.2-1.3,14.3-1.2,23.1-1.1c-2.2-0.4-3.5-2.3,4.1-2.1c-2.8,4,13.9,1.7,20.1,4.6
						c-5.5-1.9,21.6-0.5,13-3.2c6.3,0.3,0.4,1.5,5.2,2.5c15.1-1.6,33.3,1,51.9,0.5c0.3-0.5-2.8-1.3,1.2-2.1l9.9,2.6
						c3.7-0.3,3.4-3,10.1-1.2c-1-0.4-2.4-1.1,0.1-1.3c36.6,2.6,74.7-2.1,111.8,2.7c-5-1-1.7-1.1,2.2-1.2c-2.5-0.2,0.1-1.3-0.4-2
						l15.5,2c2.8-2,16.7-0.1,18.3-2l-4.9,0.3c6.5-2.2-9.2-5-8.2-7.9c-7.3,2.5-19.3-3.8-31.3-0.1c-2.7-0.6,2.3-0.9,0.8-1.6
						c-3,1.2-6.7,1.5-13.5,0.9l0.8-0.3c-19.2,0.3-27.4-0.9-48.9-1.7l1.6,1.4c-4.6-0.2-5.6-0.6-7.8-1c-5.3,2.2,13,0.1,8.2,2.5
						c-6.1-2.9-32.6,0-36.8-3.3c-7.1,0,2.1,1.6-5,1.6l-1.9-0.9l-1.8,1.1c-4.7-0.2-7-1.3-7.2-2.1c1.1,0.1,3.2-0.2,4.4-0.3
						c-6-1-17.1,0.4-19.1,0l6.8,0.5c-19.4,0.8-43.1-0.3-61.9,1.5l1.4,0.7c-14.3,1.2-11.5-0.7-27.2-0.2l0.6-0.2
						c-3.1,0.7-7.4,1-11.7,0.9c4-0.8-7.5-1.5-2.3-2.4c-15.5,1.3-7.7,1-17.9,3.5l-2.4-1.1c-3.5,1-3.8,1.5-11.6,1.8c6.4-1-5-1.7,2.2-3
						c-16.5-2.4-24.5,2.5-32-1.1c-7.6,3.1,14.3,1.7,10,2.4c3.6,1-6.2,2.3-11.4,2c-5.3-0.1-9-3.9-22.2-3.9c1.3,0,1.4-0.2,2.7-0.2
						c-5-0.8-9.7,1.1-15.8-0.2c-3.4,1.9-7.9-0.1-8.9,2.3l12.2-0.5c-6.9,0.6-13.3,3.4-24.7,2.1c0.9-0.5,4.3-1.1,6.6-1.5
						c-3.3-0.7-6.4,0.5-9.8-0.3c1-2.4,14.8-0.5,22.2-2.3c-3.6-1-14,1.7-10.3-0.9c-5.3,3.3-13.1-0.4-22,2.1l0.6-1.4
						c-1.4,0.2-4.4,0.9-7,0.9l4.7-1.8c-7.3,1.6-14-1.4-21-0.5c14.6,0,3.3,1.7,9.4,2.8c-18,1.9-10.3-3.7-30.5-3
						c2.7-0.2,10.2,0.9,6,1.5c-3.8-0.3-8.9-0.8-11.3-1.6c-13.3,0.3,2,1.5-3.6,2.3c-4.5-1.7-6.6,0.7-12.4,1.3l0-1.4
						c-15.2-0.9-4,3-17.7,1.9l5.8-2l-7.1,0.5l1.5-1.6c-7.8,1.2-10.2,0.9-17.8,0.4c1.8,1-1,2.6-7.7,2.7c-4.6-0.9,2.6-1.4-7-1.2
						c2.2-0.9,4.5-2,8.7-0.7c0.4-0.5,2.1-0.9,2.6-1.4c-4.9-1-12.4-0.2-15.9-0.2c1.3,0.1,2.9,0.1,3.7,0.3l-13.8,2
						c-2.2-0.5-0.5-1,1.3-1.4c-2.8,0.2-4.7,0.8-8.9,0.9c1.1-1.2,0.8-2.4,6.6-2.9l-13.2,1.3c-0.9-0.5-6.8-1.4-5.1-1.8
						c-7.3-0.7-17.9,2.3-27.6,1.4c-0.5,0.2-1.5,0.4-3.6,0.6c-4.3-0.1-8.3-0.5-12.5-0.7c-0.5,0-1.1,0-1.6-0.1l-0.4,0l-0.1,0l-0.2,0
						c-0.3,0-0.6,0-0.9,0c-0.6,0-1.3,0.2-2.4,0.5c-0.1-0.1-0.2-0.3-0.3-0.4c0,0,0.5-1,1.1-1.6c0.5-0.7,1.1-1.1,1.1-1.1
						c-0.2-0.6-0.9-0.4-1.6,0.3c-0.4,0.3-0.7,0.6-1,0.5c-0.2-0.1-0.3-0.2-0.5-0.6c-0.1-0.2-0.1-0.4-0.2-0.7
						c-0.1-0.6-0.1-1.4-0.2-2.3c-0.7-10,1.8-3.7,2.4-7.2c-1.1-5-3.2-13.6-1.5-22.7C7.7,189.2,7.3,191.6,7.5,194.4z M6.6,90.1
						c0.3,2,1.2,6,0.4,7.5C5.3,95.4,6.1,93.6,6.6,90.1z M68.4,3.1c-1.5,0.5-3.8,0.2-6.4-0.3C63.9,2.7,66,2.7,68.4,3.1z M510.1-7
						c-0.1,0-0.1,0-0.2,0.1C505.4-7.5,507-7.3,510.1-7z M519.5-6.4c0.9-0.2,0.9-0.4,0.5-0.6c-0.7,0.4-2.8,0.4-5.1,0.3
						C515.4-6.3,516.7-6,519.5-6.4z M255.8,235.8l-1.8-0.4C258.1,235,257,235.4,255.8,235.8z"/>
					<path id="XMLID_253_" class="st1" d="M50.4,5.1c-0.6-0.2-0.7-0.5-0.9-0.8C48.8,4.5,48.8,4.8,50.4,5.1z"/>
					<path id="XMLID_252_" class="st1" d="M29.3,221.7l0.3,0c0.2-0.1,0.3-0.2,0.3-0.3L29.3,221.7z"/>
					<path id="XMLID_251_" class="st1" d="M374.4,5.9c-1.9-0.2-3-0.5-3.7-0.7C370.6,5.5,371.5,5.8,374.4,5.9z"/>
					<path id="XMLID_250_" class="st1" d="M569.1-8.8l-6,0.4c2.9-0.1,3.9,0.2,5.4,0.5C568.3-8.3,567.2-8.8,569.1-8.8z"/>
					<path id="XMLID_249_" class="st1" d="M611.9,9.1c0.2,0.8,0,1.8,0.2,2.7l0.7-0.2c0-2-0.2-3.6-0.3-4.2
						C612.2,6.8,612,7.2,611.9,9.1z"/>
					<path id="XMLID_248_" class="st1" d="M574.6-4c0.5,1.2,4.2,0.8,8.4,0.6c-0.3,0-0.5,0-0.7,0C583.5-5.1,579.1-4.6,574.6-4z"/>
					<path id="XMLID_247_" class="st1" d="M584-3.5c1.3-0.1,2.6-0.1,3.9,0C588.4-4.2,586.3-3.7,584-3.5z"/>
					<path id="XMLID_246_" class="st1" d="M531.3-7.2c2,0.3,1.2-1.6,2.4-1.1C535.9-9.8,520.4-6.4,531.3-7.2z"/>
					<polygon id="XMLID_245_" class="st1" points="578,0 576.5,-1.5 574.1,-0.3 					"/>
					<path id="XMLID_244_" class="st1" d="M544.8-1.1l6.7,0.4c-0.1-0.3,0.8-0.4,1.8-0.5C549.2-1.3,544.7-1.6,544.8-1.1z"/>
					<path id="XMLID_243_" class="st1" d="M553.4-1.2c2.2,0,4.2,0,5.4-0.2C557.6-1.4,555.1-1.4,553.4-1.2z"/>
					<polygon id="XMLID_242_" class="st1" points="568.8,0.4 566.8,0.1 562.1,0 					"/>
					<path id="XMLID_241_" class="st1" d="M472.7-1.4L465.4-1c-0.7,0.5,1.2,0.8,4,0.6C471.1-0.7,473.8-0.9,472.7-1.4z"/>
					<path id="XMLID_240_" class="st1" d="M494.8,2.7c-2-0.3-2.1-0.6-3.2-1.1l-0.2,1.9L494.8,2.7z"/>
					<path id="XMLID_239_" class="st1" d="M473.5,3.2c-0.7,0.5-10.6,1.5-1.3,1.4C472.9,4,480.2,3.6,473.5,3.2z"/>
					<polygon id="XMLID_238_" class="st1" points="363.1,0.8 365,0.8 364.7,-2.3 					"/>
					<path id="XMLID_237_" class="st1" d="M265.8,8.1c8.7,0.7,2.1-1.9,9.9-1c2-0.7-6.4-0.7-4.3-1.4C266.2,6.5,263.4,6.1,265.8,8.1z"
						/>
					<path id="XMLID_236_" class="st1" d="M271.4,5.8c0.8-0.1,1.7-0.3,2.7-0.5C272.6,5.5,271.9,5.6,271.4,5.8z"/>
					<polygon id="XMLID_235_" class="st1" points="596.6,237.3 602.2,238 598.6,237 					"/>
					<path id="XMLID_234_" class="st1" d="M607.3,235.1l1.3,1.9l3.4-1.8C610.7,235.4,608.3,235.5,607.3,235.1z"/>
					<path id="XMLID_233_" class="st1" d="M10.5,74.6L10,74.2c-0.5,0.9-0.5,2.2-0.6,4.8L10.5,74.6z"/>
					<polygon id="XMLID_232_" class="st1" points="9,150.3 9.1,149 7.3,151.5 					"/>
					<path id="XMLID_231_" class="st1" d="M11.3,213.9c0.1-2.6-0.3-5.6-0.2-8.2C11.3,211.3,9.1,214.6,11.3,213.9z"/>
				</g>
			</g>
		</g>
	</g>
</g>
<g id="XMLID_15_">
	<g id="XMLID_130_">
		<g id="XMLID_134_">
			<g id="XMLID_135_">
				<g id="XMLID_136_">
					<path id="XMLID_223_" class="st1" d="M-7.3,2c0.1-2.5-1.1-1.6-1.4-2C-8.4,4.2-7,1.9-7.3,2z"/>
					<polygon id="XMLID_222_" class="st1" points="-4.5,43 -5,42.3 -3.7,48.3 					"/>
					<path id="XMLID_221_" class="st1" d="M-4.5,81.4c2.1-3.6-0.3-13.9,0.4-20.7l0.5-1.1l-1.7-3.1C-5,64.7-3.9,75.5-4.5,81.4z"/>
					<path id="XMLID_220_" class="st1" d="M-9.1,101.9c0.8-1.3,0.7,4.4,0.3-4.8c-0.1,0.5-0.1,0.6-0.2,0.9C-9,98.8-9,99.9-9.1,101.9z
						"/>
					<path id="XMLID_219_" class="st1" d="M-9.1,97.9C-9.1,93.9-9.8,100.6-9.1,97.9L-9.1,97.9z"/>
					<path id="XMLID_218_" class="st1" d="M-8.6,116.6l-0.7-5.3c-0.5,1.1-0.6,5.9-1,4.1C-9.9,120.8-9.4,119.7-8.6,116.6z"/>
					<path id="XMLID_217_" class="st1" d="M-7,121.7l-0.3-2.8C-7.5,119.4-7.6,120.1-7,121.7z"/>
					<path id="XMLID_216_" class="st1" d="M-8,113l0.7,5.9c0.3-0.8,1-0.9-0.2-2.7C-6.9,116.7-7.5,115.5-8,113z"/>
					<path id="XMLID_215_" class="st1" d="M-7.7,109.7c0.5-3,0.8-6.8,1.5-1.5C-6.5,98-8,99.6-7.7,109.7z"/>
					<path id="XMLID_214_" class="st1" d="M-2.3,83.3l0.6-4l-0.7-3.5C-2,77.6-2.9,83.6-2.3,83.3z"/>
					<path id="XMLID_213_" class="st1" d="M-9.7,149.8c0.5,0.3,1.2-1.8,1.8-2.2l-0.5-3.9C-8.7,145.7-9,149.5-9.7,149.8z"/>
					<path id="XMLID_212_" class="st1" d="M-7.9,147.6l0.8,5.9C-7,148.2-7.4,147.3-7.9,147.6z"/>
					<polygon id="XMLID_211_" class="st1" points="-4.6,122.6 -6.3,112.9 -4.6,124.5 					"/>
					<polygon id="XMLID_210_" class="st1" points="-9.7,172.2 -10.8,168.9 -9.2,174.9 					"/>
					<path id="XMLID_209_" class="st1" d="M-9.6,187.2c-0.9-2.5-1.5,3.4-2,0.8c0.2,4,0.9,7.5,1.6,10.6
						C-10.4,195.2-10.3,191.7-9.6,187.2z"/>
					<path id="XMLID_208_" class="st1" d="M-9,203.8c-0.2-1.7-0.6-3.4-1-5.2C-9.8,200.3-9.5,202-9,203.8z"/>
					<path id="XMLID_207_" class="st1" d="M-7.3,163.5c-0.3,0.5-1,1.3-1.3,4.6l1.3-2.3C-7.3,165.1-7.3,164.3-7.3,163.5z"/>
					<path id="XMLID_206_" class="st1" d="M-7.3,165.7L-7.3,165.7c-0.1,2.6-0.1,4.3-0.1,5.1C-7.4,170.2-7.4,168.6-7.3,165.7z"/>
					<path id="XMLID_205_" class="st1" d="M-7.3,162.9c0,0.2,0,0.4,0,0.6C-7.2,163.3-7.2,163.1-7.3,162.9z"/>
					<path id="XMLID_204_" class="st1" d="M-5.8,138c0.7,3.5,1.5,10.7,2.6,3.7C-4.1,139.2-4.7,143.2-5.8,138z"/>
					<path id="XMLID_203_" class="st1" d="M-5.7,160l0.3-6.2c-0.3,0.1-0.8,1.2-1.2-0.5L-5.7,160z"/>
					<polygon id="XMLID_202_" class="st1" points="-5.3,163.1 -5.7,160 -5.8,162.4 					"/>
					<path id="XMLID_201_" class="st1" d="M-7.8,193.1c0.6,2.7,0.6,5.7,0.7,9c0.3-3.6,0.4-7.3,0.4-10.8
						C-7.1,190.8-7.9,189.2-7.8,193.1z"/>
					<path id="XMLID_200_" class="st1" d="M-7.5,179.8c0,0.2,0.1,0.4,0.1,0.6C-7.3,180-7.2,179.7-7.5,179.8z"/>
					<path id="XMLID_199_" class="st1" d="M0.8,237.1c-0.3-0.1-0.5-0.2-0.7-0.2C0,237-0.1,237-0.3,237.1L0.8,237.1z"/>
					<path id="XMLID_198_" class="st1" d="M-6.5,190.7c0.2-2.7-0.1-4.3-0.5-5.8c0.1,2,0.2,4.1,0.2,6.4
						C-6.6,191.5-6.4,191.5-6.5,190.7z"/>
					<path id="XMLID_197_" class="st1" d="M-8.4,212.9c0.3-1.4,0.5-3,0.7-4.7C-8.1,209.6-8.7,212.4-8.4,212.9z"/>
					<path id="XMLID_196_" class="st1" d="M-7.7,181.3c0-0.1,0-0.3-0.1-0.4C-8.1,181.8-7.9,181.7-7.7,181.3z"/>
					<path id="XMLID_195_" class="st1" d="M-7.7,181.3c0.2,1.4,0.5,2.5,0.8,3.6c-0.1-1.6-0.2-3.2-0.4-4.5
						C-7.5,180.7-7.6,181-7.7,181.3z"/>
					<path id="XMLID_194_" class="st1" d="M14.8,228.9c-0.3,0.6-2.1,1.2-4.8,1.4c-2.7,0.3-6.3,0.2-8.8-0.4c-0.6,0.1-1.1,0.2-1.5,0.3
						c-0.8-1.9-2.5-0.4-4.2,4.2c0.6,0.9,2.1,1.8,4.4,2.5c0.3-0.3,0.5-0.5,1.9-0.8c1.4-0.3,3.9-0.6,8.4-0.9c-1.6-0.3-6.3-0.7-9.4-1.1
						c-3.1-0.4-4.5-0.9-0.8-1.5c5.2-0.3,7.1-0.2,8.5,0.1c0.7,0.1,1.2,0.3,1.9,0.5c0.3,0.1,0.7,0.2,1.2,0.3c0.4,0.1,0.8,0.2,1.3,0.3
						c-3.4-1.5,10.4-2.2,8.6-4.3l-7.2,0.8C14.2,229.7,16.8,229.2,14.8,228.9z"/>
					<path id="XMLID_193_" class="st1" d="M-6.8,225l-0.1-4c-0.2,4.7-0.7,8.1-1.6,15.5c0.1,0.9,0.2,1.8,0.2,1.8
						c6.1-0.5,7.4-0.8,8-1.2l-6.8-0.1l0.1-13.3L-6.8,225z"/>
					<path id="XMLID_192_" class="st1" d="M-6.9,208.7c1.3,2,1.8,8.1,3.2,4.3c-0.1-7.5-1.1-5.2-1.6-9.7c0.3,12-0.7-3.5-1.5,5.2
						c-0.2-2.4-0.3-4.5-0.3-6.5c-0.2,2.2-0.4,4.3-0.6,6.2c0-0.1,0.1-0.2,0.1-0.3l0-0.1c0,0,0,0,0,0c0.2-0.5,0.3-0.7,0.2-0.1
						c0,0,0,0.2,0,0.3C-7.2,208.2-7.1,208.4-6.9,208.7c-0.3,3.5-0.3,0.5-0.5-0.5c-0.1,0-0.1-0.1-0.2-0.1c0,0,0,0,0,0
						c0,0,0.2,3,0.4,6c0.1,1.5,0.2,3,0.2,4.1c0.1,1.7,0.1,2.9,0.1,2.9c0-0.9,0.1-1.9,0.1-3c0-0.7,0-1.6,0-2.5
						C-6.8,213.7-6.9,211.5-6.9,208.7z"/>
					<path id="XMLID_191_" class="st1" d="M-0.4,148.2c-0.1,0.4-0.2,0.4-0.3,0.4C-0.6,149.3-0.5,149.6-0.4,148.2z"/>
					<path id="XMLID_190_" class="st1" d="M-1.2,153.1c-0.2-0.9-0.7-1.6-0.6-4.5c0.4-2.5,0.6,0,1-0.1c-0.3-1.7-0.9-6-1.6-0.6
						l0.2,0.9c-0.4,4.9-2.1,11.1-2.2,10.2C-3.2,157.6-2.4,156.3-1.2,153.1z"/>
					<path id="XMLID_189_" class="st1" d="M-3.7,181.2l0.6,10l1.1-5.1l-0.7,0.3C-2.4,180.7-3.2,181.9-3.7,181.2z"/>
					<path id="XMLID_188_" class="st1" d="M2.3,237.8c0,0-0.7,0.3-1.5,0.7c-0.8,0.3-1.6,0.7-1.6,0.7s2.8-0.5,5.5-1c2.5-0.5,5-1,5-1
						L2.3,237.8z"/>
					<polygon id="XMLID_187_" class="st1" points="19.1,237.6 18.6,238.8 22.1,238.1 					"/>
					<path id="XMLID_186_" class="st1" d="M604.9,86.7l-0.3-3C604.6,85.2,604.8,86.1,604.9,86.7z"/>
					<path id="XMLID_185_" class="st1" d="M604.8,108.1l0.6,0.5C605.1,107.6,604.8,107.2,604.8,108.1z"/>
					<path id="XMLID_184_" class="st1" d="M339.5,237.5c4.3,1.1,9.1,2.8,8.6,1.5l-1.3-1.3C343.8,237.9,341.5,237.8,339.5,237.5z"/>
					<path id="XMLID_183_" class="st1" d="M558.9,229.7c-0.4-0.1-0.8-0.3-1.3-0.4c-1,0.4-2,0.9-2.9,1.2
						C556,230.3,557.4,230,558.9,229.7z"/>
					<path id="XMLID_182_" class="st1" d="M562,224.3l5.7,0.8C566.4,224.9,564.5,224.6,562,224.3z"/>
					<path id="XMLID_181_" class="st1" d="M582.1,8.5l-3.4,1.3C584,9.8,581.6,9.2,582.1,8.5z"/>
					<path id="XMLID_180_" class="st1" d="M152.7,237.1c3.7,0.5,6.7,0.7,9.3,0.8C157.5,237.2,153.9,236,152.7,237.1z"/>
					<path id="XMLID_179_" class="st1" d="M618.7,95.1c-0.2-1.8-0.5-2.6-0.8-2.5C618.1,94.5,618.4,95.5,618.7,95.1z"/>
					<path id="XMLID_178_" class="st1" d="M172.7,237.9c-0.7-0.1-1.3-0.2-2-0.3c-2.7,0.2-5.4,0.4-8.7,0.3
						C165.3,238.5,169,238.8,172.7,237.9z"/>
					<path id="XMLID_177_" class="st1" d="M159.1,7.4c-0.3-0.1-0.7-0.1-1-0.2C158,7.4,158.4,7.5,159.1,7.4z"/>
					<path id="XMLID_176_" class="st1" d="M35.8-5.7C37-5.8,39-5.8,40.9-5.8C40-5.9,38.5-5.9,35.8-5.7z"/>
					<path id="XMLID_175_" class="st1" d="M71.6,238.2C68.8,238.3,71.1,238.3,71.6,238.2L71.6,238.2z"/>
					<path id="XMLID_174_" class="st1" d="M58.1,233c0.6-0.1,1-0.3,1.1-0.6C59,232.7,58.6,232.9,58.1,233z"/>
					<path id="XMLID_173_" class="st1" d="M200.2,229.8c0.1,0,0.1,0,0.2,0C199.6,229.6,199.8,229.6,200.2,229.8z"/>
					<path id="XMLID_172_" class="st1" d="M67.4,237.6c1,0.2,2.2,0.3,3.5,0.4C70.4,237.9,69.3,237.7,67.4,237.6z"/>
					<path id="XMLID_171_" class="st1" d="M68,238.2c-1,0-1.7-0.1-2.4-0.1C65.2,238.3,65.5,238.4,68,238.2z"/>
					<path id="XMLID_170_" class="st1" d="M75.4,238.1c-1.6,0-3.1,0-4.5-0.1c0.5,0.1,0.8,0.2,0.6,0.2
						C72.4,238.2,73.5,238.1,75.4,238.1z"/>
					<path id="XMLID_169_" class="st1" d="M385.7,3.9c-0.2,0-0.4-0.1-0.6-0.1C382.3,4.4,383.6,4.3,385.7,3.9z"/>
					<path id="XMLID_168_" class="st1" d="M411.5,224c-0.1,0-0.2,0-0.3,0.1c0.1,0,0.3,0,0.4,0L411.5,224z"/>
					<path id="XMLID_167_" class="st1" d="M421.4,223c-4.2,1.6-6.6,1.4-9.8,1.1l3.3,3.8L421.4,223z"/>
					<path id="XMLID_160_" class="st1" d="M604.5,35.6l-1.2,7c-1.9-8.4-1.3-14.5-2.9-8c4.1,1,0.4,27.1,4.5,28.1l-0.9,4.6
						c0-1.3-0.2-1.5-0.2-2.8c-2,8.9,2.9,6.6,2.4,18.2c-0.3,4-0.9,6.8-1.4,4.1l1,9c-0.1,2.6-0.8,2-0.7-0.6l0.3,13.7l-0.1-0.1
						c0.6,1.9,1.6,6.4,2,8.5c-0.6,3.5-0.4-1.7-0.9-0.9l1,7.6c-1.1,3.1-2.1-3.2-1.9-8.4c-4.1,7.1,1,6.3-1.4,21.5l-0.5-7.1
						c-2.3,4.6-1.5,10.2-2.9,18.2c0.8-1.9,3.6-16.2,4.6-8c-0.3,2.3-0.5,5.4,0.4,9.8c-1.4,0-1.1,4.4-1,9.8l-1.9-0.4
						c0.6,5.8,1.5,5.4,2.4,8.8c-0.2,6.5-1.7,7.9-2.9,9.4c-0.3,10.4,2.4-7.2,2.7,5.1c-0.7,8.7,0,14.8,1.2,25.2
						c-0.7,6.1-1.2-1.1-1.7,1.1l1.5,5.4c0,1.3-0.5,0.9-0.7,0.7c0.3,2.3,0.8,2.4,1.2,2.8c0.1,0.1,0.2,0.2,0.3,0.4
						c0.1,0.1,0.1,0.2,0.2,0.3c0.1,0.1,0.1,0.2,0.2,0.3c0.2,0.4,0.4,1.1,0.5,2.3c0.9,0.8,0.4,2.9-0.2,4.6c-1.9-0.4-3.7-0.9-5.2-1.1
						c-0.4,0-0.7-0.1-1.1-0.1c-0.2,0-0.4,0-0.5,0l-0.8,0c-1.4,0.1-2.7,0.3-3.9,0.6c-2.2-0.5,1.1-1.2,0.4-1.9
						c-12.1,1.6-10.4,1.1-20.3,3.3l-8.5-1.3c6.2,1.4-1.7,3.1-8.7,4.5c2.2,0.7,4.1,1.3,5.4,1.6l-11.1,1c-1.3-0.3-0.2-1,1.6-1.8
						c-0.8,0.2-1.5,0.3-2,0.5c-4-0.7-1.9-1.8,0.9-2.9c1.4,0.4,2.7,0.8,4,1.2c2.7-1.2,5.3-2.5,4.7-3.6c-0.7,0.2-2.1,0.4-3.6,0.5
						c0.7-0.3,1.2-0.6,0.8-0.8c-0.4-0.2-1.5,0.2-3.4,0.7l-2.5-2.1l-0.6,0.8l-14.5-1.3c-10.4,2.2-19.5,5.3-36,6.2
						c4.1-1.6,0.9-2.6,1.1-4.4c4.5,2,12.8-0.8,21.4-0.4c-4.5-0.2-3.5-1.1-2.3-1.4l-15.3,1.8c0.3-1.5-3.2-1.1-7.2-1.8
						c3,3-11.4,2-17.6,2.9c-0.4-1,1.1-2,8.7-1.8c-8.4-2.3-10.8,3.5-19,1.6c1.9,0,2.8,0.1,3.6-0.4c-4.3,0.9-14.9,0.2-12.4-0.7l1.8,0
						c-12.3-0.4-37.4,0-39.2,2.5c-0.1-0.3,1.6-3.1,2.4-3.6l-21.9,8.6c1.9-2.2-5.5-7.4,4.7-8.6c-2.9-0.3-6.5-0.7-12.7,0.1
						c2,0.3,5,3.2,2.2,3.4c-7.5-2.4-5.2-1.3-14.4-3.4c3,0.5-0.3,3.9-5.1,3.8c0.7-0.5-0.4-3.4,1.3-3.8l-11.8,3.4
						c2.9-0.6,0.5-2.9-2.1-3.8c1.2,0.7-10.2-0.1-13.3,0.3l5,0.8c-13.3-0.5-13.1,4.7-26.3,4.6c1.6-0.7,3.9-4.3-2.8-4.7
						c-3.1,1.7-13.6,8.3-25.3,9.6l-2.2-1l-8.9,1.1c5.6-2.6,21.2-8.1,29.7-10.2c-5-0.8-1.4-1.2-8.8-1.1c-2.6-0.9,4.1-1.4,6.2-1.5
						l-17.3-0.6c0.8,2-13.3,2-12.6,3.7l18.8-2.1c0.8,2-10.9,5.7-23.2,5.4c-3.1-0.8,2.3-3.6,2.1-4.3c-1.6,0.7-11.7,1.3-12.8,0.8
						l5.2-1.1c-6.8-0.8-11.2,2.7-19.4,0.7c-2.8-0.1-8.5-2.6-9-1.4c4.6,2.3,5.5,9.4,2.4,11.1c-1-0.2-14.9-2.2-18.1-3.3
						c-4.7-1.8,7-4.3,3-5.9c-0.2,0.6-2.8,1.2-3.8,1.4c-3-0.5,1.2-1.7-5.2-1.5c-1.1,2-13.2-0.2-3.1,1.7c-6.3,0.6-6.7-0.4-14.2-0.3
						c2.4,1.3-6.7,4.5-13,5.1c0.4-0.5-1.1-1.2-1.7-1.5c-13-0.2-19.9-1.1-32-1.1c-1.1-0.5-7-1.1-4.5-2c-1.7,0.4-3.3,1.1-7.1,1.1
						c-7.2-1.8,8.3-0.3,2.8-2.4c-0.5,1.2-9.7,1.6-15,2.4c1.6,1.8,12.3,0.4,17.6-0.4c0,2.5-9.2,5.2-21.9,6.4
						c-10.1,0.6-4.4-1.6-6.1-1.3c-18.9-0.4-16.1,4.4-31.8,2.6c-6.2-1.6-0.3-3.2-1.7-4.4c8.2-0.6,12.6,1,18.1,1l-6.8-0.8
						c2.6-0.5,8.1-0.9,11-0.5c-5.2-1.4-31.9-0.3-46.5-1.6c-2.6,0.5-7.1,1.1-4.9,1.7l4.6-0.2c4.2,1.3-8.7,1.8-2.8,2.4
						c-6.2,0.9-13.1,2.4-21.8,1.6l-1.6-1.8c0.2,0.5,5.7,1.1,8.1,0.5c-3.6,0.8-13.3-2.5-17.3-0.1l6.1,1.3c-6.2,0.9-13.9,2.9-21.6,2.3
						c3.5,1.8,1.8-0.2,7.3,1.9c-4.8-2.6,19.7,0.1,12.1-2.7c5.6,2.5,9.7,1,17.1,3.1c-0.2-0.6-2.6-1.2,3.9-0.9c0.3-0.2,1-0.4,1.4-0.5
						c0.2,0,0.3,0,0.4,0c-0.1,0-0.2,0-0.4-0.1c0.3-0.1,0.3-0.1-0.1,0c-1.5-0.3-2.8-0.6-3.3-0.9c3.2-1.4,13.5-1.3,17-2.1
						c3.8,0.3-1.6,0.7,0.5,1.3l5.2-1.1c0.5,1.3,10.2,2.2,1.2,3l8.1,0.1c4.8,0.8,11.4,1.1,15.5,0.5c3.8,0.3,9.7-1.5,6.4-0.4l12.8-0.8
						l0.1,0.3c12.6,0.2,26-2.2,40.4,0.2c4.2-0.3,8.6-0.8,15.7-0.4l1.4,1.2c5.4-0.4,16.4,1.2,18.7,0c5.9,3.1,26.4,0.7,36,1.2l0.4-1.5
						c6.6,0.1,12.9-0.3,21.1-1l-0.5-1.3c7.1-1.1,18.2,1,29.3,0.8c-0.8,0.5-3.6,0.4-5.6,0.1c13.3,3,28.1-2.2,40.2,0
						c3-0.5,5.2-0.3,7.3,0c-0.3,0-0.5,0-0.7,0.1c0.3,0,0.8,0,1.2,0c1.3,0.2,2.7,0.5,4.2,0.7c-1.3-0.3-2.5-0.6-3.5-0.7
						c2.3,0,5.9-0.2,9.3-0.5l1.5,1.4c0.3,0,0.5,0,0.8,0c3.4,0.5,2.7-0.7,0.9-1.8c1.7-0.2,3.3-0.5,4.6-0.9c2.8,2.3,9.1-0.8,12.8,1.7
						c2.3-1.2,17.4-0.9,19.2-3.5c0.1,0.3,1.1,0.5-0.7,0.5c3.9,0.3,7.7,0.6,11.2-0.1l1.6,1.8l8.4-2.5c5.1,1.1,7.2,1.8,2.2,3.2
						c12.3-2.2,9.9-0.8,20.4-3l-0.5,1.2c3.7,0,9.7-1.6,11.9-0.7c8.3,2.3,41.2,0.3,62.6,2.4c-4.2-3.5,9.9,1.6,10.8-1.1
						c1.2,0.8,4.2,1.3,0.8,2c10.9-0.8,16.4,1.3,23.9-1c1.2,0.8-2.3,1.2-1.2,1.7c0.9-0.2,3.5-0.7,4.6-0.2c1.1,0.5-1.6,0.7-3.3,1.1
						c11.2-0.1,12.3-2.7,13.1-5.1c5.7,1.1,8.5,1,12.6-0.6c2,0.8,5.3,1.6-1.7,1.9c3.9,0.1,23.8,1.1,24.2-0.8c1.2,0.5,5.5,0.1,6.5-0.1
						c4.6,0.1,7,0.1,9.5,0.2c3.2,0,6.4,0,12.1-0.1l-3.4-0.3c1-0.8,2.3-1.1,3.9-1.2c-0.1-1.6,0.1-3.2,0.2-5.2c0.1-2,0.3-4.3,0.2-7.1
						l0.2,0.3c0.2-2.2,0.3-3.9,0.4-5.3c0.1-1.3,0.1-2.3,0.2-3.1c0-1.6-0.1-2.5-0.1-3.3c-0.2-1.7-0.3-3.3,0.6-11.2l-1.4,0.9
						c-3.1-1.5,1.8-13.9,0.6-23l-0.8,3.3c-1.1-5,4.2-13.9,4.6-18.9c0.3-1.1,0.4,1.7,0.6,3.2c1.8-13.1-1.9-1.7-2.3-11.4
						c1-1.8,2.6,2.3,2.8-4.2c0.8-3.3-3.3-19-1.4-27.9c-0.8,2-1.6,3.9-2.2-0.6c-0.3-6.9,3-18.7,0.5-25c0.2-0.9,0.4-1.2,0.6-1.2
						c-0.6-5.3-1.1-17.2-2.4-20.4c5-4.9-2.4-32.9,2.2-32.8l-0.2-16.3l0.5,0.4c0.2-5.2,0-8.7-0.4-11.4c0-0.2,0-0.3-0.1-0.5
						c0-0.2-0.1-0.4-0.1-0.7c-0.1-0.4-0.1-0.9-0.2-1.3c-0.1-0.8-0.2-1.6-0.4-2.3c-0.3-1.4-0.5-2.5-0.8-3.6c0.3-3.4,0.7-1.3,1-1.1
						c0.1-3,0.2-5.6,0.3-7.9c-3.7-0.1-6.8-0.2-9.6-0.2c-1.4,0-2.7,0-4,0c-0.6,0-1.3,0-1.9,0.1l-0.9,0l-0.5,0l-0.3,0
						c-3.3,0.3-6.8,0.9-12.3,1.9l-1.3-1.5c-3.5,0.9-22-2.3-36.9-0.6c0.1-0.2,0.5-0.5,1.6-0.7c-16.8,1.7-40.2-4.1-46.3,1.3l-11.1,1.3
						c14.3,0.4-2.1,2.3,3.8,3.2C492,0,483-1.9,489.9-2.2l1.1,0.3c2.5-2.8-17.8-1-17.4-2.9c-28.2,0.1-55.7-1.4-82.1-1.5l3,2.2
						l-9.2-0.1c-2.4-0.5-3.2-1.7,3.3-1.6c-3.5-1.2-11,1-11.2,1.5c-12.9-0.9,5-2.6,1.1-2.6l-5.4,0.2l1.2,0.3
						c-4.3,0.9-4.7,1.8-12.6,1.7c-5-0.4-2.6-1.4-4.5-1.4c0-0.2-0.7-0.2-3-0.1l-11.6-0.2l4.6,1.7c-5.1,0.9-10.9-0.1-5.6,1.9
						c-7.9-3-43.3-1.1-48.1-2c-7.2,1.3-14.3,1.2-23.1,1.1c2.2,0.4,3.5,2.3-4.1,2.1c2.8-4-13.9-1.7-20.1-4.6c5.5,1.9-21.6,0.5-13,3.2
						c-6.3-0.3-0.4-1.5-5.2-2.5c-15.1,1.6-33.3-1-51.9-0.5c-0.3,0.5,2.8,1.3-1.2,2.1l-9.9-2.6c-3.7,0.3-3.4,3-10.1,1.2
						c1,0.4,2.4,1.1-0.1,1.3C118.3-6.8,80.2-2.1,43.1-7c5,1,1.7,1.1-2.2,1.2c2.5,0.2-0.1,1.3,0.4,2l-15.5-2c-2.8,2-16.7,0.1-18.3,2
						l4.9-0.3c-6.5,2.2,9.2,5,8.2,7.9C27.9,1.2,39.9,7.5,52,3.9c2.7,0.6-2.3,0.9-0.8,1.6c3-1.2,6.7-1.5,13.5-0.9l-0.8,0.3
						c19.2-0.3,27.4,0.9,48.9,1.7l-1.6-1.4c4.6,0.2,5.6,0.6,7.8,1c5.3-2.2-13-0.1-8.2-2.5c6.1,2.9,32.6,0,36.8,3.3
						c7.1,0-2.1-1.6,5-1.6l1.9,0.9l1.8-1.1c4.7,0.2,7,1.3,7.2,2.1c-1.1-0.1-3.2,0.2-4.4,0.3c6.1,1,17.1-0.4,19.1,0l-6.8-0.5
						c19.4-0.8,43.1,0.3,61.9-1.5l-1.4-0.7c14.3-1.2,11.5,0.7,27.2,0.2L258.5,5c3.1-0.7,7.4-1,11.7-0.9c-4,0.8,7.5,1.5,2.3,2.4
						c15.5-1.3,7.7-1,17.9-3.5l2.4,1.1c3.5-1,3.8-1.5,11.6-1.8c-6.4,1,5,1.7-2.2,3c16.5,2.4,24.5-2.5,32,1.1
						c7.6-3.1-14.3-1.7-10-2.4c-3.6-1,6.2-2.3,11.4-2c5.3,0.1,9,3.9,22.2,3.9c-1.3,0-1.4,0.2-2.7,0.2c5,0.8,9.7-1.1,15.8,0.2
						c3.4-1.9,7.9,0.1,8.9-2.3l-12.2,0.5c6.9-0.6,13.3-3.4,24.7-2.1c-0.9,0.5-4.3,1.1-6.6,1.5c3.3,0.7,6.4-0.5,9.8,0.3
						c-1,2.4-14.8,0.5-22.2,2.3c3.6,1,14-1.7,10.3,0.9c5.3-3.3,13.1,0.4,22-2.1l-0.6,1.4c1.4-0.2,4.4-0.9,7-0.9l-4.7,1.8
						c7.3-1.6,14,1.4,21,0.5c-14.6,0-3.3-1.7-9.4-2.8c18-1.9,10.3,3.7,30.5,3c-2.7,0.2-10.2-0.9-6-1.5c3.8,0.3,8.9,0.8,11.3,1.6
						c13.3-0.3-2-1.5,3.6-2.3c4.5,1.7,6.6-0.7,12.4-1.3l0,1.4c15.2,0.9,4-3,17.7-1.9l-5.8,2l7.1-0.5l-1.5,1.6
						c7.8-1.2,10.2-0.9,17.8-0.4c-1.8-1,1-2.6,7.7-2.7c4.6,0.9-2.6,1.4,7,1.2c-2.2,0.9-4.5,2-8.7,0.7c-0.4,0.5-2.1,0.9-2.6,1.4
						c4.9,1,12.4,0.2,15.9,0.2c-1.3-0.1-2.9-0.1-3.7-0.3l13.8-2c2.2,0.5,0.5,1-1.3,1.4c2.8-0.2,4.7-0.8,8.9-0.9
						c-1.1,1.2-0.8,2.4-6.6,2.9l13.2-1.3c0.9,0.5,6.8,1.4,5.1,1.8c7.3,0.7,17.9-2.3,27.6-1.4c0.5-0.2,1.5-0.4,3.6-0.6
						c4.3,0.1,8.3,0.5,12.5,0.7c0.5,0,1.1,0,1.6,0.1l0.4,0l0.1,0l0.2,0c0.3,0,0.6,0,0.9,0c0.6,0,1.3-0.2,2.4-0.5
						c0.1,0.1,0.2,0.3,0.3,0.4c0,0-0.5,1-1.1,1.6c-0.5,0.7-1.1,1.1-1.1,1.1c0.2,0.6,0.9,0.4,1.6-0.3c0.4-0.3,0.7-0.6,1-0.5
						c0.2,0.1,0.3,0.2,0.5,0.6c0.1,0.2,0.1,0.4,0.2,0.7c0.1,0.6,0.1,1.4,0.2,2.3c0.7,10-1.8,3.7-2.4,7.2c1.1,5,3.2,13.6,1.5,22.7
						C604.3,40.8,604.7,38.4,604.5,35.6z M605.4,139.9c-0.3-2-1.2-6-0.4-7.5C606.7,134.6,605.9,136.4,605.4,139.9z M543.6,226.9
						c1.5-0.5,3.8-0.2,6.4,0.3C548.1,227.3,546,227.3,543.6,226.9z M101.9,237c0.1,0,0.1,0,0.2-0.1C106.6,237.5,105,237.3,101.9,237
						z M92.5,236.4c-0.9,0.2-0.9,0.4-0.5,0.6c0.7-0.4,2.8-0.4,5.1-0.3C96.6,236.3,95.3,236,92.5,236.4z M356.2-5.8l1.8,0.4
						C353.9-5,355-5.4,356.2-5.8z"/>
					<path id="XMLID_159_" class="st1" d="M561.6,224.9c0.6,0.2,0.7,0.5,0.9,0.8C563.2,225.5,563.2,225.2,561.6,224.9z"/>
					<path id="XMLID_158_" class="st1" d="M582.7,8.3l-0.3,0c-0.2,0.1-0.3,0.2-0.3,0.3L582.7,8.3z"/>
					<path id="XMLID_157_" class="st1" d="M237.6,224.1c1.9,0.2,3,0.5,3.7,0.7C241.4,224.5,240.5,224.2,237.6,224.1z"/>
					<path id="XMLID_156_" class="st1" d="M42.9,238.8l6-0.4c-2.9,0.1-3.9-0.2-5.4-0.5C43.7,238.3,44.8,238.8,42.9,238.8z"/>
					<path id="XMLID_155_" class="st1" d="M0.1,220.9c-0.2-0.8,0-1.8-0.2-2.7l-0.7,0.2c0,2,0.2,3.6,0.3,4.2
						C-0.2,223.2,0,222.8,0.1,220.9z"/>
					<path id="XMLID_154_" class="st1" d="M37.4,234c-0.5-1.2-4.2-0.8-8.4-0.6c0.3,0,0.5,0,0.7,0C28.5,235.1,32.9,234.6,37.4,234z"
						/>
					<path id="XMLID_153_" class="st1" d="M28,233.5c-1.3,0.1-2.6,0.1-3.9,0C23.6,234.2,25.7,233.7,28,233.5z"/>
					<path id="XMLID_152_" class="st1" d="M80.7,237.2c-2-0.3-1.2,1.6-2.4,1.1C76.1,239.8,91.6,236.4,80.7,237.2z"/>
					<polygon id="XMLID_151_" class="st1" points="34,230 35.5,231.5 37.9,230.3 					"/>
					<path id="XMLID_150_" class="st1" d="M67.2,231.1l-6.7-0.4c0.1,0.3-0.8,0.4-1.8,0.5C62.8,231.3,67.3,231.6,67.2,231.1z"/>
					<path id="XMLID_149_" class="st1" d="M58.6,231.2c-2.2,0-4.2,0-5.4,0.2C54.4,231.4,56.9,231.4,58.6,231.2z"/>
					<polygon id="XMLID_148_" class="st1" points="43.2,229.6 45.2,229.9 49.9,230 					"/>
					<path id="XMLID_147_" class="st1" d="M139.3,231.4l7.3-0.4c0.7-0.5-1.2-0.8-4-0.6C140.9,230.7,138.2,230.9,139.3,231.4z"/>
					<path id="XMLID_146_" class="st1" d="M117.2,227.3c2,0.3,2.1,0.6,3.2,1.1l0.2-1.9L117.2,227.3z"/>
					<path id="XMLID_145_" class="st1" d="M138.5,226.8c0.7-0.5,10.6-1.5,1.3-1.4C139.1,226,131.8,226.4,138.5,226.8z"/>
					<polygon id="XMLID_144_" class="st1" points="248.9,229.2 247,229.2 247.3,232.3 					"/>
					<path id="XMLID_143_" class="st1" d="M346.2,221.9c-8.7-0.7-2.1,1.9-9.9,1c-2,0.7,6.4,0.7,4.3,1.4
						C345.8,223.5,348.6,223.9,346.2,221.9z"/>
					<path id="XMLID_142_" class="st1" d="M340.6,224.2c-0.8,0.1-1.7,0.3-2.7,0.5C339.4,224.5,340.1,224.4,340.6,224.2z"/>
					<polygon id="XMLID_141_" class="st1" points="15.4,-7.3 9.8,-8 13.4,-7 					"/>
					<path id="XMLID_140_" class="st1" d="M4.7-5.1L3.4-7L0-5.3C1.3-5.4,3.7-5.5,4.7-5.1z"/>
					<path id="XMLID_139_" class="st1" d="M601.5,155.4l0.5,0.4c0.5-0.9,0.5-2.2,0.6-4.8L601.5,155.4z"/>
					<polygon id="XMLID_138_" class="st1" points="603,79.7 602.9,81 604.7,78.5 					"/>
					<path id="XMLID_137_" class="st1" d="M600.7,16.1c-0.1,2.6,0.3,5.6,0.2,8.2C600.7,18.7,602.9,15.4,600.7,16.1z"/>
				</g>
			</g>
		</g>
	</g>
</g>
</svg>
