<?xml version="1.0" encoding="utf-8"?>
<!-- Generator: Adobe Illustrator 19.0.0, SVG Export Plug-In . SVG Version: 6.00 Build 0)  -->
<svg version="1.1" id="Layer_1" xmlns="http://www.w3.org/2000/svg" xmlns:xlink="http://www.w3.org/1999/xlink" x="0px" y="0px"
	 viewBox="0 0 612 86.8" preserveAspectRatio="none" style="enable-background:new 0 0 612 86.8;" xml:space="preserve">
<style type="text/css">
	.st0{fill:#FCB53A;}
	.st1{fill:#DF263A;}
</style>
<g id="XMLID_89_">
	<rect id="XMLID_318_" x="0" y="0" class="st0" width="612" height="86.8"/>
	<g id="XMLID_224_">
		<g id="XMLID_228_">
			<g id="XMLID_229_">
				<g id="XMLID_230_">
					<path id="XMLID_317_" class="st1" d="M619.3,85.2c-0.1,2.1,1.1,1.3,1.4,1.6C620.4,83.3,619,85.3,619.3,85.2z"/>
					<polygon id="XMLID_316_" class="st1" points="616.5,51.1 617,51.7 615.7,46.7 					"/>
					<path id="XMLID_315_" class="st1" d="M616.5,19.3c-2.1,3,0.3,11.5-0.4,17.2l-0.5,0.9l1.7,2.6C617,33.1,615.9,24.1,616.5,19.3z"
						/>
					<path id="XMLID_314_" class="st1" d="M621.1-5.1c-0.4,1.3-0.6-0.2-0.6-0.4c0,0.1,0,0.2,0.1,1.2c0.1,1.1,0.2,3,0.3,6.3
						c0.1-0.7,0.1-0.9,0.2-1.4C621-0.5,621-2.1,621.1-5.1z"/>
					<path id="XMLID_313_" class="st1" d="M621.1,0.8c0,3,0.2,1.9,0.3,0.6C621.4,0.1,621.4-1.4,621.1,0.8z"/>
					<path id="XMLID_312_" class="st1" d="M603.2-8.6l8.1-0.7c-1.4-0.5-8.7-0.6-5.9-1c-2.2,0.1-3.7,0.2-4.6,0.3c-0.1,0-0.2,0-0.3,0
						c-0.1,0-0.1,0-0.2,0c-0.1,0-0.2,0.1-0.2,0.1c-0.1,0.1-0.2,0.1-0.2,0.2c0,0.1,0.2,0.3,0.6,0.5C601.2-9,602.1-8.8,603.2-8.6z"/>
					<path id="XMLID_311_" class="st1" d="M597.8-7l2.3-0.3C599.7-7.5,599.1-7.6,597.8-7z"/>
					<path id="XMLID_310_" class="st1" d="M608.1-8c0,0-2.1,0.2-4.2,0.3c-2,0.2-4.1,0.3-3.8,0.3c0.3,0.2,0.6,0.4,1.1,0.5
						c0.5,0.1,1.1-0.1,2.4-0.7C602.9-6.9,604.5-7.5,608.1-8z"/>
					<path id="XMLID_309_" class="st1" d="M612.6-7.7c1.9,0.2,4.1,0.4,4.8,0.6c0.7,0.2-0.1,0.5-3.8,0.9c1.9,0,3.6-0.1,4.8-0.2
						c0.4,5.4,1.1,4.8,1.3-1.3C618-7.7,615.6-7.7,612.6-7.7z"/>
					<path id="XMLID_308_" class="st1" d="M614.3,17.6l-0.6,3.3l0.7,2.9C614,22.4,614.9,17.4,614.3,17.6z"/>
					<path id="XMLID_307_" class="st1" d="M574.5-9.7c-0.3,0.5,1.5,1.2,1.8,1.8l3.3-0.5C577.9-8.7,574.7-9,574.5-9.7z"/>
					<path id="XMLID_306_" class="st1" d="M576.3-7.9l-4.9,0.8C575.8-7,576.6-7.4,576.3-7.9z"/>
					<path id="XMLID_305_" class="st1" d="M597-4.6c0,0,0.5-0.1,1.3-0.3c0.4-0.1,0.8-0.2,1.3-0.3c0.2,0,0.5-0.1,0.7-0.1
						c0.2-0.1,0.7-0.1,1-0.2c3.1-0.4,6.2-0.8,6.2-0.8s-1,0.1-2.4,0.3c-1.3,0.2-3.1,0.4-4.9,0.6c-2.4,0.4-4.8,0.8-4.8,0.8L597-4.6z"
						/>
					<polygon id="XMLID_304_" class="st1" points="555.8,-9.7 558.6,-10.8 553.7,-9.2 					"/>
					<path id="XMLID_303_" class="st1" d="M543.5-9.6c2-0.9-2.8-1.5-0.6-2c-3.4,0.2-6.2,0.9-8.8,1.6
						C536.8-10.4,539.7-10.3,543.5-9.6z"/>
					<path id="XMLID_302_" class="st1" d="M529.7-9c1.4-0.2,2.8-0.6,4.3-1C532.6-9.8,531.1-9.5,529.7-9z"/>
					<path id="XMLID_301_" class="st1" d="M563.1-7.3c-0.4-0.3-1.1-1-3.8-1.3l1.9,1.3C561.8-7.3,562.4-7.3,563.1-7.3z"/>
					<path id="XMLID_300_" class="st1" d="M561.3-7.3L561.3-7.3c-2.2-0.1-3.6-0.1-4.2-0.1C557.6-7.4,558.8-7.4,561.3-7.3z"/>
					<path id="XMLID_299_" class="st1" d="M563.6-7.3c-0.2,0-0.3,0-0.5,0C563.3-7.2,563.4-7.2,563.6-7.3z"/>
					<path id="XMLID_298_" class="st1" d="M584.2-5.8c-2.9,0.7-8.9,1.5-3.1,2.6C583.2-4.1,579.9-4.7,584.2-5.8z"/>
					<path id="XMLID_297_" class="st1" d="M566-5.7l5.2,0.3c-0.1-0.3-1-0.8,0.4-1.2L566-5.7z"/>
					<polygon id="XMLID_296_" class="st1" points="563.4,-5.3 566,-5.7 564.1,-5.8 					"/>
					<path id="XMLID_295_" class="st1" d="M538.6-7.8c-2.2,0.6-4.7,0.6-7.5,0.7c3,0.3,6,0.4,8.9,0.4C540.5-7.1,541.7-7.9,538.6-7.8z
						"/>
					<path id="XMLID_294_" class="st1" d="M549.6-7.5c-0.2,0-0.4,0.1-0.5,0.1C549.4-7.3,549.6-7.2,549.6-7.5z"/>
					<path id="XMLID_293_" class="st1" d="M503.9-7.1c0.2,0.1,0.3,0.2,0.4,0.2c0-0.1,0.1-0.1,0.1-0.2L503.9-7.1z"/>
					<path id="XMLID_292_" class="st1" d="M540.6-6.5c2.2,0.2,3.6-0.1,4.8-0.5c-1.7,0.1-3.4,0.2-5.3,0.2
						C539.9-6.6,539.8-6.4,540.6-6.5z"/>
					<path id="XMLID_291_" class="st1" d="M522.1-8.4c1.2,0.3,2.5,0.5,3.9,0.7C524.8-8.1,522.5-8.7,522.1-8.4z"/>
					<path id="XMLID_290_" class="st1" d="M548.3-7.7c0.1,0,0.2,0,0.3-0.1C547.9-8.1,548-7.9,548.3-7.7z"/>
					<path id="XMLID_289_" class="st1" d="M548.3-7.7c-1.1,0.2-2,0.5-3,0.8c1.4-0.1,2.6-0.2,3.7-0.4C548.8-7.5,548.5-7.6,548.3-7.7z
						"/>
					<path id="XMLID_288_" class="st1" d="M495.6,1.1c0.4-1.2,6.3-2.3,11.3-1c5-0.9,1.7-4.8-2.6-7c-0.2,0.5-0.2,1-5.3,1.7
						c1.8,0.6,11.4,1.5,7,2.6c-6.8,0.6-5.6-0.4-8.9-1c2.8,1.5-8.6,2.2-7.2,4.3l6-0.8C496.1,0.3,493.9,0.8,495.6,1.1z"/>
					<path id="XMLID_287_" class="st1" d="M514.1-6.8l2.1-0.1c-2.4-0.2-4.1-0.7-7.3-1.6c-3.5,0.6-4.2,1-4.5,1.4l10.4,0.2L514.1-6.8z
						"/>
					<path id="XMLID_286_" class="st1" d="M525.6-6.9c-1.6,1.3-6.7,1.8-3.6,3.2c6.2-0.1,4.3-1.1,8-1.6c-10,0.3,2.9-0.7-4.3-1.5
						c2-0.2,3.7-0.3,5.4-0.3c-1.8-0.2-3.5-0.4-5.2-0.6c0.1,0,0.2,0.1,0.2,0.1l0,0c0,0,0,0,0,0c0.4,0.2,0.6,0.3,0.1,0.2
						c0,0-0.2,0-0.2,0C526-7.2,525.8-7.1,525.6-6.9c-2.9-0.3-0.5-0.3,0.5-0.5c0-0.1,0.1-0.1,0.1-0.2c0,0,0,0,0,0l-10,0.7
						C518.3-6.7,520.9-6.8,525.6-6.9z"/>
					<path id="XMLID_285_" class="st1" d="M575.8-0.4c-0.3-0.1-0.3-0.2-0.3-0.3C574.9-0.6,574.6-0.5,575.8-0.4z"/>
					<path id="XMLID_284_" class="st1" d="M571.7-1.2c0.7-0.2,1.3-0.7,3.7-0.6c2.1,0.4,0,0.6,0.1,1c1.4-0.3,5-0.9,0.5-1.6l-0.7,0.2
						c-4-0.4-9.2-2.1-8.5-2.2C568-3.2,569-2.4,571.7-1.2z"/>
					<path id="XMLID_283_" class="st1" d="M548.4-3.7l-8.3,0.6l4.2,1.1l-0.2-0.7C548.8-2.4,547.8-3.2,548.4-3.7z"/>
					<polygon id="XMLID_282_" class="st1" points="502.9,-7.8 504,-9.1 499.2,-7.2 					"/>
					<polygon id="XMLID_281_" class="st1" points="492.1,-7.6 492.5,-8.8 489.6,-8.1 					"/>
					<path id="XMLID_280_" class="st1" d="M32.1,79.7l2.4-0.3C33.4,79.4,32.7,79.6,32.1,79.7z"/>
					<path id="XMLID_279_" class="st1" d="M14.4,79.6L14,80.2C14.8,79.9,15.1,79.6,14.4,79.6z"/>
					<path id="XMLID_278_" class="st1" d="M226.2-7.5c-3.6-1.1-7.5-2.8-7.1-1.5l1.1,1.3C222.6-7.9,224.5-7.8,226.2-7.5z"/>
					<path id="XMLID_277_" class="st1" d="M44,0.3c0.3,0.1,0.7,0.3,1,0.4c0.9-0.4,1.7-0.9,2.4-1.2C46.5-0.3,45.3,0,44,0.3z"/>
					<path id="XMLID_276_" class="st1" d="M41.5,5.7l-4.7-0.8C37.9,5.1,39.4,5.4,41.5,5.7z"/>
					<path id="XMLID_275_" class="st1" d="M128.9,78.3l2.9-1.3C127.3,77,129.3,77.6,128.9,78.3z"/>
					<path id="XMLID_274_" class="st1" d="M381.2-7.1c-3.1-0.5-5.5-0.7-7.7-0.8C377.2-7.2,380.2-6,381.2-7.1z"/>
					<path id="XMLID_273_" class="st1" d="M25.1,93.5c1.5-0.2,2.1-0.5,2.1-0.8C25.7,92.9,24.8,93.2,25.1,93.5z"/>
					<path id="XMLID_272_" class="st1" d="M364.6-7.9c0.5,0.1,1.1,0.2,1.6,0.3c2.2-0.2,4.5-0.4,7.3-0.3
						C370.8-8.5,367.6-8.8,364.6-7.9z"/>
					<path id="XMLID_271_" class="st1" d="M480,79.4c0.3,0.1,0.6,0.1,0.8,0.2C480.9,79.4,480.5,79.3,480,79.4z"/>
					<path id="XMLID_270_" class="st1" d="M582.3,92.5c-1,0.1-2.6,0.1-4.2,0.1C578.8,92.7,580.1,92.7,582.3,92.5z"/>
					<path id="XMLID_269_" class="st1" d="M448.5-8.2C450.8-8.3,448.9-8.3,448.5-8.2L448.5-8.2z"/>
					<path id="XMLID_268_" class="st1" d="M459.7-3c-0.5,0.1-0.9,0.3-0.9,0.6C458.9-2.7,459.3-2.9,459.7-3z"/>
					<path id="XMLID_267_" class="st1" d="M341.7,0.2c-0.1,0-0.1,0-0.2,0C342.2,0.4,342.1,0.4,341.7,0.2z"/>
					<path id="XMLID_266_" class="st1" d="M452-7.6c-0.9-0.2-1.9-0.3-2.9-0.4C449.5-7.9,450.4-7.7,452-7.6z"/>
					<path id="XMLID_265_" class="st1" d="M451.5-8.2c0.8,0,1.4,0.1,2,0.1C453.8-8.3,453.5-8.4,451.5-8.2z"/>
					<path id="XMLID_264_" class="st1" d="M445.3-8.1c1.3,0,2.5,0,3.7,0.1c-0.5-0.1-0.6-0.2-0.5-0.2C447.8-8.2,446.9-8.1,445.3-8.1z
						"/>
					<path id="XMLID_263_" class="st1" d="M291.9,82.9c0.2,0,0.3,0.1,0.5,0.1C294.7,82.4,293.7,82.5,291.9,82.9z"/>
					<path id="XMLID_262_" class="st1" d="M166.4,6c0.1,0,0.2,0,0.3-0.1c-0.1,0-0.2,0-0.3,0L166.4,6z"/>
					<path id="XMLID_261_" class="st1" d="M158.1,7c3.5-1.6,5.5-1.4,8.2-1.1l-2.7-3.8L158.1,7z"/>
					<path id="XMLID_254_" class="st1" d="M74.6,79.3l-5.8-1.2c7-1.9,12-1.3,6.6-2.9c-0.8,4.1-22.5,0.4-23.3,4.5l-3.8-0.9
						c1.1,0,1.3-0.2,2.4-0.2c-7.4-2-5.5,2.9-15.1,2.4c-3.3-0.3-5.7-0.9-3.4-1.4l-7.4,1c-2.2-0.1-1.6-0.8,0.5-0.7l-11.3,0.3l0.1-0.1
						c-0.4,0.2-0.9,0.3-1.5,0.5c-0.3,0.1-0.7,0.2-0.9,0.3c-0.2,0.1-0.3,0.2-0.5,0.3c-0.7,0.4-1.6,0.7-2.3,0.9
						c-0.7-0.3-0.4-0.4-0.1-0.5c0.4-0.1,0.9-0.2,0.8-0.4c0,0-0.9,0.2-1.9,0.5c-1.1,0.2-2.2,0.5-2.2,0.5C5,81.7,6,81.2,7,80.9
						c1.1-0.4,2.2-0.6,3.1-0.5c-0.4-1.3-0.4-1.7-0.8-1.6c-0.4,0-1,0.4-1.9,0.7c-0.2-0.2-0.3-0.6-0.2-1.2c0-0.6,0.2-1.5,0.7-2.3
						c0,0,0.1,0.4,0.3,0.9c0.1,0.4,0.3,0.7,0.3,0.7c1.2-1.3,1.5-1.7,1.8-2l0.1-0.1l0-0.1l0-0.5c0.1-0.7,0.1-1.4,0.2-2.1
						c0.2-1.4,0.4-3,0.7-4.7c-0.4,0.8-1.3,4.1-2.2,6.4c-0.1,0.3-0.2,0.6-0.4,0.8c-0.1,0.1-0.2,0.1-0.4,0.2c-0.2,0.1-0.5,0.2-0.7,0.3
						c-0.2,0.1-0.4,0.1-0.6-0.1c-0.1-0.1-0.2-0.1-0.2-0.3c0-0.1-0.1-0.1-0.1-0.2c0-0.2-0.1-0.4-0.1-0.6c0.3-1.9,0.5-4.4-0.4-8.1
						c1.4,0,1.1-3.6,1-8.1l1.9,0.3c-0.6-4.9-1.5-4.5-2.4-7.3c0.2-5.4,1.7-6.5,2.9-7.8c0.3-8.7-2.4,6-2.7-4.3
						c0.7-7.2,0-12.3-1.2-20.9c0.7-5,1.2,0.9,1.7-0.9L5.9,13c0-1.1,0.5-0.7,0.7-0.6c0-0.2-0.1-0.4-0.1-0.6c0-0.1,0-0.2-0.1-0.3
						c0-0.1,0-0.1-0.1-0.1c-0.1-0.1-0.2-0.2-0.3-0.3c-0.2-0.2-0.5-0.2-0.7-0.4C5,10.6,4.5,10.2,4.2,8.2C3.3,7.3,3.8,5.7,4.4,4.4
						c1.7,0.4,3.2,0.9,4.5,1.1c0.6,0.1,1.2,0.1,1.8,0c0.3,0,0.5-0.1,0.9-0.2c0.5-0.1,1.1-0.2,1.6-0.4c1.8,0.5-0.9,1.2-0.3,1.9
						C23,5.3,21.5,5.7,29.8,3.6l7,1.3c-5.2-1.4,1.4-3.1,7.2-4.5c-1.8-0.7-3.4-1.3-4.4-1.6l9.2-1c1.1,0.3,0.2,1-1.3,1.8
						c0.6-0.2,1.2-0.3,1.7-0.5c3.3,0.7,1.6,1.8-0.8,2.9c-1.1-0.4-2.2-0.8-3.3-1.2c-2.3,1.2-4.4,2.5-3.9,3.6c0.6-0.2,1.8-0.4,3-0.5
						c-0.6,0.3-1,0.6-0.7,0.8c0.3,0.2,1.3-0.2,2.8-0.7L48.4,6l0.5-0.8l12.1,1.3c8.6-2.2,16.2-5.3,29.9-6.2c-3.4,1.6-0.7,2.6-0.9,4.4
						c-3.7-2-10.6,0.8-17.7,0.4c3.7,0.2,2.9,1.1,1.9,1.4l12.7-1.8c-0.3,1.5,2.7,1.1,6,1.8c-2.5-3,9.4-2,14.6-2.9
						c0.3,1-0.9,2-7.2,1.8c6.9,2.3,9-3.5,15.8-1.6c-1.5,0-2.4-0.1-3,0.4c3.6-0.9,12.4-0.2,10.3,0.7l-1.5,0c10.2,0.4,31,0,32.6-2.5
						c0.1,0.3-1.3,3.1-2,3.6l18.2-8.6c-1.6,2.2,4.6,7.4-3.9,8.6c2.4,0.3,5.4,0.7,10.6-0.1c-1.7-0.3-4.1-3.2-1.9-3.4
						c6.2,2.4,4.3,1.3,12,3.4c-2.5-0.5,0.3-3.9,4.2-3.8c-0.6,0.5,0.3,3.4-1.1,3.8l9.8-3.4c-2.4,0.6-0.4,2.9,1.8,3.8
						c-1-0.7,8.4,0.1,11-0.3l-4.1-0.8c11,0.5,10.9-4.7,21.8-4.6c-1.3,0.7-3.3,4.3,2.3,4.7c2.5-1.7,11.3-8.3,21-9.6l1.9,1l7.4-1.1
						c-4.6,2.6-17.6,8.1-24.7,10.2c4.1,0.8,1.1,1.2,7.3,1.1c2.2,0.9-3.4,1.4-5.2,1.5L255,8.9c-0.6-2,11-2,10.5-3.7l-15.6,2.1
						c-0.6-2,9-5.7,19.2-5.4c2.6,0.8-1.9,3.6-1.7,4.3c1.3-0.7,9.7-1.3,10.6-0.8l-4.3,1.1c5.7,0.8,9.3-2.7,16.1-0.7
						c2.4,0.1,7,2.6,7.4,1.4c-3.8-2.3-4.6-9.4-2-11.1c0.8,0.2,12.4,2.2,15,3.3c3.9,1.8-5.8,4.3-2.5,5.9c0.1-0.6,2.3-1.2,3.2-1.4
						c2.5,0.5-1,1.7,4.3,1.5c0.9-2,10.9,0.2,2.5-1.7c5.3-0.6,5.6,0.4,11.8,0.3c-2-1.3,5.5-4.5,10.8-5.1c-0.3,0.5,0.9,1.2,1.4,1.5
						c10.8,0.2,16.6,1.1,26.6,1.1c0.9,0.5,5.8,1.1,3.7,2c1.4-0.4,2.8-1.1,5.9-1.1c6,1.8-6.9,0.3-2.3,2.4c0.4-1.2,8-1.6,12.4-2.4
						c-1.4-1.8-10.2-0.4-14.6,0.4c0-2.5,7.7-5.2,18.2-6.4c8.3-0.6,3.6,1.6,5.1,1.3C412.3-2,410-6.9,423-5.1c5.2,1.6,0.2,3.2,1.4,4.4
						c-6.8,0.6-10.4-1-15-1l5.7,0.8c-2.2,0.5-6.7,0.9-9.2,0.5c4.3,1.4,26.5,0.3,38.6,1.6c2.1-0.5,5.9-1.1,4.1-1.7l-3.8,0.2
						c-3.5-1.3,7.2-1.8,2.4-2.4c5.1-0.9,10.9-2.4,18.1-1.6l1.4,1.8c-0.2-0.5-4.7-1.1-6.8-0.5c3-0.8,11.1,2.5,14.4,0.1L469-4.2
						c5.2-0.9,11.5-2.9,17.9-2.3c-2.9-1.8-1.5,0.2-6-1.9c3.9,2.6-16.4-0.1-10,2.7c-4.7-2.5-8.1-1-14.2-3.1c0.2,0.6,2.2,1.2-3.2,0.9
						c-0.2,0.2-0.8,0.4-1.2,0.5c-0.2,0-0.2,0-0.4,0c0.1,0,0.2,0,0.3,0.1c-0.2,0.1-0.3,0.1,0.1,0c1.3,0.3,2.3,0.6,2.7,0.9
						c-2.7,1.4-11.2,1.3-14.1,2.1c-3.2-0.3,1.3-0.7-0.4-1.3l-4.3,1.1c-0.4-1.3-8.5-2.2-1-3l-6.8-0.1c-4-0.8-9.5-1.1-12.8-0.5
						c-3.2-0.3-8.1,1.5-5.3,0.4l-10.6,0.8l-0.1-0.3c-10.5-0.2-21.5,2.2-33.5-0.2c-3.5,0.3-7.2,0.8-13.1,0.4L352-8.4
						c-4.5,0.4-13.6-1.2-15.5,0c-4.9-3.1-22-0.7-29.9-1.2l-0.3,1.5c-5.5-0.1-10.7,0.3-17.5,1l0.4,1.3c-5.9,1.1-15.1-1-24.3-0.8
						c0.6-0.5,3-0.4,4.6-0.1c-11.1-3-23.4,2.2-33.4,0c-2.5,0.5-4.3,0.3-6.1,0c0.2,0,0.4,0,0.6-0.1c-0.3,0-0.6,0-1,0
						c-1.1-0.2-2.2-0.5-3.5-0.7c1,0.3,2.1,0.6,2.9,0.7c-1.9,0-4.9,0.2-7.7,0.5l-1.2-1.4c-0.2,0-0.4,0-0.7,0
						c-2.8-0.5-2.3,0.7-0.8,1.8c-1.4,0.2-2.8,0.5-3.8,0.9c-2.3-2.3-7.5,0.8-10.6-1.7c-1.9,1.2-14.4,0.9-16,3.5
						c-0.1-0.3-0.9-0.5,0.6-0.5c-3.2-0.3-6.4-0.6-9.3,0.1l-1.4-1.8l-7,2.5c-4.2-1.1-6-1.8-1.8-3.2c-10.2,2.2-8.3,0.8-16.9,3l0.4-1.2
						c-3.1,0-8,1.6-9.9,0.7c-6.9-2.3-34.2-0.3-52-2.4c3.4,3.5-8.3-1.6-9,1.1c-1-0.8-3.5-1.3-0.6-2c-9.1,0.8-13.6-1.3-19.9,1
						c-1-0.8,1.9-1.2,1-1.7C62-7.5,59.8-7,58.9-7.5C58-8,60.2-8.2,61.6-8.5c-9.3,0.1-10.2,2.7-10.9,5.1c-4.7-1.1-7-1-10.4,0.6
						c-1.6-0.8-4.4-1.6,1.4-1.9C38.5-4.9,22-5.9,21.7-4c-1-0.5-4.5-0.1-5.4,0.1C12.2-4,9.9-4,7.7-4.1c-2.6,0-5.3,0-10,0.1l2.9,0.3
						c-0.7,0.8-1.7,1.1-3.1,1.2c0.1,1.4-0.1,2.7-0.2,4.3C-2.9,3.4-3,5.3-2.9,7.7l-0.2-0.3c-0.1,1-0.2,2-0.3,2.8
						c-0.1,0.8-0.1,1.5-0.2,2.1c-0.1,1.1-0.1,1.9-0.2,2.6c0,1.4,0.1,2.1,0.1,2.8c0.2,1.4,0.3,2.8-0.6,9.3l1.4-0.7
						c3.1,1.2-1.8,11.5-0.6,19.1l0.8-2.7c1.1,4.1-4.2,11.5-4.6,15.7c-0.3,0.9-0.4-1.4-0.6-2.7C-9.7,66.4-6,57-5.5,65.1
						c-1,1.5-2.6-1.9-2.8,3.5c-0.2,0.5-0.1,1.5,0,2.7c0.1,0.6,0.2,1.3,0.3,2.1c0.1,0.4,0.1,0.8,0.2,1.2c0,0.2,0.1,0.4,0.1,0.6
						c0,0.3,0.1,0.7,0.1,1c0.3,2.8,0.6,5.7,0.8,8.6c0.2,2.9,0.4,5.7,0.4,8.5c2.8,0,5.3,0.1,7.4,0.5c-1.1-0.4-2.1-0.8-2-1.2
						c0.1-0.4,1.1-0.7,3.9-1c2.1-0.1,4.4,0.1,6.9,0.3c0.3,0,0.7,0.1,1,0.1c0.3,0,0.7,0.1,0.9,0.1c0.5,0.1,0.9,0.1,1.4,0.2
						c0.9,0.1,1.9,0.3,2.9,0.4c3.8,0.5,7.6,0.7,10.2-0.6c0.7,0.2,1,0.4,1,0.6c4.4-0.6,14.3-1.1,16.9-2.4c4.1,5,27.3-2.4,27.2,2.2
						l13.5-0.2l-0.4,0.5c8.6,0.3,11.7-0.8,14.7-1.9c2,0.3,0.5,0.7,0.4,1c12.6,0.9,13.9,0.7,24.5-1.6l1.1,1.5
						c2.9-0.9,18.3,2.3,30.6,0.6c-0.1,0.2-0.4,0.5-1.4,0.7c13.9-1.7,33.4,4.1,38.5-1.3l9.2-1.3c-11.9-0.4,1.8-2.3-3.1-3.2
						c4.7-0.3,12.1,1.6,6.3,1.9l-0.9-0.3c-2.1,2.8,14.8,1,14.5,2.9c23.4-0.1,46.2,1.4,68.1,1.5l-2.5-2.2l7.6,0.1
						c2,0.5,2.7,1.7-2.8,1.6c2.9,1.2,9.1-1,9.3-1.5c10.7,0.9-4.2,2.6-0.9,2.6l4.4-0.2l-1-0.3c3.6-0.9,3.9-1.8,10.5-1.7
						c4.1,0.4,2.1,1.4,3.8,1.4c0,0.2,0.5,0.2,2.5,0.1l9.6,0.2l-3.9-1.7c4.3-0.9,9.1,0.1,4.6-1.9c6.5,3,35.9,1.1,39.9,2
						c6-1.3,11.9-1.2,19.2-1.1c-1.8-0.4-2.9-2.3,3.4-2.1c-2.3,4,11.6,1.7,16.6,4.6c-4.6-1.9,17.9-0.5,10.8-3.2
						c5.3,0.3,0.3,1.5,4.3,2.5c12.5-1.6,27.6,1,43.1,0.5c0.2-0.5-2.4-1.3,1-2.1l8.2,2.6c3.1-0.3,2.8-3,8.4-1.2
						c-0.8-0.4-2-1.1,0.1-1.3c30.3,2.6,62-2.1,92.8,2.7c-4.2-1-1.4-1.1,1.8-1.2c-2.1-0.2,0-1.3-0.4-2l12.9,2c2.4-2,13.8-0.1,15.2-2
						l-4.1,0.3c5.4-2.2-7.6-5-6.8-7.9c-6.1,2.5-16-3.8-26-0.1c-2.2-0.6,1.9-0.9,0.7-1.6c-2.5,1.2-5.6,1.5-11.2,0.9l0.6-0.3
						c-15.9,0.3-22.7-0.9-40.6-1.7l1.3,1.4c-3.8-0.2-4.6-0.6-6.4-1c-4.4,2.2,10.8,0.1,6.8,2.5c-5.1-2.9-27.1,0-30.5-3.3
						c-5.9,0,1.7,1.6-4.2,1.6l-1.6-0.9l-1.5,1.1c-3.9-0.2-5.8-1.3-6-2.1c0.9,0.1,2.7-0.2,3.7-0.3c-5-1-14.2,0.4-15.9,0l5.7,0.5
						c-16.1,0.8-35.8-0.3-51.4,1.5l1.2,0.7c-11.9,1.2-9.5-0.7-22.6-0.2l0.5-0.2c-2.6,0.7-6.1,1-9.7,0.9c3.3-0.8-6.2-1.5-1.9-2.4
						c-12.9,1.3-6.4,1-14.9,3.5l-2-1.1c-2.9,1-3.1,1.5-9.7,1.8c5.3-1-4.2-1.7,1.8-3c-13.7-2.4-20.3,2.5-26.6-1.1
						c-6.3,3.1,11.8,1.7,8.3,2.4c2.9,1-5.2,2.3-9.5,2c-4.4-0.1-7.4-3.9-18.4-3.9c1.1,0,1.2-0.2,2.3-0.2c-4.1-0.8-8.1,1.1-13.1-0.2
						c-2.8,1.9-6.6-0.1-7.4,2.3l10.1-0.5c-5.7,0.6-11.1,3.4-20.5,2.1c0.7-0.5,3.5-1.1,5.5-1.5c-2.8-0.7-5.3,0.5-8.2-0.3
						c0.8-2.4,12.3-0.5,18.4-2.3c-3-1-11.6,1.7-8.5-0.9c-4.4,3.3-10.8-0.4-18.3,2.1l0.5-1.4c-1.2,0.2-3.6,0.9-5.8,0.9l3.9-1.8
						c-6,1.6-11.6-1.4-17.4-0.5c12.1,0,2.7,1.7,7.8,2.8c-14.9,1.9-8.6-3.7-25.3-3c2.3-0.2,8.5,0.9,5,1.5c-3.2-0.3-7.4-0.8-9.3-1.6
						c-11.1,0.3,1.7,1.5-3,2.3c-3.8-1.7-5.4,0.7-10.3,1.3l0-1.4c-12.6-0.9-3.3,3-14.7,1.9l4.8-2l-5.9,0.5l1.2-1.6
						c-6.4,1.2-8.5,0.9-14.8,0.4c1.5,1-0.8,2.6-6.4,2.7c-3.8-0.9,2.1-1.4-5.8-1.2c1.8-0.9,3.7-2,7.2-0.7c0.4-0.5,1.8-0.9,2.1-1.4
						c-4.1-1-10.3-0.2-13.2-0.2c1.1,0.1,2.4,0.1,3.1,0.3l-11.5,2c-1.8-0.5-0.4-1,1-1.4c-2.3,0.2-3.9,0.8-7.4,0.9
						c0.9-1.2,0.7-2.4,5.5-2.9L155.8,79c-0.7-0.5-5.6-1.4-4.2-1.8c-6.1-0.7-14.9,2.3-22.9,1.4c-0.4,0.2-1.3,0.4-3,0.6
						c-7.6-0.3-14.3-1.7-23.2-0.1L97.4,77c-7,0.5,6.9,2.7-4.8,3.5c-8.3,0.7-3.1-1.8-6-2.4c-4.1,1.1-11.3,3.2-18.9,1.5
						C70.2,79.1,72.2,79.5,74.6,79.3z M6.6,74.8c0.1,0.5,0.2,0.6,0.3,0.9c0.1,0.2,0.2,0.4,0.3,0.6c0.2,0.4,0.2,0.8-0.2,1.2
						c-0.8,0-1-0.4-1-0.8c0-0.2,0.1-0.5,0.2-0.8c0.1-0.1,0.1-0.3,0.2-0.4c0-0.1,0.1-0.1,0.1-0.2C6.5,75.2,6.5,75,6.6,74.8z
						 M56.8,3.1c-1.2,0.5-3.2,0.2-5.4-0.3C53,2.7,54.8,2.7,56.8,3.1z M423.3-7c-0.1,0-0.1,0-0.2,0.1C419.4-7.5,420.7-7.3,423.3-7z
						 M431.1-6.4c0.8-0.2,0.7-0.4,0.4-0.6c-0.5,0.4-2.3,0.4-4.3,0.3C427.8-6.3,428.8-6,431.1-6.4z M316.4,92.6l-1.5-0.4
						C318.3,91.8,317.4,92.2,316.4,92.6z"/>
					<path id="XMLID_253_" class="st1" d="M41.9,5.1c-0.5-0.2-0.6-0.5-0.7-0.8C40.5,4.5,40.5,4.8,41.9,5.1z"/>
					<path id="XMLID_252_" class="st1" d="M128.4,78.5l0.3,0c0.1-0.1,0.2-0.2,0.3-0.3L128.4,78.5z"/>
					<path id="XMLID_251_" class="st1" d="M310.8,5.9c-1.6-0.2-2.5-0.5-3.1-0.7C307.6,5.5,308.3,5.8,310.8,5.9z"/>
					<path id="XMLID_250_" class="st1" d="M472.3-8.8l-5,0.4c2.4-0.1,3.3,0.2,4.5,0.5C471.7-8.3,470.7-8.8,472.3-8.8z"/>
					<path id="XMLID_249_" class="st1" d="M515.5,0.1c0.7-0.2,1.5,0,2.3-0.2l-0.2-0.7C514.4-0.7,512.3-0.2,515.5,0.1z"/>
					<path id="XMLID_248_" class="st1" d="M476.9-4c0.4,1.2,3.5,0.8,7,0.6c-0.2,0-0.4,0-0.6,0C484.3-5.1,480.6-4.6,476.9-4z"/>
					<path id="XMLID_247_" class="st1" d="M484.7-3.5c1.1-0.1,2.2-0.1,3.2,0C488.3-4.2,486.6-3.7,484.7-3.5z"/>
					<path id="XMLID_246_" class="st1" d="M441-7.2c1.7,0.3,1-1.6,2-1.1C444.8-9.8,431.9-6.4,441-7.2z"/>
					<polygon id="XMLID_245_" class="st1" points="479.7,0 478.5,-1.5 476.5,-0.3 					"/>
					<path id="XMLID_244_" class="st1" d="M452.2-1.1l5.6,0.4c-0.1-0.3,0.6-0.4,1.5-0.5C455.8-1.3,452-1.6,452.2-1.1z"/>
					<path id="XMLID_243_" class="st1" d="M459.2-1.2c1.8,0,3.5,0,4.5-0.2C462.8-1.4,460.7-1.4,459.2-1.2z"/>
					<polygon id="XMLID_242_" class="st1" points="472.1,0.4 470.4,0.1 466.5,0 					"/>
					<path id="XMLID_241_" class="st1" d="M392.3-1.4L386.2-1c-0.6,0.5,1,0.8,3.3,0.6C391-0.7,393.2-0.9,392.3-1.4z"/>
					<path id="XMLID_240_" class="st1" d="M410.7,2.7c-1.6-0.3-1.8-0.6-2.7-1.1l-0.2,1.9L410.7,2.7z"/>
					<path id="XMLID_239_" class="st1" d="M393,3.2c-0.6,0.5-8.8,1.5-1.1,1.4C392.5,4,398.5,3.6,393,3.2z"/>
					<polygon id="XMLID_238_" class="st1" points="301.4,0.8 302.9,0.8 302.7,-2.3 					"/>
					<path id="XMLID_237_" class="st1" d="M220.6,8.1c7.2,0.7,1.7-1.9,8.2-1c1.7-0.7-5.3-0.7-3.6-1.4C220.9,6.5,218.6,6.1,220.6,8.1
						z"/>
					<path id="XMLID_236_" class="st1" d="M225.3,5.8c0.7-0.1,1.4-0.3,2.2-0.5C226.2,5.5,225.6,5.6,225.3,5.8z"/>
					<polygon id="XMLID_235_" class="st1" points="599.2,94.1 603.9,94.8 600.9,93.8 					"/>
					<path id="XMLID_234_" class="st1" d="M608.1,91.9l1.1,1.9l2.8-1.8C611,92.1,608.9,92.3,608.1,91.9z"/>
					<path id="XMLID_233_" class="st1" d="M10.5,61.9L10,61.6c-0.5,0.7-0.5,1.8-0.6,4L10.5,61.9z"/>
					<polygon id="XMLID_232_" class="st1" points="38,77.8 36.9,77.7 38.9,79.5 					"/>
					<path id="XMLID_231_" class="st1" d="M90.7,75.5c-2.2-0.1-4.7,0.3-6.8,0.2C88.5,75.4,91.3,77.7,90.7,75.5z"/>
				</g>
			</g>
		</g>
	</g>
</g>
<g id="XMLID_15_">
	<g id="XMLID_129_">
		<g id="XMLID_133_">
			<g id="XMLID_134_">
				<g id="XMLID_135_">
					<path id="XMLID_222_" class="st1" d="M-7.3,1.6C-7.2-0.4-8.5,0.3-8.7,0C-8.4,3.5-7,1.5-7.3,1.6z"/>
					<polygon id="XMLID_221_" class="st1" points="-4.5,35.7 -5,35.1 -3.7,40.1 					"/>
					<path id="XMLID_220_" class="st1" d="M-4.5,67.5c2.1-3-0.3-11.5,0.4-17.2l0.5-0.9l-1.7-2.6C-5,53.7-3.9,62.7-4.5,67.5z"/>
					<path id="XMLID_219_" class="st1" d="M-9.1,91.9c0.4-1.3,0.6,0.2,0.6,0.4c0-0.1,0-0.2-0.1-1.2c-0.1-1.1-0.2-3-0.3-6.3
						C-8.9,85.4-9,85.6-9.1,86C-9,87.3-9,88.9-9.1,91.9z"/>
					<path id="XMLID_218_" class="st1" d="M-9.1,86c0-3-0.2-1.9-0.3-0.6C-9.4,86.7-9.4,88.2-9.1,86z"/>
					<path id="XMLID_217_" class="st1" d="M8.8,95.4l-8.1,0.7c1.4,0.5,8.7,0.6,5.9,1c2.2-0.1,3.7-0.2,4.6-0.3c0.1,0,0.2,0,0.3,0
						c0.1,0,0.1,0,0.2,0c0.1,0,0.2-0.1,0.2-0.1c0.1-0.1,0.2-0.1,0.2-0.2c0-0.1-0.2-0.3-0.6-0.5C10.8,95.8,9.9,95.6,8.8,95.4z"/>
					<path id="XMLID_216_" class="st1" d="M14.2,93.8l-2.3,0.3C12.3,94.3,12.9,94.4,14.2,93.8z"/>
					<path id="XMLID_215_" class="st1" d="M3.9,94.8c0,0,2.1-0.2,4.2-0.3c2-0.2,4.1-0.3,3.8-0.3c-0.3-0.2-0.6-0.4-1.1-0.5
						c-0.5-0.1-1.1,0.1-2.4,0.7C9.1,93.7,7.5,94.3,3.9,94.8z"/>
					<path id="XMLID_214_" class="st1" d="M-0.6,94.5c-1.9-0.2-4.1-0.4-4.8-0.6C-6,93.6-5.2,93.3-1.5,93c-1.9,0-3.6,0.1-4.8,0.2
						c-0.4-5.4-1.1-4.8-1.3,1.3C-6,94.5-3.6,94.5-0.6,94.5z"/>
					<path id="XMLID_213_" class="st1" d="M-2.3,69.2l0.6-3.3L-2.3,63C-2,64.4-2.9,69.4-2.3,69.2z"/>
					<path id="XMLID_212_" class="st1" d="M37.5,96.5c0.3-0.5-1.5-1.2-1.8-1.8l-3.3,0.5C34.1,95.5,37.3,95.8,37.5,96.5z"/>
					<path id="XMLID_211_" class="st1" d="M35.7,94.7l4.9-0.8C36.2,93.8,35.4,94.2,35.7,94.7z"/>
					<path id="XMLID_210_" class="st1" d="M15,91.4c0,0-0.5,0.1-1.3,0.3c-0.4,0.1-0.8,0.2-1.3,0.3c-0.2,0-0.5,0.1-0.7,0.1
						c-0.2,0.1-0.7,0.1-1,0.2c-3.1,0.4-6.2,0.8-6.2,0.8s1-0.1,2.4-0.3c1.3-0.2,3.1-0.4,4.9-0.6c2.4-0.4,4.8-0.8,4.8-0.8L15,91.4z"/>
					<polygon id="XMLID_209_" class="st1" points="56.2,96.5 53.4,97.6 58.3,96 					"/>
					<path id="XMLID_208_" class="st1" d="M68.5,96.4c-2,0.9,2.8,1.5,0.6,2c3.4-0.2,6.2-0.9,8.8-1.6C75.2,97.2,72.3,97.1,68.5,96.4z
						"/>
					<path id="XMLID_207_" class="st1" d="M82.3,95.8c-1.4,0.2-2.8,0.6-4.3,1C79.4,96.6,80.9,96.3,82.3,95.8z"/>
					<path id="XMLID_206_" class="st1" d="M48.9,94.1c0.4,0.3,1.1,1,3.8,1.3l-1.9-1.3C50.2,94.1,49.6,94.1,48.9,94.1z"/>
					<path id="XMLID_205_" class="st1" d="M50.7,94.1L50.7,94.1c2.2,0.1,3.6,0.1,4.2,0.1C54.4,94.2,53.2,94.2,50.7,94.1z"/>
					<path id="XMLID_204_" class="st1" d="M48.4,94.1c0.2,0,0.3,0,0.5,0C48.7,94,48.6,94,48.4,94.1z"/>
					<path id="XMLID_203_" class="st1" d="M27.8,92.6c2.9-0.7,8.9-1.5,3.1-2.6C28.8,90.9,32.1,91.5,27.8,92.6z"/>
					<path id="XMLID_202_" class="st1" d="M46,92.5l-5.2-0.3c0.1,0.3,1,0.8-0.4,1.2L46,92.5z"/>
					<polygon id="XMLID_201_" class="st1" points="48.6,92.1 46,92.5 47.9,92.6 					"/>
					<path id="XMLID_200_" class="st1" d="M73.4,94.6c2.2-0.6,4.7-0.6,7.5-0.7c-3-0.3-6-0.4-8.9-0.4C71.5,93.9,70.3,94.7,73.4,94.6z
						"/>
					<path id="XMLID_199_" class="st1" d="M62.4,94.3c0.2,0,0.4-0.1,0.5-0.1C62.6,94.1,62.4,94,62.4,94.3z"/>
					<path id="XMLID_198_" class="st1" d="M108.1,93.9c-0.2-0.1-0.3-0.2-0.4-0.2c0,0.1-0.1,0.1-0.1,0.2L108.1,93.9z"/>
					<path id="XMLID_197_" class="st1" d="M71.4,93.3c-2.2-0.2-3.6,0.1-4.8,0.5c1.7-0.1,3.4-0.2,5.3-0.2
						C72.1,93.3,72.2,93.2,71.4,93.3z"/>
					<path id="XMLID_196_" class="st1" d="M89.9,95.2c-1.2-0.3-2.5-0.5-3.9-0.7C87.2,94.9,89.5,95.5,89.9,95.2z"/>
					<path id="XMLID_195_" class="st1" d="M63.7,94.5c-0.1,0-0.2,0-0.3,0.1C64.1,94.9,64,94.7,63.7,94.5z"/>
					<path id="XMLID_194_" class="st1" d="M63.7,94.5c1.1-0.2,2-0.5,3-0.8c-1.4,0.1-2.6,0.2-3.7,0.4C63.2,94.3,63.5,94.4,63.7,94.5z
						"/>
					<path id="XMLID_193_" class="st1" d="M116.4,85.7c-0.4,1.2-6.3,2.3-11.3,1c-5,0.9-1.7,4.8,2.6,7c0.2-0.5,0.2-1,5.3-1.7
						c-1.8-0.6-11.4-1.5-7-2.6c6.8-0.6,5.6,0.4,8.9,1c-2.8-1.5,8.6-2.2,7.2-4.3l-6,0.8C115.9,86.5,118.1,86,116.4,85.7z"/>
					<path id="XMLID_192_" class="st1" d="M97.9,93.6l-2.1,0.1c2.4,0.2,4.1,0.7,7.3,1.6c3.5-0.6,4.2-1,4.5-1.4l-10.4-0.2L97.9,93.6z
						"/>
					<path id="XMLID_191_" class="st1" d="M86.4,93.7c1.6-1.3,6.7-1.8,3.6-3.2c-6.2,0.1-4.3,1.1-8,1.6c10-0.3-2.9,0.7,4.3,1.5
						c-2,0.2-3.7,0.3-5.4,0.3c1.8,0.2,3.5,0.4,5.2,0.6c-0.1,0-0.2-0.1-0.2-0.1l0,0c0,0,0,0,0,0c-0.4-0.2-0.6-0.3-0.1-0.2
						c0,0,0.2,0,0.2,0C86,94,86.2,93.9,86.4,93.7c2.9,0.3,0.5,0.3-0.5,0.5c0,0.1-0.1,0.1-0.1,0.2c0,0,0,0,0,0l10-0.7
						C93.7,93.5,91.1,93.6,86.4,93.7z"/>
					<path id="XMLID_190_" class="st1" d="M36.2,87.2c0.3,0.1,0.3,0.2,0.3,0.3C37.1,87.4,37.4,87.3,36.2,87.2z"/>
					<path id="XMLID_189_" class="st1" d="M40.3,88c-0.7,0.2-1.3,0.7-3.7,0.6c-2.1-0.4,0-0.6-0.1-1c-1.4,0.3-5,0.9-0.5,1.6l0.7-0.2
						c4,0.4,9.2,2.1,8.5,2.2C44,90,43,89.2,40.3,88z"/>
					<path id="XMLID_188_" class="st1" d="M63.6,90.5l8.3-0.6l-4.2-1.1l0.2,0.7C63.2,89.2,64.2,90,63.6,90.5z"/>
					<polygon id="XMLID_187_" class="st1" points="109.1,94.6 108,95.9 112.8,94 					"/>
					<polygon id="XMLID_186_" class="st1" points="119.9,94.4 119.5,95.6 122.4,94.9 					"/>
					<path id="XMLID_185_" class="st1" d="M579.9,7.1l-2.4,0.3C578.6,7.4,579.3,7.2,579.9,7.1z"/>
					<path id="XMLID_184_" class="st1" d="M597.6,7.2l0.4-0.6C597.2,6.9,596.9,7.2,597.6,7.2z"/>
					<path id="XMLID_183_" class="st1" d="M385.8,94.3c3.6,1.1,7.5,2.8,7.1,1.5l-1.1-1.3C389.4,94.7,387.5,94.5,385.8,94.3z"/>
					<path id="XMLID_182_" class="st1" d="M568,86.5c-0.3-0.1-0.7-0.3-1-0.4c-0.9,0.4-1.7,0.9-2.4,1.2
						C565.5,87.1,566.7,86.8,568,86.5z"/>
					<path id="XMLID_181_" class="st1" d="M570.5,81.1l4.7,0.8C574.1,81.7,572.6,81.4,570.5,81.1z"/>
					<path id="XMLID_180_" class="st1" d="M483.1,8.5l-2.9,1.3C484.7,9.8,482.7,9.2,483.1,8.5z"/>
					<path id="XMLID_179_" class="st1" d="M230.8,93.9c3.1,0.5,5.5,0.7,7.7,0.8C234.8,94,231.8,92.8,230.8,93.9z"/>
					<path id="XMLID_178_" class="st1" d="M586.9-6.7c-1.5,0.2-2.1,0.5-2.1,0.8C586.3-6.1,587.2-6.4,586.9-6.7z"/>
					<path id="XMLID_177_" class="st1" d="M247.4,94.7c-0.5-0.1-1.1-0.2-1.6-0.3c-2.2,0.2-4.5,0.4-7.3,0.3
						C241.2,95.3,244.4,95.6,247.4,94.7z"/>
					<path id="XMLID_176_" class="st1" d="M132,7.4c-0.3-0.1-0.6-0.1-0.8-0.2C131.1,7.4,131.5,7.5,132,7.4z"/>
					<path id="XMLID_175_" class="st1" d="M29.7-5.7c1-0.1,2.6-0.1,4.2-0.1C33.2-5.9,31.9-5.9,29.7-5.7z"/>
					<path id="XMLID_174_" class="st1" d="M163.5,95C161.2,95.1,163.1,95.1,163.5,95L163.5,95z"/>
					<path id="XMLID_173_" class="st1" d="M152.3,89.8c0.5-0.1,0.9-0.3,0.9-0.6C153.1,89.5,152.7,89.7,152.3,89.8z"/>
					<path id="XMLID_172_" class="st1" d="M270.3,86.6c0.1,0,0.1,0,0.2,0C269.8,86.4,269.9,86.4,270.3,86.6z"/>
					<path id="XMLID_171_" class="st1" d="M160,94.4c0.9,0.2,1.9,0.3,2.9,0.4C162.5,94.7,161.6,94.5,160,94.4z"/>
					<path id="XMLID_170_" class="st1" d="M160.5,95c-0.8,0-1.4-0.1-2-0.1C158.2,95.1,158.5,95.2,160.5,95z"/>
					<path id="XMLID_169_" class="st1" d="M166.7,94.9c-1.3,0-2.5,0-3.7-0.1c0.5,0.1,0.6,0.2,0.5,0.2
						C164.2,95,165.1,94.9,166.7,94.9z"/>
					<path id="XMLID_168_" class="st1" d="M320.1,3.9c-0.2,0-0.3-0.1-0.5-0.1C317.3,4.4,318.3,4.3,320.1,3.9z"/>
					<path id="XMLID_167_" class="st1" d="M445.6,80.8c-0.1,0-0.2,0-0.3,0.1c0.1,0,0.2,0,0.3,0L445.6,80.8z"/>
					<path id="XMLID_166_" class="st1" d="M453.9,79.8c-3.5,1.6-5.5,1.4-8.2,1.1l2.7,3.8L453.9,79.8z"/>
					<path id="XMLID_159_" class="st1" d="M537.4,7.5l5.8,1.2c-7,1.9-12,1.3-6.6,2.9c0.8-4.1,22.5-0.4,23.3-4.5l3.8,0.9
						c-1.1,0-1.3,0.2-2.4,0.2c7.4,2,5.5-2.9,15.1-2.4c3.3,0.3,5.7,0.9,3.4,1.4l7.4-1c2.2,0.1,1.6,0.8-0.5,0.7l11.3-0.3L598,6.6
						c0.4-0.2,0.9-0.3,1.5-0.5c0.3-0.1,0.7-0.2,0.9-0.3c0.2-0.1,0.3-0.2,0.5-0.3c0.7-0.4,1.6-0.7,2.3-0.9c0.7,0.3,0.4,0.4,0.1,0.5
						c-0.4,0.1-0.9,0.2-0.8,0.4c0,0,0.9-0.2,1.9-0.5c1.1-0.2,2.2-0.5,2.2-0.5c0.3,0.5-0.7,1-1.7,1.4c-1.1,0.4-2.2,0.6-3.1,0.5
						c0.4,1.3,0.4,1.7,0.8,1.6c0.4,0,1-0.4,1.9-0.7c0.2,0.2,0.3,0.6,0.2,1.2c0,0.6-0.2,1.5-0.7,2.3c0,0-0.1-0.4-0.3-0.9
						c-0.1-0.4-0.3-0.7-0.3-0.7c-1.2,1.3-1.5,1.7-1.8,2l-0.1,0.1l0,0.1l0,0.5c-0.1,0.7-0.1,1.4-0.2,2.1c-0.2,1.4-0.4,3-0.7,4.7
						c0.4-0.8,1.3-4.1,2.2-6.4c0.1-0.3,0.2-0.6,0.4-0.8c0.1-0.1,0.2-0.1,0.4-0.2c0.2-0.1,0.5-0.2,0.7-0.3c0.2-0.1,0.4-0.1,0.6,0.1
						c0.1,0.1,0.2,0.1,0.2,0.3c0,0.1,0.1,0.1,0.1,0.2c0,0.2,0.1,0.4,0.1,0.6c-0.3,1.9-0.5,4.4,0.4,8.1c-1.4,0-1.1,3.6-1,8.1
						l-1.9-0.3c0.6,4.9,1.5,4.5,2.4,7.3c-0.2,5.4-1.7,6.5-2.9,7.8c-0.3,8.7,2.4-6,2.7,4.3c-0.7,7.2,0,12.3,1.2,20.9
						c-0.7,5-1.2-0.9-1.7,0.9l1.5,4.5c0,1.1-0.5,0.7-0.7,0.6c0,0.2,0.1,0.4,0.1,0.6c0,0.1,0,0.2,0.1,0.3c0,0.1,0,0.1,0.1,0.1
						c0.1,0.1,0.2,0.2,0.3,0.3c0.2,0.2,0.5,0.2,0.7,0.4c0.5,0.2,0.9,0.6,1.2,2.6c0.9,0.8,0.4,2.5-0.2,3.8c-1.7-0.4-3.2-0.9-4.5-1.1
						c-0.6-0.1-1.2-0.1-1.8,0c-0.3,0-0.5,0.1-0.9,0.2c-0.5,0.1-1.1,0.2-1.6,0.4c-1.8-0.5,0.9-1.2,0.3-1.9
						c-10.1,1.6-8.6,1.1-16.9,3.3l-7-1.3c5.2,1.4-1.4,3.1-7.2,4.5c1.8,0.7,3.4,1.3,4.5,1.6l-9.2,1c-1.1-0.3-0.2-1,1.3-1.8
						c-0.6,0.2-1.2,0.3-1.7,0.5c-3.3-0.7-1.6-1.8,0.8-2.9c1.1,0.4,2.2,0.8,3.3,1.2c2.3-1.2,4.4-2.5,3.9-3.6c-0.6,0.2-1.8,0.4-3,0.5
						c0.6-0.3,1-0.6,0.7-0.8c-0.3-0.2-1.3,0.2-2.8,0.7l-2.1-2.1l-0.5,0.8l-12.1-1.3c-8.6,2.2-16.2,5.3-29.9,6.2
						c3.4-1.6,0.7-2.6,0.9-4.4c3.7,2,10.6-0.8,17.7-0.4c-3.7-0.2-2.9-1.1-1.9-1.4l-12.7,1.8c0.3-1.5-2.7-1.1-6-1.8
						c2.5,3-9.4,2-14.6,2.9c-0.3-1,0.9-2,7.2-1.8c-6.9-2.3-9,3.5-15.8,1.6c1.5,0,2.4,0.1,3-0.4c-3.6,0.9-12.4,0.2-10.3-0.7l1.5,0
						c-10.2-0.4-31,0-32.6,2.5c-0.1-0.3,1.3-3.1,2-3.6l-18.2,8.6c1.6-2.2-4.6-7.4,3.9-8.6c-2.4-0.3-5.4-0.7-10.6,0.1
						c1.7,0.3,4.1,3.2,1.9,3.4c-6.2-2.4-4.3-1.3-12-3.4c2.5,0.5-0.3,3.9-4.2,3.8c0.6-0.5-0.3-3.4,1.1-3.8l-9.8,3.4
						c2.4-0.6,0.4-2.9-1.8-3.8c1,0.7-8.4-0.1-11,0.3l4.1,0.8c-11-0.5-10.9,4.7-21.8,4.6c1.3-0.7,3.3-4.3-2.3-4.7
						c-2.5,1.7-11.3,8.3-21,9.6l-1.9-1l-7.4,1.1c4.6-2.6,17.6-8.1,24.7-10.2c-4.1-0.8-1.1-1.2-7.3-1.1c-2.2-0.9,3.4-1.4,5.2-1.5
						L357,77.9c0.6,2-11,2-10.5,3.7l15.6-2.1c0.6,2-9,5.7-19.2,5.4c-2.6-0.8,1.9-3.6,1.7-4.3c-1.3,0.7-9.7,1.3-10.6,0.8l4.3-1.1
						c-5.7-0.8-9.3,2.7-16.1,0.7c-2.4-0.1-7-2.6-7.4-1.4c3.8,2.3,4.6,9.4,2,11.1c-0.8-0.2-12.4-2.2-15-3.3c-3.9-1.8,5.8-4.3,2.5-5.9
						c-0.1,0.6-2.3,1.2-3.2,1.4c-2.5-0.5,1-1.7-4.3-1.5c-0.9,2-10.9-0.2-2.5,1.7c-5.3,0.6-5.6-0.4-11.8-0.3c2,1.3-5.5,4.5-10.8,5.1
						c0.3-0.5-0.9-1.2-1.4-1.5c-10.8-0.2-16.6-1.1-26.6-1.1c-0.9-0.5-5.8-1.1-3.7-2c-1.4,0.4-2.8,1.1-5.9,1.1
						c-6-1.8,6.9-0.3,2.3-2.4c-0.4,1.2-8,1.6-12.4,2.4c1.4,1.8,10.2,0.4,14.6-0.4c0,2.5-7.7,5.2-18.2,6.4c-8.3,0.6-3.6-1.6-5.1-1.3
						c-15.7-0.4-13.3,4.4-26.4,2.6c-5.2-1.6-0.2-3.2-1.4-4.4c6.8-0.6,10.4,1,15,1l-5.7-0.8c2.2-0.5,6.7-0.9,9.2-0.5
						c-4.3-1.4-26.5-0.3-38.6-1.6c-2.1,0.5-5.9,1.1-4.1,1.7l3.8-0.2c3.5,1.3-7.2,1.8-2.4,2.4c-5.1,0.9-10.9,2.4-18.1,1.6l-1.4-1.8
						c0.2,0.5,4.7,1.1,6.8,0.5c-3,0.8-11.1-2.5-14.4-0.1L143,91c-5.2,0.9-11.5,2.9-17.9,2.3c2.9,1.8,1.5-0.2,6,1.9
						c-3.9-2.6,16.4,0.1,10-2.7c4.7,2.5,8.1,1,14.2,3.1c-0.2-0.6-2.2-1.2,3.2-0.9c0.2-0.2,0.8-0.4,1.2-0.5c0.2,0,0.2,0,0.4,0
						c-0.1,0-0.2,0-0.3-0.1c0.2-0.1,0.3-0.1-0.1,0c-1.3-0.3-2.3-0.6-2.7-0.9c2.7-1.4,11.2-1.3,14.1-2.1c3.2,0.3-1.3,0.7,0.4,1.3
						l4.3-1.1c0.4,1.3,8.5,2.2,1,3l6.8,0.1c4,0.8,9.5,1.1,12.8,0.5c3.2,0.3,8.1-1.5,5.3-0.4l10.6-0.8l0.1,0.3
						c10.5,0.2,21.5-2.2,33.5,0.2c3.5-0.3,7.2-0.8,13.1-0.4l1.1,1.2c4.5-0.4,13.6,1.2,15.5,0c4.9,3.1,22,0.7,29.9,1.2l0.3-1.5
						c5.5,0.1,10.7-0.3,17.5-1l-0.4-1.3c5.9-1.1,15.1,1,24.3,0.8c-0.6,0.5-3,0.4-4.6,0.1c11.1,3,23.4-2.2,33.4,0
						c2.5-0.5,4.3-0.3,6.1,0c-0.2,0-0.4,0-0.6,0.1c0.3,0,0.6,0,1,0c1.1,0.2,2.2,0.5,3.5,0.7c-1-0.3-2.1-0.6-2.9-0.7
						c1.9,0,4.9-0.2,7.7-0.5l1.2,1.4c0.2,0,0.4,0,0.7,0c2.8,0.5,2.3-0.7,0.8-1.8c1.4-0.2,2.8-0.5,3.8-0.9c2.3,2.3,7.5-0.8,10.6,1.7
						c1.9-1.2,14.4-0.9,16-3.5c0.1,0.3,0.9,0.5-0.6,0.5c3.2,0.3,6.4,0.6,9.3-0.1l1.4,1.8l7-2.5c4.2,1.1,6,1.8,1.8,3.2
						c10.2-2.2,8.3-0.8,16.9-3l-0.4,1.2c3.1,0,8-1.6,9.9-0.7c6.9,2.3,34.2,0.3,52,2.4c-3.4-3.5,8.3,1.6,9-1.1c1,0.8,3.5,1.3,0.6,2
						c9.1-0.8,13.6,1.3,19.9-1c1,0.8-1.9,1.2-1,1.7c0.7-0.2,2.9-0.7,3.8-0.2c0.9,0.5-1.3,0.7-2.8,1.1c9.3-0.1,10.2-2.7,10.9-5.1
						c4.7,1.1,7,1,10.4-0.6c1.6,0.8,4.4,1.6-1.4,1.9c3.2,0.1,19.8,1.1,20.1-0.8c1,0.5,4.5,0.1,5.4-0.1c4.1,0.1,6.3,0.1,8.6,0.2
						c2.6,0,5.3,0,10-0.1l-2.9-0.3c0.7-0.8,1.7-1.1,3.1-1.2c-0.1-1.4,0.1-2.7,0.2-4.3c0.1-1.6,0.3-3.6,0.2-5.9l0.2,0.3
						c0.1-1,0.2-2,0.3-2.8c0.1-0.8,0.1-1.5,0.2-2.1c0.1-1.1,0.1-1.9,0.2-2.6c0-1.4-0.1-2.1-0.1-2.8c-0.2-1.4-0.3-2.8,0.6-9.3
						l-1.4,0.7c-3.1-1.2,1.8-11.5,0.6-19.1l-0.8,2.7c-1.1-4.1,4.2-11.5,4.6-15.7c0.3-0.9,0.4,1.4,0.6,2.7c1.8-10.8-1.9-1.4-2.3-9.5
						c1-1.5,2.6,1.9,2.8-3.5c0.2-0.5,0.1-1.5,0-2.7c-0.1-0.6-0.2-1.3-0.3-2.1c-0.1-0.4-0.1-0.8-0.2-1.2c0-0.2-0.1-0.4-0.1-0.6
						c0-0.3-0.1-0.7-0.1-1c-0.3-2.8-0.6-5.7-0.8-8.6c-0.2-2.9-0.4-5.7-0.4-8.5c-2.8,0-5.3-0.1-7.4-0.5c1.1,0.4,2.1,0.8,2,1.2
						c-0.1,0.4-1.1,0.7-3.9,1c-2.1,0.1-4.4-0.1-6.9-0.3c-0.3,0-0.7-0.1-1-0.1c-0.3,0-0.7-0.1-0.9-0.1c-0.5-0.1-0.9-0.1-1.4-0.2
						c-0.9-0.1-1.9-0.3-2.9-0.4c-3.8-0.5-7.6-0.7-10.2,0.6c-0.7-0.2-1-0.4-1-0.6c-4.4,0.6-14.3,1.1-16.9,2.4
						c-4.1-5-27.3,2.4-27.2-2.2l-13.5,0.2l0.4-0.5c-8.6-0.3-11.7,0.8-14.7,1.9c-2-0.3-0.5-0.7-0.4-1c-12.6-0.9-13.9-0.7-24.5,1.6
						l-1.1-1.5c-2.9,0.9-18.3-2.3-30.6-0.6c0.1-0.2,0.4-0.5,1.4-0.7c-13.9,1.7-33.4-4.1-38.5,1.3l-9.2,1.3c11.9,0.4-1.8,2.3,3.1,3.2
						c-4.7,0.3-12.1-1.6-6.3-1.9l0.9,0.3c2.1-2.8-14.8-1-14.5-2.9c-23.4,0.1-46.2-1.4-68.1-1.5l2.5,2.2l-7.6-0.1
						c-2-0.5-2.7-1.7,2.8-1.6c-2.9-1.2-9.1,1-9.3,1.5c-10.7-0.9,4.2-2.6,0.9-2.6l-4.4,0.2l1,0.3c-3.6,0.9-3.9,1.8-10.5,1.7
						c-4.1-0.4-2.1-1.4-3.8-1.4c0-0.2-0.5-0.2-2.5-0.1l-9.6-0.2l3.9,1.7c-4.3,0.9-9.1-0.1-4.6,1.9c-6.5-3-35.9-1.1-39.9-2
						c-6,1.3-11.9,1.2-19.2,1.1c1.8,0.4,2.9,2.3-3.4,2.1c2.3-4-11.6-1.7-16.6-4.6c4.6,1.9-17.9,0.5-10.8,3.2
						c-5.3-0.3-0.3-1.5-4.3-2.5c-12.5,1.6-27.6-1-43.1-0.5c-0.2,0.5,2.4,1.3-1,2.1L137-6.7c-3.1,0.3-2.8,3-8.4,1.2
						c0.8,0.4,2,1.1-0.1,1.3C98.2-6.8,66.5-2.1,35.7-7c4.2,1,1.4,1.1-1.8,1.2c2.1,0.2,0,1.3,0.4,2l-12.9-2c-2.4,2-13.8,0.1-15.2,2
						l4.1-0.3c-5.4,2.2,7.6,5,6.8,7.9c6.1-2.5,16,3.8,26,0.1c2.2,0.6-1.9,0.9-0.7,1.6C45,4.3,48,4,53.7,4.5L53,4.9
						c15.9-0.3,22.7,0.9,40.6,1.7l-1.3-1.4c3.8,0.2,4.6,0.6,6.4,1C103.1,4,88,6,92,3.7c5.1,2.9,27.1,0,30.5,3.3
						c5.9,0-1.7-1.6,4.2-1.6l1.6,0.9l1.5-1.1c3.9,0.2,5.8,1.3,6,2.1c-0.9-0.1-2.7,0.2-3.7,0.3c5,1,14.2-0.4,15.9,0l-5.7-0.5
						C158.3,6,178,7.2,193.6,5.4l-1.2-0.7c11.9-1.2,9.5,0.7,22.6,0.2L214.5,5c2.6-0.7,6.1-1,9.7-0.9c-3.3,0.8,6.2,1.5,1.9,2.4
						c12.9-1.3,6.4-1,14.9-3.5l2,1.1c2.9-1,3.1-1.5,9.7-1.8c-5.3,1,4.2,1.7-1.8,3c13.7,2.4,20.3-2.5,26.6,1.1
						c6.3-3.1-11.8-1.7-8.3-2.4c-2.9-1,5.2-2.3,9.5-2c4.4,0.1,7.4,3.9,18.4,3.9c-1.1,0-1.2,0.2-2.3,0.2c4.1,0.8,8.1-1.1,13.1,0.2
						c2.8-1.9,6.6,0.1,7.4-2.3l-10.1,0.5c5.7-0.6,11.1-3.4,20.5-2.1c-0.7,0.5-3.5,1.1-5.5,1.5c2.8,0.7,5.3-0.5,8.2,0.3
						c-0.8,2.4-12.3,0.5-18.4,2.3c3,1,11.6-1.7,8.5,0.9c4.4-3.3,10.8,0.4,18.3-2.1l-0.5,1.4c1.2-0.2,3.6-0.9,5.8-0.9l-3.9,1.8
						c6-1.6,11.6,1.4,17.4,0.5c-12.1,0-2.7-1.7-7.8-2.8c14.9-1.9,8.6,3.7,25.3,3c-2.3,0.2-8.5-0.9-5-1.5c3.2,0.3,7.4,0.8,9.3,1.6
						c11.1-0.3-1.7-1.5,3-2.3c3.8,1.7,5.4-0.7,10.3-1.3l0,1.4c12.6,0.9,3.3-3,14.7-1.9l-4.8,2l5.9-0.5l-1.2,1.6
						c6.4-1.2,8.5-0.9,14.8-0.4c-1.5-1,0.8-2.6,6.4-2.7c3.8,0.9-2.1,1.4,5.8,1.2c-1.8,0.9-3.7,2-7.2,0.7c-0.4,0.5-1.8,0.9-2.1,1.4
						c4.1,1,10.3,0.2,13.2,0.2C435,8,433.7,7.9,433,7.7l11.5-2c1.8,0.5,0.4,1-1,1.4c2.3-0.2,3.9-0.8,7.4-0.9
						c-0.9,1.2-0.7,2.4-5.5,2.9l10.9-1.3c0.7,0.5,5.6,1.4,4.2,1.8c6.1,0.7,14.9-2.3,22.9-1.4c0.4-0.2,1.3-0.4,3-0.6
						c7.6,0.3,14.3,1.7,23.2,0.1l5.1,2.1c7-0.5-6.9-2.7,4.8-3.5c8.3-0.7,3.1,1.8,6,2.4c4.1-1.1,11.3-3.2,18.9-1.5
						C541.8,7.7,539.8,7.3,537.4,7.5z M605.4,12c-0.1-0.5-0.2-0.6-0.3-0.9c-0.1-0.2-0.2-0.4-0.3-0.6c-0.2-0.4-0.2-0.8,0.2-1.2
						c0.8,0,1,0.4,1,0.8c0,0.2-0.1,0.5-0.2,0.8c-0.1,0.1-0.1,0.3-0.2,0.4c0,0.1-0.1,0.1-0.1,0.2C605.5,11.6,605.5,11.8,605.4,12z
						 M555.2,83.7c1.2-0.5,3.2-0.2,5.4,0.3C559,84.1,557.2,84.1,555.2,83.7z M188.7,93.8c0.1,0,0.1,0,0.2-0.1
						C192.6,94.3,191.3,94.1,188.7,93.8z M180.9,93.2c-0.8,0.2-0.7,0.4-0.4,0.6c0.5-0.4,2.3-0.4,4.3-0.3
						C184.2,93.1,183.2,92.8,180.9,93.2z M295.6-5.8l1.5,0.4C293.7-5,294.6-5.4,295.6-5.8z"/>
					<path id="XMLID_158_" class="st1" d="M570.1,81.7c0.5,0.2,0.6,0.5,0.7,0.8C571.5,82.3,571.5,82,570.1,81.7z"/>
					<path id="XMLID_157_" class="st1" d="M483.6,8.3l-0.3,0c-0.1,0.1-0.2,0.2-0.3,0.3L483.6,8.3z"/>
					<path id="XMLID_156_" class="st1" d="M301.2,80.9c1.6,0.2,2.5,0.5,3.1,0.7C304.4,81.3,303.7,81,301.2,80.9z"/>
					<path id="XMLID_155_" class="st1" d="M139.7,95.6l5-0.4c-2.4,0.1-3.3-0.2-4.5-0.5C140.3,95.1,141.3,95.6,139.7,95.6z"/>
					<path id="XMLID_154_" class="st1" d="M96.5,86.7c-0.7,0.2-1.5,0-2.3,0.2l0.2,0.7C97.6,87.5,99.7,87,96.5,86.7z"/>
					<path id="XMLID_153_" class="st1" d="M135.1,90.8c-0.4-1.2-3.5-0.8-7-0.6c0.2,0,0.4,0,0.6,0C127.7,91.9,131.4,91.4,135.1,90.8z
						"/>
					<path id="XMLID_152_" class="st1" d="M127.3,90.3c-1.1,0.1-2.2,0.1-3.2,0C123.7,91,125.4,90.5,127.3,90.3z"/>
					<path id="XMLID_151_" class="st1" d="M171,94c-1.7-0.3-1,1.6-2,1.1C167.2,96.6,180.1,93.2,171,94z"/>
					<polygon id="XMLID_150_" class="st1" points="132.3,86.8 133.5,88.3 135.5,87.1 					"/>
					<path id="XMLID_149_" class="st1" d="M159.8,87.9l-5.6-0.4c0.1,0.3-0.6,0.4-1.5,0.5C156.2,88.1,160,88.4,159.8,87.9z"/>
					<path id="XMLID_148_" class="st1" d="M152.8,88c-1.8,0-3.5,0-4.5,0.2C149.2,88.2,151.3,88.2,152.8,88z"/>
					<polygon id="XMLID_147_" class="st1" points="139.9,86.4 141.6,86.7 145.5,86.8 					"/>
					<path id="XMLID_146_" class="st1" d="M219.7,88.2l6.1-0.4c0.6-0.5-1-0.8-3.3-0.6C221,87.5,218.8,87.7,219.7,88.2z"/>
					<path id="XMLID_145_" class="st1" d="M201.3,84.1c1.6,0.3,1.8,0.6,2.7,1.1l0.2-1.9L201.3,84.1z"/>
					<path id="XMLID_144_" class="st1" d="M219,83.6c0.6-0.5,8.8-1.5,1.1-1.4C219.5,82.8,213.5,83.2,219,83.6z"/>
					<polygon id="XMLID_143_" class="st1" points="310.6,86 309.1,86 309.3,89.1 					"/>
					<path id="XMLID_142_" class="st1" d="M391.4,78.7c-7.2-0.7-1.7,1.9-8.2,1c-1.7,0.7,5.3,0.7,3.6,1.4
						C391.1,80.3,393.4,80.7,391.4,78.7z"/>
					<path id="XMLID_141_" class="st1" d="M386.7,81c-0.7,0.1-1.4,0.3-2.2,0.5C385.8,81.3,386.4,81.2,386.7,81z"/>
					<polygon id="XMLID_140_" class="st1" points="12.8,-7.3 8.1,-8 11.1,-7 					"/>
					<path id="XMLID_139_" class="st1" d="M3.9-5.1L2.8-7L0-5.3C1-5.4,3.1-5.5,3.9-5.1z"/>
					<path id="XMLID_138_" class="st1" d="M601.5,24.9l0.5,0.4c0.5-0.7,0.5-1.8,0.6-4L601.5,24.9z"/>
					<polygon id="XMLID_137_" class="st1" points="574,9 575.1,9.1 573.1,7.3 					"/>
					<path id="XMLID_136_" class="st1" d="M521.3,11.3c2.2,0.1,4.7-0.3,6.8-0.2C523.5,11.3,520.7,9.1,521.3,11.3z"/>
				</g>
			</g>
		</g>
	</g>
</g>
</svg>
