<?xml version="1.0" encoding="utf-8"?>
<!-- Generator: Adobe Illustrator 19.0.0, SVG Export Plug-In . SVG Version: 6.00 Build 0)  -->
<svg version="1.1" id="Layer_1" xmlns="http://www.w3.org/2000/svg" xmlns:xlink="http://www.w3.org/1999/xlink" x="0px" y="0px"
	 viewBox="0 0 306 80" preserveAspectRatio="none" style="enable-background:new 0 0 306 80;" xml:space="preserve">
<style type="text/css">
	.st0{fill:#00A651;}
</style>
<g id="XMLID_464_">
	<path id="XMLID_195_" class="st0" d="M295.2,74.6H10.8c-2.6,0-4.7-2.1-4.7-4.7V10.2c0-2.6,2.1-4.7,4.7-4.7h284.5
		c2.6,0,4.7,2.1,4.7,4.7v59.7C300,72.5,297.9,74.6,295.2,74.6z"/>
	<g id="XMLID_101_">
		<g id="XMLID_105_">
			<g id="XMLID_106_">
				<g id="XMLID_107_">
					<path id="XMLID_194_" class="st0" d="M296.5,76.9c-1.6,0.2-1,0.5-1.3,0.6c1.4-0.1,1.7-0.4,1.6-0.5
						C296.8,76.9,296.5,76.9,296.5,76.9z"/>
					<polygon id="XMLID_193_" class="st0" points="301.5,58.9 301.6,59.3 301.2,56.7 					"/>
					<path id="XMLID_192_" class="st0" d="M301.5,42.6c-0.7,1.5,0.1,5.9-0.1,8.8l-0.2,0.5l0.6,1.3C301.7,49.7,301.3,45.1,301.5,42.6
						z"/>
					<path id="XMLID_191_" class="st0" d="M303,33.9c-0.3,0.5-0.2-1.9-0.1,2c0-0.2,0-0.3,0.1-0.4C303,35.2,303,34.7,303,33.9z"/>
					<path id="XMLID_190_" class="st0" d="M303,35.5C303,37.2,303.2,34.4,303,35.5L303,35.5z"/>
					<path id="XMLID_189_" class="st0" d="M302.8,27.6l0.2,2.3c0.2-0.5,0.2-2.5,0.3-1.7C303.3,25.8,303.1,26.2,302.8,27.6z"/>
					<path id="XMLID_188_" class="st0" d="M302.3,25.4l0.1,1.2C302.5,26.4,302.5,26.1,302.3,25.4z"/>
					<path id="XMLID_187_" class="st0" d="M302.6,29.1l-0.2-2.5c-0.1,0.3-0.3,0.4,0.1,1.1C302.3,27.5,302.5,28,302.6,29.1z"/>
					<path id="XMLID_186_" class="st0" d="M302.5,30.5c-0.2,1.3-0.3,2.9-0.5,0.6C302.1,35.5,302.6,34.8,302.5,30.5z"/>
					<path id="XMLID_185_" class="st0" d="M300.7,41.7l-0.2,1.7l0.2,1.5C300.6,44.2,301,41.6,300.7,41.7z"/>
					<path id="XMLID_184_" class="st0" d="M303.2,13.4c-0.2-0.1-0.4,0.8-0.6,0.9l0.2,1.7C302.9,15.2,303,13.5,303.2,13.4z"/>
					<path id="XMLID_183_" class="st0" d="M302.6,14.4l-0.3-2.5C302.3,14.1,302.4,14.5,302.6,14.4z"/>
					<polygon id="XMLID_182_" class="st0" points="301.5,25 302.1,29.1 301.5,24.2 					"/>
					<path id="XMLID_181_" class="st0" d="M297.1,2.4c0,0,0.6,0.1,1.2,0.2c0.3,0.1,0.6,0.2,0.8,0.3c0.2,0.1,0.4,0.1,0.4,0.1
						s-1-0.5-2.1-0.6c-1.1-0.2-2.1,0-2.1,0s0.5,0,0.9,0c0.2,0,0.5,0,0.6,0C297,2.4,297.1,2.4,297.1,2.4z"/>
					<path id="XMLID_180_" class="st0" d="M290,2.2c1.1-0.3-1.4-0.5-0.3-0.7c-1.7,0.1-3.2,0.3-4.5,0.5C286.6,2,288.1,2,290,2.2z"/>
					<path id="XMLID_179_" class="st0" d="M282.9,2.4c0.7-0.1,1.4-0.2,2.2-0.3C284.4,2.2,283.7,2.2,282.9,2.4z"/>
					<path id="XMLID_178_" class="st0" d="M301.4,6.4c0-0.2-0.1-0.4-0.3-0.8c-0.2-0.4-0.6-1-1.5-1.7c0,0,0.3,0.3,0.5,0.6
						c0.2,0.3,0.4,0.7,0.4,0.7C300.8,5.6,301.1,6,301.4,6.4z"/>
					<path id="XMLID_177_" class="st0" d="M300.5,5.3L300.5,5.3c-1.1-1.2-2.2-1.7-2.7-1.9C298.2,3.6,299.2,3.9,300.5,5.3z"/>
					<path id="XMLID_176_" class="st0" d="M301.6,6.8c-0.1-0.1-0.1-0.2-0.2-0.3C301.4,6.6,301.4,6.7,301.6,6.8z"/>
					<path id="XMLID_175_" class="st0" d="M301.9,18.4c-0.2-1.5-0.5-4.5-0.9-1.6C301.3,17.9,301.6,16.2,301.9,18.4z"/>
					<path id="XMLID_174_" class="st0" d="M301.7,8.6c0,0,0.1,0.2,0.1,0.6c0,0.2,0,0.4,0,0.6c0,0.2,0,0.5,0,0.6c0,0.7,0,1.3,0,1.3
						c0.1-0.1,0.3-0.5,0.4,0.2c0,0-0.1-0.7-0.1-1.4c0-0.3-0.1-0.9-0.2-1.3C301.8,8.9,301.7,8.6,301.7,8.6z"/>
					<path id="XMLID_173_" class="st0" d="M300.9,7c0,0,0.2,0.4,0.4,0.8c0.2,0.4,0.3,0.8,0.3,0.8c0,0-0.4-1.3-0.4-1.3
						C301.3,7.3,300.9,7,300.9,7z"/>
					<path id="XMLID_172_" class="st0" d="M287.5,2.8C286.3,3,285.1,3,283.7,3c1.5,0.1,3.1,0.1,4.6,0.1C288.5,3,289.1,2.8,287.5,2.8
						z"/>
					<path id="XMLID_171_" class="st0" d="M293.2,2.9c-0.1,0-0.2,0-0.3,0C293.1,3,293.2,3,293.2,2.9z"/>
					<path id="XMLID_170_" class="st0" d="M269.6,3c0.1,0,0.1,0.1,0.2,0.1c0,0,0,0,0.1-0.1L269.6,3z"/>
					<path id="XMLID_169_" class="st0" d="M288.5,3.3c1.1,0.1,1.8,0,2.5-0.2c-0.9,0-1.8,0.1-2.7,0.1C288.2,3.2,288.1,3.3,288.5,3.3z
						"/>
					<path id="XMLID_168_" class="st0" d="M279,2.6c0.6,0.1,1.3,0.2,2,0.2C280.4,2.7,279.2,2.5,279,2.6z"/>
					<path id="XMLID_167_" class="st0" d="M292.5,2.8c0.1,0,0.1,0,0.2,0C292.3,2.7,292.4,2.8,292.5,2.8z"/>
					<path id="XMLID_166_" class="st0" d="M292.5,2.8c-0.6,0.1-1.1,0.2-1.5,0.3c0.7,0,1.3-0.1,1.9-0.1
						C292.8,2.9,292.6,2.9,292.5,2.8z"/>
					<path id="XMLID_165_" class="st0" d="M265.4,5.8c0.2-0.4,3.2-0.8,5.8-0.3c2.6-0.3,0.9-1.6-1.3-2.3c-0.1,0.2-0.1,0.3-2.7,0.6
						c0.9,0.2,5.8,0.5,3.6,0.9c-3.5,0.2-2.9-0.1-4.6-0.3c1.4,0.5-4.4,0.7-3.7,1.4l3.1-0.3C265.7,5.5,264.6,5.7,265.4,5.8z"/>
					<path id="XMLID_164_" class="st0" d="M274.9,3.2l1.1,0c-1.2-0.1-2.1-0.2-3.7-0.5c-1.8,0.2-2.2,0.3-2.3,0.5l5.3,0.1L274.9,3.2z"
						/>
					<path id="XMLID_163_" class="st0" d="M280.8,3.1c-0.8,0.4-3.4,0.6-1.9,1.1c3.2,0,2.2-0.4,4.1-0.5C278,3.7,284.6,3.4,280.8,3.1
						c1,0,2,0,2.8-0.1c-0.9-0.1-1.8-0.1-2.7-0.2c0,0,0.1,0,0.1,0l0,0l0,0c0.2,0.1,0.3,0.1,0,0.1c0,0-0.1,0-0.1,0
						C281,3,280.9,3.1,280.8,3.1c-1.5-0.1-0.2-0.1,0.2-0.2c0,0,0.1,0,0.1-0.1l0,0L276,3.1C277.1,3.2,278.4,3.2,280.8,3.1z"/>
					<path id="XMLID_162_" class="st0" d="M300.1,14.1c0-0.2,0.1-0.2,0.1-0.2C300.2,13.6,300.1,13.5,300.1,14.1z"/>
					<path id="XMLID_161_" class="st0" d="M300.4,12c0.1,0.4,0.2,0.7,0.2,1.9c-0.1,1.1-0.2,0-0.3,0.1c0.1,0.7,0.3,2.6,0.5,0.3
						l-0.1-0.4c0.1-1,0.2-2.2,0.4-3.1c0-0.2,0.1-0.4,0.1-0.6c0-0.2,0.1-0.4,0.1-0.6c0-0.3,0-0.4,0.1-0.3
						C301.1,10.2,300.8,10.6,300.4,12z"/>
					<path id="XMLID_160_" class="st0" d="M292.5,4.2l-4.3,0.2l2.2,0.4l-0.1-0.2C292.8,4.6,292.2,4.3,292.5,4.2z"/>
					<polygon id="XMLID_159_" class="st0" points="269.2,2.8 269.7,2.4 267.3,3 					"/>
					<polygon id="XMLID_158_" class="st0" points="263.6,2.9 263.8,2.5 262.3,2.7 					"/>
					<path id="XMLID_157_" class="st0" d="M8.4,63.8l0.1,1.3C8.5,64.5,8.4,64.1,8.4,63.8z"/>
					<path id="XMLID_156_" class="st0" d="M8.4,54.7l-0.2-0.2C8.3,54.9,8.4,55.1,8.4,54.7z"/>
					<path id="XMLID_155_" class="st0" d="M127,2.9c-1.8-0.4-3.9-0.9-3.7-0.5l0.6,0.4C125.2,2.8,126.1,2.8,127,2.9z"/>
					<path id="XMLID_154_" class="st0" d="M33.4,5.5c0.2,0,0.4,0.1,0.5,0.1c0.4-0.1,0.9-0.3,1.2-0.4C34.6,5.3,34,5.4,33.4,5.5z"/>
					<path id="XMLID_153_" class="st0" d="M32.1,7.3L29.7,7C30.2,7.1,31,7.2,32.1,7.3z"/>
					<path id="XMLID_152_" class="st0" d="M47,71.7l1.5-0.4C46.2,71.3,47.2,71.5,47,71.7z"/>
					<path id="XMLID_151_" class="st0" d="M206.6,3c-1.6-0.2-2.8-0.2-3.9-0.3C204.6,3,206.1,3.4,206.6,3z"/>
					<path id="XMLID_150_" class="st0" d="M3.8,60.2C3.9,61,4,61.3,4.1,61.3C4,60.5,3.9,60.1,3.8,60.2z"/>
					<path id="XMLID_149_" class="st0" d="M198.1,2.8c0.3,0,0.6,0.1,0.8,0.1c1.2-0.1,2.3-0.1,3.7-0.1C201.3,2.6,199.7,2.5,198.1,2.8
						z"/>
					<path id="XMLID_148_" class="st0" d="M227.4,72.1c0.1,0,0.3,0,0.4,0.1C227.9,72.1,227.7,72.1,227.4,72.1z"/>
					<path id="XMLID_147_" class="st0" d="M280,76.5c-0.5,0-1.4,0-2.2,0C278.2,76.5,278.8,76.5,280,76.5z"/>
					<path id="XMLID_146_" class="st0" d="M241.2,2.7C242.4,2.7,241.4,2.6,241.2,2.7L241.2,2.7z"/>
					<path id="XMLID_145_" class="st0" d="M247,4.4c-0.3,0-0.4,0.1-0.5,0.2C246.6,4.5,246.7,4.4,247,4.4z"/>
					<path id="XMLID_144_" class="st0" d="M186.4,5.5c0,0-0.1,0-0.1,0C186.6,5.6,186.5,5.5,186.4,5.5z"/>
					<path id="XMLID_143_" class="st0" d="M243,2.9c-0.4-0.1-1-0.1-1.5-0.1C241.7,2.8,242.2,2.8,243,2.9z"/>
					<path id="XMLID_142_" class="st0" d="M242.7,2.7c0.4,0,0.7,0,1,0C243.9,2.7,243.8,2.6,242.7,2.7z"/>
					<path id="XMLID_141_" class="st0" d="M239.6,2.7c0.7,0,1.3,0,1.9,0c-0.2,0-0.3-0.1-0.3-0.1C240.9,2.7,240.4,2.7,239.6,2.7z"/>
					<path id="XMLID_140_" class="st0" d="M130.8,73.3c0.1,0,0.2,0,0.3,0C132.2,73.1,131.7,73.2,130.8,73.3z"/>
					<path id="XMLID_139_" class="st0" d="M96.3,7.4c0.1,0,0.1,0,0.1,0C96.3,7.4,96.3,7.4,96.3,7.4L96.3,7.4z"/>
					<path id="XMLID_138_" class="st0" d="M92,7.8c1.8-0.5,2.8-0.5,4.2-0.4l-1.4-1.3L92,7.8z"/>
					<path id="XMLID_131_" class="st0" d="M19.1,72.1l-3-0.4c3.6-0.6,6.2-0.4,3.4-1c-0.2,0.7-3.1,0.7-6,0.7c-1.2,0-2.3,0-3.2,0.1
						c-0.4,0-0.8-0.1-1,0.1c0,0-0.1-0.2-0.2-0.4c-0.1-0.2-0.1-0.5-0.1-0.5C9,71,9.1,71,9.2,71.2c-0.2-0.4-0.2-0.6-0.3-0.8
						c-0.1-0.2-0.3-0.3-0.4-0.5C8.2,69,7.8,68,7.9,65.6c0.1-1.7,0.3-2.9,0.5-1.7L8.1,60c0-1.1,0.3-0.8,0.2,0.3l-0.1-5.8l0,0
						c-0.2-0.8-0.5-2.7-0.7-3.6c0.2-1.5,0.1,0.7,0.3,0.4L7.5,48c0.4-1.3,0.7,1.4,0.6,3.6c1.4-3-0.3-2.7,0.5-9.2l0.2,3
						c0.8-2,0.5-4.3,1-7.8c-0.3,0.8-1.2,6.9-1.5,3.4c0.1-1,0.2-2.3-0.1-4.2c0.5,0,0.4-1.9,0.3-4.2l0.6,0.2c-0.2-2.5-0.5-2.3-0.8-3.8
						c0.1-2.8,0.6-3.4,1-4c0.1-4.5-0.8,3.1-0.9-2.2c0.2-3.7,0-6.3-0.4-10.7c0.2-2.6,0.4,0.5,0.6-0.5c0,0-0.1-0.6-0.3-1.1
						c0-0.1-0.1-0.3-0.1-0.4c0-0.1,0-0.1-0.1-0.2C8.1,9.8,8,9.7,8,9.7c0.1-0.3,0.2-0.2,0.3-0.1c0-0.5-0.1-0.6-0.2-0.8
						c-0.1-0.1-0.1-0.2,0-0.4c0.1-0.2,0.2-0.5,0.6-0.9c0-0.2,0.3-0.5,0.8-0.6c0.2-0.1,0.5-0.1,0.8-0.1c0.2,0,0.3,0,0.5,0
						C11,6.9,11.2,7,11.5,7c1.9,0.2,4.2,0.5,6.1,0.1c0.9,0.2-0.4,0.4-0.2,0.6c5.2-0.5,4.4-0.4,8.7-1.1L29.7,7
						c-2.7-0.5,0.7-1,3.7-1.5c-0.9-0.2-1.7-0.4-2.3-0.5l4.7-0.3c0.6,0.1,0.1,0.3-0.7,0.6c0.3-0.1,0.6-0.1,0.9-0.2
						c1.7,0.2,0.8,0.6-0.4,1c-0.6-0.1-1.1-0.3-1.7-0.4c-1.2,0.4-2.3,0.8-2,1.2c0.3-0.1,0.9-0.1,1.6-0.2c-0.3,0.1-0.5,0.2-0.4,0.3
						c0.2,0.1,0.7-0.1,1.4-0.2l1.1,0.7l0.3-0.3l6.2,0.4c4.4-0.7,8.3-1.8,15.3-2.1C55.7,6,57,6.4,56.9,7c-1.9-0.7-5.5,0.3-9.1,0.1
						c1.9,0.1,1.5,0.4,1,0.5L55.4,7c-0.1,0.5,1.4,0.4,3.1,0.6c-1.3-1,4.9-0.7,7.5-1c0.2,0.3-0.5,0.7-3.7,0.6C65.8,8,66.8,6,70.3,6.7
						c-0.8,0-1.2,0-1.5,0.1c1.8-0.3,6.4-0.1,5.3,0.2l-0.8,0c5.2,0.1,16,0,16.7-0.8c0.1,0.1-0.7,1-1,1.2l9.3-2.9
						c-0.8,0.7,2.3,2.5-2,2.9c1.2,0.1,2.8,0.2,5.4,0c-0.9-0.1-2.1-1.1-1-1.1c3.2,0.8,2.2,0.4,6.2,1.1c-1.3-0.2,0.1-1.3,2.2-1.3
						c-0.3,0.2,0.2,1.1-0.6,1.3l5-1.1c-1.3,0.2-0.2,1,0.9,1.3c-0.5-0.2,4.3,0,5.7-0.1l-2.1-0.3c5.7,0.2,5.6-1.6,11.2-1.5
						c-0.7,0.2-1.7,1.4,1.2,1.6c1.3-0.6,5.8-2.8,10.8-3.2l1,0.3L146,4c-2.4,0.9-9,2.7-12.7,3.4c2.1,0.3,0.6,0.4,3.8,0.4
						c1.1,0.3-1.7,0.5-2.7,0.5l7.4,0.2c-0.3-0.7,5.7-0.7,5.4-1.2l-8,0.7c-0.3-0.7,4.6-1.9,9.9-1.8c1.3,0.3-1,1.2-0.9,1.4
						c0.7-0.2,5-0.4,5.5-0.3l-2.2,0.4c2.9,0.3,4.8-0.9,8.3-0.2c1.2,0,3.6,0.9,3.8,0.5c-2-0.8-2.4-3.1-1-3.7c0.4,0.1,6.4,0.7,7.7,1.1
						c2,0.6-3,1.4-1.3,2c0.1-0.2,1.2-0.4,1.6-0.5c1.3,0.2-0.5,0.6,2.2,0.5c0.5-0.7,5.6,0.1,1.3-0.6c2.7-0.2,2.9,0.1,6,0.1
						c-1-0.4,2.8-1.5,5.6-1.7c-0.2,0.2,0.4,0.4,0.7,0.5c5.5,0.1,8.5,0.4,13.7,0.4c0.5,0.2,3,0.4,1.9,0.7c0.7-0.1,1.4-0.4,3-0.4
						c3.1,0.6-3.5,0.1-1.2,0.8c0.2-0.4,4.1-0.5,6.4-0.8c-0.7-0.6-5.2-0.1-7.5,0.1c0-0.8,3.9-1.7,9.3-2.1c4.3-0.2,1.9,0.5,2.6,0.4
						c8.1,0.1,6.9-1.5,13.5-0.9c2.7,0.5,0.1,1.1,0.7,1.5c-3.5,0.2-5.4-0.3-7.7-0.3l2.9,0.3c-1.1,0.2-3.4,0.3-4.7,0.2
						c2.2,0.5,13.6,0.1,19.8,0.5c1.1-0.2,3-0.4,2.1-0.6l-2,0.1c-1.8-0.4,3.7-0.6,1.2-0.8c2.6-0.3,5.6-0.8,9.3-0.5l0.7,0.6
						c-0.1-0.2-2.4-0.4-3.5-0.2c1.5-0.3,5.7,0.8,7.4,0L251.8,4c2.6-0.3,5.9-1,9.2-0.8c-1.5-0.6-0.8,0.1-3.1-0.6c2,0.9-8.4,0-5.2,0.9
						c-2.4-0.8-4.2-0.3-7.3-1c0.1,0.2,1.1,0.4-1.7,0.3c-0.1,0.1-0.4,0.1-0.6,0.2c-0.1,0-0.1,0-0.2,0c0.1,0,0.1,0,0.2,0
						c-0.1,0-0.1,0,0.1,0c0.7,0.1,1.2,0.2,1.4,0.3c-1.4,0.5-5.8,0.4-7.2,0.7c-1.6-0.1,0.7-0.2-0.2-0.4l-2.2,0.4
						c-0.2-0.4-4.4-0.7-0.5-1l-3.5,0c-2-0.3-4.9-0.4-6.6-0.2c-1.6-0.1-4.1,0.5-2.7,0.1l-5.4,0.3l-0.1-0.1
						c-5.4-0.1-11.1,0.7-17.2-0.1c-1.8,0.1-3.7,0.3-6.7,0.1l-0.6-0.4c-2.3,0.1-7-0.4-8,0c-2.5-1-11.3-0.2-15.4-0.4l-0.2,0.5
						c-2.8,0-5.5,0.1-9,0.3l0.2,0.4c-3,0.4-7.7-0.3-12.5-0.3c0.3-0.2,1.5-0.1,2.4,0c-5.7-1-12,0.7-17.2,0c-1.3,0.2-2.2,0.1-3.1,0
						c0.1,0,0.2,0,0.3,0c-0.1,0-0.3,0-0.5,0c-0.6-0.1-1.2-0.2-1.8-0.2c0.5,0.1,1.1,0.2,1.5,0.2c-1,0-2.5,0.1-4,0.2l-0.6-0.5
						c-0.1,0-0.2,0-0.3,0c-1.4-0.2-1.2,0.2-0.4,0.6c-0.7,0.1-1.4,0.2-1.9,0.3C120,3,117.3,4,115.7,3.2c-1,0.4-7.4,0.3-8.2,1.2
						c-0.1-0.1-0.5-0.2,0.3-0.2c-1.6-0.1-3.3-0.2-4.8,0l-0.7-0.6l-3.6,0.8c-2.2-0.4-3.1-0.6-0.9-1.1c-5.2,0.7-4.2,0.3-8.7,1L89.4,4
						c-1.6,0-4.1,0.5-5.1,0.2c-3.6-0.8-17.6-0.1-26.7-0.8c1.8,1.2-4.2-0.5-4.6,0.4c-0.5-0.3-1.8-0.4-0.3-0.7
						c-4.7,0.3-7-0.4-10.2,0.3c-0.5-0.3,1-0.4,0.5-0.6c-0.4,0.1-1.5,0.2-2,0.1c-0.5-0.2,0.7-0.2,1.4-0.4c-4.8,0-5.2,0.9-5.6,1.7
						c-2.4-0.4-3.6-0.3-5.4,0.2c-0.8-0.3-2.2-0.5,0.7-0.6c-1.7,0-10.2-0.4-10.3,0.3c-0.5-0.2-2.3,0-2.8,0c-3.7,0-4.1-0.1-7.7,0
						l1,0.1c-0.4,0.2-0.7,0.3-1.1,0.4c-0.2,0-0.4,0-0.6,0c-0.3,0-0.5,0-0.8,0.1c-1.1,0.1-2.5,0.6-3.6,2l0-0.1
						c-1.4,1.6-1.5,3.1-1.5,3.8c0,0.7,0,1.1,0,1.4c0.1,0.7,0.1,1.4-0.2,4.8l0.5-0.4c1,0.6-0.6,5.9-0.2,9.8l0.3-1.4
						c0.4,2.1-1.4,5.9-1.5,8c-0.1,0.5-0.1-0.7-0.2-1.4C2.8,36.8,4,32,4.2,36.1c-0.3,0.8-0.9-1-0.9,1.8C3,39.3,4.4,46.1,3.7,49.9
						C4,49,4.2,48.2,4.4,50.1c0.1,3-1,8-0.2,10.7c-0.1,0.4-0.1,0.5-0.2,0.5c0.2,2.3,0.3,7.3,0.8,8.7c-0.4,0.6-0.4,2.4,0.9,3.9
						c0.6,0.8,1.5,1.4,2.5,1.8c0.5,0.2,1.1,0.3,1.6,0.4c0.3,0,0.5,0,0.8,0c0.3,0,0.4,0,0.6,0c3.2-0.2,6.2-0.5,6.2,0.3l6.9-0.1
						l-0.2,0.2c4.4,0.1,6-0.3,7.6-0.6c1,0.1,0.3,0.2,0.2,0.3c6.5,0.3,7.1,0.2,12.6-0.5l0.6,0.5c1.5-0.3,9.4,0.8,15.7,0.2
						c-0.1,0.1-0.2,0.2-0.7,0.2c7.2-0.6,17.1,1.4,19.8-0.4l4.7-0.4c-6.1-0.1,0.9-0.8-1.6-1.1c2.4-0.1,6.2,0.5,3.3,0.6l-0.5-0.1
						c-1.1,0.9,7.6,0.3,7.4,1c12,0,23.7,0.5,35,0.5L127,76l3.9,0c1,0.2,1.4,0.6-1.4,0.5c1.5,0.4,4.7-0.3,4.8-0.5
						c5.5,0.3-2.1,0.9-0.5,0.9l2.3-0.1l-0.5-0.1c1.9-0.3,2-0.6,5.4-0.6c2.1,0.1,1.1,0.5,1.9,0.5c0,0.1,0.3,0.1,1.3,0l5,0.1l-2-0.6
						c2.2-0.3,4.7,0,2.4-0.6c3.4,1,18.5,0.4,20.5,0.7c3.1-0.4,6.1-0.4,9.9-0.4c-0.9-0.1-1.5-0.8,1.7-0.7c-1.2,1.3,5.9,0.6,8.6,1.5
						c-2.3-0.6,9.2-0.2,5.5-1.1c2.7,0.1,0.2,0.5,2.2,0.8c6.4-0.5,14.2,0.3,22.1,0.2c0.1-0.2-1.2-0.4,0.5-0.7l4.2,0.9
						c1.6-0.1,1.4-1,4.3-0.4c-0.4-0.1-1-0.4,0-0.4c15.6,0.9,31.9-0.7,47.7,0.9c-2.1-0.3-0.7-0.4,0.9-0.4c-1.1-0.1,0-0.4-0.2-0.7
						l6.6,0.7c1.2-0.7,7.1,0,7.8-0.7l-2.1,0.1c2.8-0.7-3.9-1.7-3.5-2.6c-3.1,0.8-8.2-1.3-13.4,0c-1.1-0.2,1-0.3,0.4-0.5
						c-1.3,0.4-2.9,0.5-5.8,0.3L268,73c-8.2,0.1-11.7-0.3-20.9-0.6l0.7,0.5c-2-0.1-2.4-0.2-3.3-0.3c-2.3,0.7,5.5,0,3.5,0.8
						c-2.6-1-13.9,0-15.7-1.1c-3,0,0.9,0.5-2.1,0.5l-0.8-0.3l-0.8,0.4c-2-0.1-3-0.4-3.1-0.7c0.5,0,1.4-0.1,1.9-0.1
						c-2.6-0.3-7.3,0.1-8.2,0l2.9,0.2c-8.3,0.3-18.4-0.1-26.4,0.5l0.6,0.2c-6.1,0.4-4.9-0.2-11.6-0.1l0.2-0.1
						c-1.3,0.2-3.1,0.3-5,0.3c1.7-0.3-3.2-0.5-1-0.8c-6.6,0.4-3.3,0.3-7.7,1.2l-1-0.4c-1.5,0.3-1.6,0.5-5,0.6c2.7-0.3-2.1-0.6,0.9-1
						c-7-0.8-10.4,0.8-13.7-0.4c-3.2,1,6.1,0.6,4.3,0.8c1.5,0.3-2.7,0.8-4.9,0.7c-2.2,0-3.8-1.3-9.5-1.3c0.6,0,0.6-0.1,1.2-0.1
						c-2.1-0.3-4.1,0.4-6.7-0.1c-1.5,0.6-3.4,0-3.8,0.8l5.2-0.2c-2.9,0.2-5.7,1.1-10.5,0.7c0.4-0.2,1.8-0.4,2.8-0.5
						c-1.4-0.2-2.7,0.2-4.2-0.1c0.4-0.8,6.3-0.2,9.4-0.8c-1.5-0.3-6,0.6-4.4-0.3c-2.3,1.1-5.6-0.1-9.4,0.7l0.3-0.5
						c-0.6,0.1-1.9,0.3-3,0.3l2-0.6c-3.1,0.5-6-0.5-8.9-0.2c6.2,0,1.4,0.6,4,0.9c-7.7,0.6-4.4-1.2-13-1c1.2-0.1,4.4,0.3,2.5,0.5
						c-1.6-0.1-3.8-0.3-4.8-0.5c-5.7,0.1,0.9,0.5-1.5,0.8c-1.9-0.6-2.8,0.2-5.3,0.4l0-0.5c-6.5-0.3-1.7,1-7.6,0.6l2.5-0.7l-3,0.2
						L87,72c-3.3,0.4-4.3,0.3-7.6,0.1c0.8,0.3-0.4,0.9-3.3,0.9c-2-0.3,1.1-0.5-3-0.4c0.9-0.3,1.9-0.7,3.7-0.2
						c0.2-0.2,0.9-0.3,1.1-0.5c-2.1-0.3-5.3-0.1-6.8-0.1c0.6,0,1.2,0,1.6,0.1l-5.9,0.7c-0.9-0.2-0.2-0.3,0.5-0.5
						c-1.2,0.1-2,0.3-3.8,0.3c0.5-0.4,0.3-0.8,2.8-1L60.8,72c-0.4-0.2-2.9-0.5-2.2-0.6c-3.1-0.2-7.6,0.8-11.8,0.5
						c-0.2,0.1-0.6,0.1-1.5,0.2c-3.9-0.1-7.3-0.6-11.9,0l-2.6-0.7c-3.6,0.2,3.5,0.9-2.5,1.2c-4.3,0.2-1.6-0.6-3.1-0.8
						c-2.1,0.4-5.8,1.1-9.7,0.5C16.9,72,17.9,72.1,19.1,72.1z M8.2,41.1c0.1,0.9,0.4,2.6,0.1,3.2C7.8,43.4,8,42.6,8.2,41.1z
						 M39.9,6.4c-0.6,0.2-1.6,0.1-2.7-0.1C38,6.3,38.9,6.3,39.9,6.4z M228.3,3.1C228.2,3.1,228.2,3.1,228.3,3.1
						C226.3,2.9,226.9,3,228.3,3.1z M232.3,3.3c0.4-0.1,0.4-0.1,0.2-0.2c-0.3,0.1-1.2,0.1-2.2,0.1C230.6,3.3,231.1,3.4,232.3,3.3z
						 M143.4,76.5l-0.8-0.1C144.3,76.3,143.8,76.4,143.4,76.5z"/>
					<path id="XMLID_130_" class="st0" d="M32.3,7.1C32,7,32,6.9,31.9,6.8C31.6,6.9,31.6,7,32.3,7.1z"/>
					<path id="XMLID_129_" class="st0" d="M46.8,71.8l0.1,0c0.1,0,0.1-0.1,0.1-0.1L46.8,71.8z"/>
					<path id="XMLID_128_" class="st0" d="M170.4,7.4c-0.8-0.1-1.3-0.2-1.6-0.2C168.8,7.3,169.2,7.4,170.4,7.4z"/>
					<path id="XMLID_127_" class="st0" d="M253.4,2.5l-2.6,0.1c1.2,0,1.7,0.1,2.3,0.2C253.1,2.6,252.6,2.5,253.4,2.5z"/>
					<path id="XMLID_126_" class="st0" d="M275.6,5.5c0.4-0.1,0.8,0,1.2-0.1l-0.1-0.2C275.1,5.2,274,5.4,275.6,5.5z"/>
					<path id="XMLID_125_" class="st0" d="M255.8,4.1c0.2,0.4,1.8,0.3,3.6,0.2c-0.1,0-0.2,0-0.3,0C259.6,3.7,257.7,3.9,255.8,4.1z"
						/>
					<path id="XMLID_124_" class="st0" d="M259.8,4.3c0.6,0,1.1,0,1.7,0C261.7,4,260.8,4.2,259.8,4.3z"/>
					<path id="XMLID_123_" class="st0" d="M237.3,3c0.8,0.1,0.5-0.5,1-0.4C239.3,2.2,232.7,3.3,237.3,3z"/>
					<polygon id="XMLID_122_" class="st0" points="257.2,5.4 256.6,4.9 255.6,5.3 					"/>
					<path id="XMLID_121_" class="st0" d="M243.1,5l2.9,0.1c0-0.1,0.3-0.1,0.8-0.2C245,5,243,4.9,243.1,5z"/>
					<path id="XMLID_120_" class="st0" d="M246.7,5c0.9,0,1.8,0,2.3-0.1C248.5,4.9,247.5,5,246.7,5z"/>
					<polygon id="XMLID_119_" class="st0" points="253.3,5.6 252.5,5.5 250.5,5.4 					"/>
					<path id="XMLID_118_" class="st0" d="M212.3,4.9l-3.1,0.1c-0.3,0.2,0.5,0.3,1.7,0.2C211.7,5.2,212.8,5.1,212.3,4.9z"/>
					<path id="XMLID_117_" class="st0" d="M221.8,6.3c-0.8-0.1-0.9-0.2-1.4-0.4l-0.1,0.6L221.8,6.3z"/>
					<path id="XMLID_116_" class="st0" d="M212.7,6.5c-0.3,0.2-4.5,0.5-0.6,0.5C212.4,6.8,215.5,6.6,212.7,6.5z"/>
					<polygon id="XMLID_115_" class="st0" points="165.6,5.7 166.4,5.7 166.3,4.7 					"/>
					<path id="XMLID_114_" class="st0" d="M124.1,8.1c3.7,0.2,0.9-0.6,4.2-0.3c0.9-0.2-2.7-0.2-1.8-0.5
						C124.3,7.6,123.1,7.4,124.1,8.1z"/>
					<path id="XMLID_113_" class="st0" d="M126.5,7.3c0.4,0,0.7-0.1,1.1-0.2C127,7.2,126.7,7.3,126.5,7.3z"/>
					<polygon id="XMLID_112_" class="st0" points="288.7,77 291.1,77.2 289.5,76.9 					"/>
					<path id="XMLID_111_" class="st0" d="M293.2,76.3l0.6,0.6l1.4-0.6C294.7,76.4,293.7,76.4,293.2,76.3z"/>
					<path id="XMLID_110_" class="st0" d="M9.5,34.5l-0.2-0.2c-0.2,0.4-0.2,0.9-0.2,2L9.5,34.5z"/>
					<polygon id="XMLID_109_" class="st0" points="9,66.8 9,66.3 8.5,67.3 					"/>
					<path id="XMLID_108_" class="st0" d="M27.4,70.8c-1.1,0-2.4,0.1-3.5,0.1C26.3,70.8,27.7,71.6,27.4,70.8z"/>
				</g>
			</g>
		</g>
	</g>
</g>
</svg>
