<?xml version="1.0" encoding="utf-8"?>
<!-- Generator: Adobe Illustrator 19.0.0, SVG Export Plug-In . SVG Version: 6.00 Build 0)  -->
<svg version="1.1" id="Layer_1" xmlns="http://www.w3.org/2000/svg" xmlns:xlink="http://www.w3.org/1999/xlink" x="0px" y="0px"
	 viewBox="0 0 80 80" style="enable-background:new 0 0 80 80;" xml:space="preserve">
<style type="text/css">
	.st0{fill:#FFFFFF;}
</style>
<g id="XMLID_7_">
	<g id="XMLID_167_">
		<g id="XMLID_171_">
			<g id="XMLID_172_">
				<g id="XMLID_173_">
					<path id="XMLID_260_" class="st0" d="M29.9,81c-0.1,0.1,0.5,0.6,0.6,0.7C30.5,81.5,29.8,80.9,29.9,81z"/>
					<polygon id="XMLID_259_" class="st0" points="30.2,77.8 30.4,78.1 30.1,77.2 					"/>
					<path id="XMLID_258_" class="st0" d="M31.8,76c-1-0.7-0.4,0.8-1,0.8l-0.3-0.2l0.6,0.9C31.3,77,31.3,76.1,31.8,76z"/>
					<path id="XMLID_257_" class="st0" d="M34.5,77c-0.4-0.3-0.1-0.5-0.3,0.1c0.1,0,0.1,0,0.1,0C34.3,77.1,34.4,77,34.5,77z"/>
					<path id="XMLID_256_" class="st0" d="M34.3,77.1C34.2,77.4,34.7,77.3,34.3,77.1L34.3,77.1z"/>
					<path id="XMLID_255_" class="st0" d="M34.8,76l0.1,0.6c0.2,0.1,0.5-0.1,0.5,0.2C35.5,76.3,35.3,76.2,34.8,76z"/>
					<path id="XMLID_254_" class="st0" d="M34.4,75.2l0,0.3C34.5,75.5,34.6,75.5,34.4,75.2z"/>
					<path id="XMLID_253_" class="st0" d="M34.5,76l0-0.5c-0.2-0.1-0.4-0.4,0,0.2C34.2,75.4,34.4,75.7,34.5,76z"/>
					<path id="XMLID_252_" class="st0" d="M34.2,76c-0.3,0-0.6,0-0.7-0.5C33.3,76.1,33.9,76.6,34.2,76z"/>
					<path id="XMLID_251_" class="st0" d="M30.9,75l-0.4-0.1l0.2,0.5C30.6,75.2,31.2,75.3,30.9,75z"/>
					<path id="XMLID_250_" class="st0" d="M36.5,74.8c-0.2-0.2-0.5-0.4-0.8-0.6l0,0.4C36,74.7,36.2,74.6,36.5,74.8z"/>
					<path id="XMLID_249_" class="st0" d="M35.7,74.3l-0.1-0.6C35.4,73.9,35.5,74.1,35.7,74.3z"/>
					<polygon id="XMLID_248_" class="st0" points="33.5,74.2 33.8,75.3 33.6,74.1 					"/>
					<polygon id="XMLID_247_" class="st0" points="37.3,73.7 37.6,74.3 37.2,73.4 					"/>
					<path id="XMLID_246_" class="st0" d="M37.8,72.9c0.2,0.4,0.6,0.3,0.7,0.7c0.1-0.3,0-0.7-0.2-1.1C38.4,72.8,38.2,72.9,37.8,72.9
						z"/>
					<path id="XMLID_245_" class="st0" d="M38.3,71.9c0,0.2,0.1,0.4,0.1,0.6C38.4,72.3,38.4,72.2,38.3,71.9z"/>
					<path id="XMLID_244_" class="st0" d="M36.1,73.3c0.1,0.1,0.4,0.3,0.6,0.2l-0.6-0.4C36.2,73.2,36.2,73.2,36.1,73.3z"/>
					<path id="XMLID_243_" class="st0" d="M36.2,73.2L36.2,73.2c0.1-0.1,0.2-0.2,0.2-0.2C36.4,73,36.4,73.1,36.2,73.2z"/>
					<path id="XMLID_242_" class="st0" d="M36.1,73.3L36.1,73.3C36.1,73.2,36.1,73.2,36.1,73.3z"/>
					<path id="XMLID_241_" class="st0" d="M34.6,73.9c-0.1-0.4-0.1-1.1-0.8-1.1C34,73.2,34.4,73.3,34.6,73.9z"/>
					<path id="XMLID_240_" class="st0" d="M35.4,72.9L35.1,73c0.1,0.1,0.4,0.2,0.4,0.5L35.4,72.9z"/>
					<polygon id="XMLID_239_" class="st0" points="35.4,72.6 35.4,72.9 35.6,72.8 					"/>
					<path id="XMLID_238_" class="st0" d="M37.4,72c-0.1-0.3,0-0.5,0.1-0.7c-0.2,0.1-0.4,0.2-0.5,0.4C37.1,71.9,37.3,72.2,37.4,72z"
						/>
					<path id="XMLID_237_" class="st0" d="M36.8,72.5L36.8,72.5C36.8,72.5,36.7,72.5,36.8,72.5z"/>
					<path id="XMLID_236_" class="st0" d="M38.8,69.8C38.8,69.8,38.8,69.8,38.8,69.8L38.8,69.8L38.8,69.8z"/>
					<path id="XMLID_235_" class="st0" d="M36.9,71.7c-0.2,0-0.1,0.2-0.1,0.4c0-0.1,0.1-0.3,0.2-0.4C36.9,71.7,36.9,71.6,36.9,71.7z
						"/>
					<path id="XMLID_234_" class="st0" d="M38.4,71.3c-0.1,0-0.3,0-0.4,0C38.2,71.3,38.5,71.4,38.4,71.3z"/>
					<path id="XMLID_233_" class="st0" d="M37,72.6C37,72.6,37,72.6,37,72.6C37.1,72.7,37.1,72.6,37,72.6z"/>
					<path id="XMLID_232_" class="st0" d="M37,72.6c0-0.1-0.1-0.3-0.1-0.4c0,0.1,0,0.2,0,0.4C36.9,72.5,36.9,72.5,37,72.6z"/>
					<path id="XMLID_231_" class="st0" d="M36.5,66.6c0.6,0.6,0.6,1.2-0.1,1.1c0.1,0.6,1.5,1.6,2.4,2.1c-0.2-0.2-0.3-0.3-0.3-0.8
						c-0.3-0.1-1,0.2-1.2-0.4c0.1-0.6,0.4-0.2,0.8-0.2c-0.3-0.2-0.4-0.4-0.4-0.8c0-0.2-0.1-0.3-0.2-0.5c0-0.1-0.1-0.2-0.1-0.2
						c-0.1-0.1-0.2-0.2-0.3-0.3c0,0,0.1,0.7,0,0.7C36.9,67,36.7,66.6,36.5,66.6z"/>
					<path id="XMLID_230_" class="st0" d="M38.2,70.3l-0.1,0.2c0.2-0.1,0.4,0,0.9,0.1c0-0.4-0.1-0.6-0.2-0.7L38.2,70.3L38.2,70.3z"
						/>
					<path id="XMLID_229_" class="st0" d="M37.7,71c-0.4-0.5-0.3-1-0.9-1.3c-0.3,0.4,0.1,0.6,0.2,1C37.4,70,37.1,71.1,37.7,71
						c-0.1,0.1-0.1,0.3-0.2,0.4c0.1-0.1,0.3-0.1,0.4-0.1l0,0l0,0l0,0c-0.1,0-0.1-0.1-0.1-0.1c0,0,0,0,0,0C37.8,71.1,37.8,71,37.7,71
						c0.2-0.1,0.1,0.1,0.1,0.2l0.1,0.1l0,0l0.2-0.8C38,70.5,37.9,70.7,37.7,71z"/>
					<path id="XMLID_228_" class="st0" d="M33,71.4c0.1,0,0.1,0.1,0.1,0.1C33.1,71.4,33.1,71.4,33,71.4z"/>
					<path id="XMLID_227_" class="st0" d="M33.5,71.5c0,0.1,0.2,0.3,0,0.4c-0.2,0-0.2-0.2-0.4-0.4c0.1,0.2,0.1,0.6,0.6,0.6l0-0.1
						c0.4,0,1.2,0.3,1.2,0.4C34.4,72,34,71.8,33.5,71.5z"/>
					<path id="XMLID_226_" class="st0" d="M35.6,71.2l0.2-0.7l-0.6-0.2l0.2,0.2C35.1,70.7,35.4,71,35.6,71.2z"/>
					<polygon id="XMLID_225_" class="st0" points="39.1,69.9 39.4,70.4 39.1,69.5 					"/>
					<polygon id="XMLID_224_" class="st0" points="39.5,69.2 39.9,69.6 39.8,69.2 					"/>
					<path id="XMLID_223_" class="st0" d="M53.5,38.8l-0.3,0C53.3,38.8,53.4,38.8,53.5,38.8z"/>
					<path id="XMLID_222_" class="st0" d="M54.1,39.5l0.3-0.2C54.2,39.3,54.1,39.4,54.1,39.5z"/>
					<path id="XMLID_221_" class="st0" d="M51.8,53.8c0.3-0.1,0.6-0.2,0.5-0.3l-0.2-0.1C52,53.6,51.9,53.7,51.8,53.8z"/>
					<path id="XMLID_220_" class="st0" d="M60.3,43.5c-0.1,0-0.2,0-0.3,0c0.1,0.1,0.3,0.1,0.4,0.2c0.1,0.1,0.2,0.1,0.3,0.2
						C60.6,43.7,60.5,43.6,60.3,43.5z"/>
					<path id="XMLID_219_" class="st0" d="M56.3,42.4c0,0,0.2,0,0.4,0c0.2,0,0.4,0,0.4,0C56.9,42.4,56.6,42.4,56.3,42.4z"/>
					<path id="XMLID_218_" class="st0" d="M47.8,34.4L47,34.9C47.2,35.1,47.4,34.7,47.8,34.4z"/>
					<path id="XMLID_217_" class="st0" d="M44.5,62.7c0.3-0.1,0.4-0.2,0.5-0.3C44.7,62.5,44.3,62.4,44.5,62.7z"/>
					<path id="XMLID_216_" class="st0" d="M60.3,32.6c-0.2,0-0.3,0.1-0.5,0.3C60.1,32.9,60.2,32.8,60.3,32.6z"/>
					<path id="XMLID_215_" class="st0" d="M45.5,61.9c-0.1,0-0.1,0-0.1,0c-0.1,0.2-0.1,0.3-0.3,0.5C45.3,62.4,45.5,62.3,45.5,61.9z"
						/>
					<path id="XMLID_214_" class="st0" d="M30,15.6c0,0,0-0.1,0-0.1C29.9,15.5,29.9,15.6,30,15.6z"/>
					<path id="XMLID_213_" class="st0" d="M30.8,4c0.1,0,0.2,0.1,0.3,0.2C31.1,4.1,31,4.1,30.8,4z"/>
					<path id="XMLID_212_" class="st0" d="M41.7,66.9C41.6,67,41.7,66.9,41.7,66.9L41.7,66.9z"/>
					<path id="XMLID_211_" class="st0" d="M39.7,66.1c0-0.1-0.1-0.1-0.1-0.2C39.7,65.9,39.7,66,39.7,66.1z"/>
					<path id="XMLID_210_" class="st0" d="M44.9,59L44.9,59C44.8,58.9,44.8,58.9,44.9,59z"/>
					<path id="XMLID_209_" class="st0" d="M41.4,66.9c0.1,0,0.2,0,0.2-0.1C41.5,66.8,41.5,66.9,41.4,66.9z"/>
					<path id="XMLID_208_" class="st0" d="M41.5,67c-0.1,0-0.1,0.1-0.1,0.1C41.5,67.2,41.5,67.2,41.5,67z"/>
					<path id="XMLID_207_" class="st0" d="M41.8,66.7c-0.1,0.1-0.1,0.1-0.2,0.2c0,0,0.1,0,0.1,0C41.7,66.8,41.7,66.8,41.8,66.7z"/>
					<path id="XMLID_206_" class="st0" d="M41.4,23.7C41.4,23.7,41.4,23.7,41.4,23.7C41.1,23.8,41.2,23.8,41.4,23.7z"/>
					<path id="XMLID_205_" class="st0" d="M51.3,47.1C51.3,47.1,51.3,47.1,51.3,47.1L51.3,47.1L51.3,47.1z"/>
					<path id="XMLID_204_" class="st0" d="M51.3,46.2c0.6,0.9,0.4,1,0.1,0.9l1.9,1.6L51.3,46.2z"/>
					<path id="XMLID_197_" class="st0" d="M51.1,36.7l-0.2,0.9c-1.3,0.5-1.2,0-1.7,1c2-1.9,1.4,1,3.3-0.9l-0.2,0.6
						c0-0.1-0.2,0-0.2,0c-0.5,1.3,1.7-1.1,1.9-0.3c0,0.3-0.1,0.7-0.5,0.8l0.9-0.1c0.1,0.1-0.3,0.5-0.4,0.3c0,0,0,0,0.1,0.1
						c0,0,0.1,0,0.1,0c0.1,0,0.2,0.1,0.2,0.1l-0.1,0c0.4-0.2,1-0.6,1.3-0.7c-0.2,0.3-0.3,0.1-0.5,0.4c0,0,0.2-0.1,0.4-0.1
						c0.2,0,0.4-0.1,0.4-0.1c-0.5,0.5-1.3,0.7-1.3,0.6c-1,0.9-0.9,0.8-0.6,0.6c0.3-0.1,0.8-0.3,0.2,0.2l-0.4,0.1
						c-1.3,0.8-0.8,0.6-1.7,1c0.3-0.1,0.8-0.4,1.4-0.7c0.6-0.3,1.1-0.7,1.5-0.8c-0.1,0.1-0.2,0.2,0.4,0.1c-1,0.4-0.7,0.4-0.5,0.4
						l-1.4,0.5c0.1,0,0.3-0.1,0.4-0.1c0.4-0.1,0.9-0.2,1.5-0.3c0,0.2-1.1,0.4-2.1,0.7c-0.1,0.1,0.4,0,0.9-0.2
						c0.5-0.1,1.1-0.3,1.3-0.2c-0.4,0.3,0.3,0.2,1.5,0.4c-0.5,0.2-1.1,0-1.5,0.1c0,0,0.4,0,0.7,0c0.4,0,0.7,0,0.7,0c0,0-0.4,0-0.7,0
						c0.6,0.1,1.8-0.1,2.4,0.1c0.7,0,0.6,0.1,0.3,0.1c-0.2,0-0.5-0.1-0.8-0.1c-0.3,0-0.5,0.1-0.7,0.1c-0.4,0.1-0.4,0.1,0.2,0.2
						c-0.5,0-1-0.1-1.7-0.1c0.6,0.2,0.8,0.2,1,0.3c0.2,0.1,0.6,0.2,1.3,0.4c0,0-0.3,0-0.6,0c-0.3,0-0.6,0-0.6,0
						c1.3,0.1,2.5,0.5,3.2,1.1c0.6,0,0.9,0.1,1.1,0c0,0,0.3,0.7,0.3,0.8c-0.2,0-0.6-0.2-1.1-0.4c0.1,0.1,0.1,0.1,0.2,0.2
						c-0.6,0-1.3-0.3-2-0.7c0.3,0,0.7,0.1,1,0.1c-0.8-0.3-1.7-0.6-2.5-0.8c0.1,0.1,0.3,0.1,0.3,0.2c-0.2-0.1-0.4-0.1-0.6-0.2
						c-0.2,0,0.1,0.1,0.4,0.2l-1.6-0.4l0.6,0.2c0,0-1.3,0-1.3,0c1.3,0.8,2.9,2.1,2.7,3.2c-0.7-0.8-1.4-1-2.4-1.8
						c0.6,0.3,0.6,0.1,0.5-0.1c-0.1-0.3-0.4-0.6-0.2-0.6c-0.2,0-0.8-0.3-0.9-0.4c0,0,0.2,0.2,0.4,0.5c0.2,0.2,0.3,0.5,0.3,0.5
						c-0.8-0.6-0.7-0.4-1.1-0.5c1.6,1.1,0.9,1.1,1,1.6c0,0,0,0.1,0,0.1c-0.2-0.2-0.4-0.4-0.6-0.7c-0.2-0.2-0.2-0.4-0.1-0.4
						c-0.5-0.3-0.4-0.1-0.2,0.2c0.3,0.6,1,1.6,0.2,1.2c0.1-0.1,0.2-0.1,0-0.3c0.2,0.6-0.6,0.7-0.9,0.2l0.1-0.1
						c-0.7,0.4-1.6,1.6-0.5,2.9c-0.2-0.2-1.4-1.5-1.6-1.8c0,0,0.8,1.2,1.5,2.5c0.2,0.3,0.4,0.6,0.6,0.9c0,0.1,0,0.2-0.1,0.2
						c0,0.1-0.1,0.2-0.1,0.2c0,0,0-0.1-0.1-0.1c0,0,0,0-0.1,0l-0.3-0.3L53,49.2c-0.8-0.8-1.6-1.6-1.6-2.1c-0.3,0-0.6,0-0.5,0.6
						c0.2,0.1,1.7,1.3,1.7,1.5c-1.5-0.8-0.8-0.4-2.2-1c0.4,0.1,1.8,1.9,1.6,2c-0.2-0.3-1.6-1.6-1.7-1.8l1.1,2.1
						c-0.2-0.4-1.3-1.4-1.9-1.7c0.4,0.3-0.5,0.4-0.4,0.7l0.6,0.2c-0.8,0.3,1.7,2.8,1,3.3c-0.3-0.4-1.9-2.2-2.3-2.1
						c0.3,0.5,1.2,1.6,1.9,2.8l0.1,0.2c0,0.1,0,0.1,0,0.1l0,0.2c0,0.1,0,0.2,0,0.3c0,0.2-0.1,0.4-0.1,0.6l-0.2,0l-0.2,0.5
						c0-0.1,0-0.3-0.1-0.6c0-0.1,0-0.2,0-0.3l0-0.1c0,0,0,0-0.1-0.1L49.3,54c-0.7-1.2-1.3-2.3-1.6-3c-0.6-0.2-0.6-0.5-0.9-0.1
						c-0.6-0.3-0.5-0.8-0.4-1l-1,0.5c1,0.9,0.4,1.5,1.2,2.3l-0.2-1.8c1,0.9,2.2,3.2,1.5,3.5c-0.5-0.2-1.6-1.8-1.9-2.1
						c0.3,0.4,0.1,1.1-0.2,0.9l-0.3-0.7c-0.7-0.1,0.8,1.7-0.5,1.2c-0.2,0.1-1.6-0.9-1-0.3c0.6,0.4,1.8,1.5,2.9,2.6
						c0.2,0.2,0.5,0.5,0.7,0.7c0.1,0.1,0.2,0.2,0.2,0.2c0.1,0.2,0.2,0.3,0.3,0.4c-0.1,0-0.9,0.3-1.3,0.3c-0.1,0-0.1,0-0.2-0.1
						c-0.1-0.1-0.2-0.2-0.3-0.4c-0.2-0.3-0.4-0.5-0.6-0.8c-0.4-0.6-0.8-1.1-1.3-1.4c0.3,0.3,0.5,0.7,0.5,0.8
						c-0.4-0.1-0.8-0.9-0.9-0.5c0.9,1-0.7,0.5,0.7,0.9c0,0.5-0.5,0.1-0.8,0.5c0.4,0.3,0.8,0.9,1.2,1.5c0.5,0.7,0.3,0.9,0.3,1.1
						c0-0.1-0.1-0.1-0.2-0.1c-0.1,0-0.1,0-0.2-0.1c-0.6,0.5-1.4,0.3-1.9,0.9c-0.3-0.2-0.8-0.2-1.1-0.7c0.1,0.2,0.4,0.6,0.2,0.8
						c-1.1-0.5,0.2-0.5-1-1.3c0.5,0.6,0.4,1.2,0.5,1.8c0.9,0.8,0.7-0.4,0.6-0.9c0.3,0.3,0.6,0.6,0.8,1l0.2,0.3l0.1,0.1
						c0,0,0,0.1,0,0.1c0,0.1,0.1,0.2,0.1,0.3c0.1,0.4,0.1,0.9-0.1,1.3c-0.3,0.6-0.6-0.2-0.5,0c-0.9,0.7,0.4,1.8-0.7,2.1
						c-0.7-0.1-0.8-0.8-1.2-1c0.2-0.5,0.8-0.3,1-0.6l-0.5,0.1c0-0.2,0.1-0.6,0.4-0.6c-0.1,0-0.1,0-0.2,0c-0.1,0-0.2,0-0.3,0.1
						c-0.2,0.1-0.4,0.3-0.6,0.5c-0.4,0.4-0.9,0.8-1.5,0.8c0.1,0.2,0.1,0.4,0.2,0.6c0.1,0.2,0.2,0.3,0.3,0.4l0.1-0.3
						c0.5,0.2,0.1,0.9,0.5,0.8c0,0.5,0.1,1.2-0.4,1.4l-0.6-0.5c0.2,0.1,0.5,0.1,0.5-0.2c0.1,0.4-1.3-0.1-0.7,0.8l0.6,0.1
						c0,0.5,0.3,1.5-0.2,1.7c0.7,0.4,0-0.1,0.9,0.2c-1-0.6,0.8-0.9-0.3-1.4c0.9,0.4,0.7-0.2,1.6,0.1c-0.2-0.2-0.4-0.2-0.1-0.4
						c0-0.1-0.1-0.2-0.1-0.2c0,0,0,0,0,0l0,0c0,0,0,0,0,0c-0.1,0-0.3,0-0.4-0.1c-0.3-0.5,0.2-1,0.1-1.4c0.2-0.1,0.1,0.3,0.4,0.3
						l-0.1-0.5c0.4,0.3,1,0.1,0.8,0.7l0.3-0.4c0.4,0,0.7-0.3,0.7-0.6c0.2-0.1,0-0.8,0.1-0.4l0.3-0.8l0.1,0.1
						c0.5-0.6,0.5-1.7,1.6-1.9c0.1-0.3,0.2-0.6,0.5-0.8l0.3,0.2c0.1-0.3,0.8-0.6,0.7-0.9c0.8,0.3,1.1-1.2,1.6-1.6l-0.2-0.3
						c0.3-0.3,0.4-0.7,0.7-1.2l-0.2-0.2c0.1-0.5,0.9-0.7,1.3-1.3c0,0.1-0.1,0.2-0.2,0.3c0.9-0.3,0.8-1.6,1.6-1.9
						c0.1-0.2,0.2-0.3,0.3-0.3c0,0,0,0,0,0c0,0,0,0,0-0.1c0.1,0,0.2-0.1,0.2-0.1c-0.1,0-0.2,0.1-0.2,0.1c0.1-0.1,0.2-0.3,0.3-0.5
						l0.2,0.1c0,0,0,0,0,0c0.2-0.1,0-0.2-0.1-0.2c0-0.1,0.1-0.2,0.1-0.3c0.3,0.1,0.3-0.5,0.6-0.5c0-0.2,0.6-0.9,0.5-1.1
						c0,0,0.1,0,0,0.1c0.2-0.2,0.3-0.3,0.4-0.5l0.2,0l0.2-0.5c0.3-0.2,0.4-0.2,0.2,0.1c0.4-0.7,0.4-0.5,0.7-1.1l0,0.1
						c0.1-0.2,0.3-0.5,0.5-0.6c0.2-0.1,0.4-0.4,0.7-0.8c0.2-0.2,0.3-0.4,0.5-0.6l0.3-0.3l0.1-0.2l0.1-0.1l0,0l0,0l0,0l0,0l0,0l0,0
						l0,0c0,0-0.1-0.1,0.1,0.1c0.7-0.2,1.3-0.3,2-0.4c-0.6-0.1-0.3-0.1,0.2-0.2c0.4,0,1.1,0,0.6-0.2c0.4,0.1,0.9,0.1,0.8,0.2
						c0.5-0.2,1.1-0.2,1.6-0.2c0.5,0,0.9-0.1,0.7-0.4c0.7,0.1,0.5,0.3,0.9,0.4c0,0,0-0.2,0.4-0.1c0.5,0.1,0.2,0.2,0.2,0.3
						c1.7-0.1-0.9-1-2.3-1.5c0.8-0.1,0.5-0.3-0.2-0.8c0.5,0,0.8,0,1,0.4c0-0.1,0.1-0.4,0.1-0.8c-0.1-0.3-0.2-0.7-0.5-0.8
						c0.1,0,0-0.3,0-0.4c0-0.3,0-0.4,0-0.5c0-0.1,0-0.1,0-0.2c0,0,0-0.1,0-0.1l0-0.1c0,0,0-0.1,0,0c0-0.1,0,0.1,0,0.1
						c-0.1-0.2,0,0,0.1,0.1c0-0.1,0-0.3-0.1-0.4l0,0c0-0.5,0.1-0.6,0-0.6c0-0.1-0.1-0.1,0.2-0.7L62.6,40c-0.5,0.1-0.5-0.1-0.3-0.4
						c0.2-0.3,0.7-0.8,0.4-0.9L62.2,39c-0.3,0,0-0.3,0.6-0.6c0.6-0.3,1.5-0.8,2-1.1c0.1-0.1,0.2-0.3,0.2-0.3c0.1-0.1,0.4,0,0.6,0.1
						l0,0c0,0,0,0,0.1,0c0.3-1.3-1.5,0.4-2.4-0.2c0.6-0.4,1.9-0.5,1.6-1.1c0.1-0.2-0.8-0.4-1.6-0.5c-0.8-0.2-1.5-0.3-1.3-1
						c-0.3,0.4-0.6,0.9-1.2,0.8c-0.3-0.2-0.2-0.7-0.2-1.2c-0.1-0.5-0.3-0.9-1-0.4c0.1-0.1,0.1-0.3,0.2-0.3c-0.5,0.1-1.2-0.2-2,0.2
						c2.1-2.6-2.6-0.3-0.4-2.4l-0.8-0.6l0.2-0.2c-0.3-0.6-1-0.2-1.7,0.1c0-0.3,0.3-0.4,0.4-0.5c-0.2-1.1-0.4-1.1-2-0.5l0.6-0.8
						c-0.6,0.3,0.1-2.1-1.3-1.9c0.1-0.1,0.2-0.2,0.4-0.2c-1.5,0.1,0.2-3.7-2.6-1.4l-1.1,0.1c0.4,0.8-1.2,1-1.4,1.7
						c-0.4-0.1,0.1-1.4,0.6-1.2l-0.1,0.2c1.4-1.2-0.3-1.2,0.6-2.1c-1.3-1.2-1.7-3.1-2.8-4.3l-0.9,1.2l-0.3-0.5
						c0.1-0.3,0.7-0.9,0.9-0.6c0.4-0.7-1,0-1.2,0.2c-0.1-1,1.4-1,1.3-1.2L46,18.1l-0.1,0.2c-0.6,0.2-1.1,0.7-1.4,0.3
						c0-0.4,0.5-0.7,0.5-0.9c0.1-0.1,0.1-0.1-0.1-0.2l-0.4-0.6l-0.6,1c-0.6,0.2-0.4-0.5-1.1,0.6c1.1-1.8-1.4-2.4-1.1-3
						c-0.9,0.3-1.2,0-1.5-0.5c-0.1,0.3-0.9,1.2-1.2,0.8c2-1.8,0.2-1.4,1.3-3.1c-0.7,1.1-1.2-0.7-2.1,0.9c-0.1-0.4,0.7-0.7,0.9-1.4
						c-1.4,0.1-1-1.9-2-2.5c-0.3,0.2-0.5,0.8-1,0.9l0.8-1.7c-0.3,0-1.6,1.3-1,0.1c-0.2,0.3-0.4,0.6-0.6,0.6
						c-0.4-2.8-4.2-2.2-3.6-6.1c-0.3,0.7-0.5,0.6-0.6,0.5c0,0.2-0.6,0.6-0.9,1l0.3-1.6c-1.1,0.8-0.8-0.7-1.7,0.2l0.4,0.1
						c-1.3,0.8-2,2.7-3.3,4.1c1.5-0.9-0.9,2.6,1.3,1.4c-0.2,0.4-0.5,0.3-0.8,0.7c0.7-0.4,1-0.4,1,0.1l-0.2,0.1
						c1,0.7,0.8,1.6,1.3,2.9l0.6-0.7c0.1,0.3-0.1,0.5-0.1,0.8c1.2-0.8-0.5-0.6,0.8-1.5c-1.1,1.6,1.4,1.4,0,3.2
						c0.3,0.3,0.7-0.9,1-0.5l-0.3,0.5l0.6-0.5c0.1,0.3-0.3,0.9-0.7,1.3c0-0.1-0.2,0-0.3-0.1c-0.2,0.8,0.9,0.6,0.8,0.8l0-0.6
						c1.2,0.4,1.7,2,3.4,2l0.3-0.4c1.2,0,0.1,0.8,1.1,1.3l-0.1,0.1c0.5-0.2,0.8-0.2,0.9,0.1c-0.5,0.2-0.4,1-1,1.2
						c1.3,0,0.8-0.2,2.4-0.9l-0.4,0.6c0.6-0.3,0.9-0.6,1.4-0.4c-0.7,0.2-0.6,1-1.5,1.3c-0.4,1.9,2.2-0.1,0.9,1.9
						c1.8-1.1,0.2-1.4,0.7-1.6c0.3-0.6,1.4-0.8,1.4-0.4c0.2,0.3-1.5,2.2-0.9,2.8c-0.1-0.1-0.2,0-0.2,0C39,24,40,23.3,39.7,24.2
						c1-0.7,0.3,0.4,1.5-0.7l-0.8-0.3c0.6,0,2.2-1,2,0.1c-0.3,0.2-0.7,0.3-1,0.4c-0.2,0.5,0.5,0.1,0.3,0.5c-1.2,1.1-0.9-0.4-2.1,0.1
						c-0.3,0.6,1.4-0.2,0,0.8c1.8-1.3,0.4,0.8,1.9,0L41,25.9c0.2,0,0.6-0.2,0.7-0.1l-1.1,0.7c1.1-0.4,0,1.3,0.7,1.2
						c-0.7-0.6,0.7-1,0.9-1.7c1.7-0.1-1.3,2.2-0.1,2.8c-0.2,0,0-0.8,0.5-1c0,0.3,0,0.8-0.3,1.2c0.7,0.4,0.6-0.8,1.3-0.9
						c-0.6,1,0.6,0,1.1-0.1l-0.7,0.7c0.2,1.1,1.6-1.2,1.7-0.1l-1.2,0.7l0.6,0.1l-0.8,0.7c0.9-0.2,0.9,0,1,0.6
						c0.4-0.6,1.3-1.2,1.6-0.9c-0.2,0.6-0.8,0.5-0.2,0.9c-0.5,0.3-1.2,0.8-0.7,0c-0.2,0.2-0.5,0.3-0.8,0.5c-0.3,0.7,0.4,0.6,0.6,0.8
						c0-0.1-0.1-0.2,0-0.3l1.5-0.3c-0.2,0.4-0.4,0.5-0.7,0.6c0.2,0,0.6-0.2,0.8-0.1c-0.6,0.5-1.2,1.1-1.7,1.1l1.2,0
						c-0.2,0.3-0.4,1-0.6,1.1c0,0.6,1.9-0.3,1.8,0.6c0.1-0.1,0.3-0.1,0.4-0.1c0.3,0.5-0.1,1.5,1.2,1.3l-0.7,1.3
						c0.6,0.1,0.9-1.6,1.9-1.4c0.7,0.1-0.7,1-0.8,1.4c0.7-0.3,2.1-0.9,1.7,0.3C51.2,37,51.3,36.8,51.1,36.7z M55,39.8
						c-0.2,0.1-0.9,0.3-0.4,0C55.7,39.2,55.2,39.6,55,39.8z M57.7,43.4c-0.3-0.2-0.1-0.2,0.4-0.1C58.2,43.4,58.1,43.5,57.7,43.4z
						 M42.5,65.1C42.5,65.1,42.5,65.1,42.5,65.1C42.8,65,42.7,65,42.5,65.1z M42,65.4c0,0.1,0.1,0.1,0.1,0.2c-0.1-0.1,0-0.2,0.1-0.3
						C42.1,65.2,42,65.2,42,65.4z M44.7,17.9l-0.1,0.3C44.3,18.1,44.5,18,44.7,17.9z"/>
					<path id="XMLID_196_" class="st0" d="M56.8,42.5c0.2,0,0.4,0.1,0.6,0.1C57.3,42.6,57,42.5,56.8,42.5z"/>
					<path id="XMLID_195_" class="st0" d="M47.9,34.3C47.9,34.3,47.9,34.3,47.9,34.3c-0.1,0-0.1,0-0.1,0.1L47.9,34.3z"/>
					<path id="XMLID_194_" class="st0" d="M43.9,54.7c0.2,0,0.4,0.1,0.5,0.2C44.2,54.7,44,54.6,43.9,54.7z"/>
					<path id="XMLID_193_" class="st0" d="M40.8,68.5l0.1-0.4c-0.1,0.2-0.2,0.1-0.3,0.1C40.7,68.3,40.8,68.4,40.8,68.5z"/>
					<path id="XMLID_192_" class="st0" d="M35.9,68.1c0,0.1-0.1,0.1,0,0.2l0.2,0.2C36.2,68.3,36.2,68,35.9,68.1z"/>
					<path id="XMLID_191_" class="st0" d="M39.2,67.3c-0.4-0.3-0.4,0-0.5,0.2c0,0,0,0,0,0C39.1,68.1,39.1,67.7,39.2,67.3z"/>
					<path id="XMLID_190_" class="st0" d="M38.6,67.6c0,0.1-0.1,0.1-0.1,0.2C38.7,68,38.6,67.7,38.6,67.6z"/>
					<path id="XMLID_189_" class="st0" d="M41.8,66.2c-0.2,0,0.4,0.5,0.2,0.4C42.3,67.1,42,65.4,41.8,66.2z"/>
					<polygon id="XMLID_188_" class="st0" points="37.8,66.3 38.3,66.7 38.1,66.2 					"/>
					<path id="XMLID_187_" class="st0" d="M39.6,65.1l-0.4,0.2c0.1,0.1,0.1,0.1,0.1,0.2C39.4,65.4,39.7,65.3,39.6,65.1z"/>
					<path id="XMLID_186_" class="st0" d="M39.2,65.5c-0.1,0.1-0.2,0.2-0.2,0.3C39.1,65.8,39.2,65.7,39.2,65.5z"/>
					<polygon id="XMLID_185_" class="st0" points="38,65.7 38.2,65.7 38.5,65.6 					"/>
					<path id="XMLID_184_" class="st0" d="M42.7,62l0.2-0.4c-0.1-0.1-0.2-0.1-0.3,0C42.6,61.8,42.5,62,42.7,62z"/>
					<path id="XMLID_183_" class="st0" d="M40.1,61.4c0.2,0.1,0.4,0.2,0.7,0.4L40,60.9L40.1,61.4z"/>
					<path id="XMLID_182_" class="st0" d="M40.9,60.3c-0.2-0.3-0.2-1.2-0.6-0.7C40.5,59.8,40.4,60.4,40.9,60.3z"/>
					<path id="XMLID_181_" class="st0" d="M46.8,56.6L46.8,56.6l0.7,0.8c0,0-0.1-0.1-0.2-0.3C47.2,57.1,46.7,56.6,46.8,56.6z"/>
					<path id="XMLID_180_" class="st0" d="M47.5,48.9c-0.7,0,0.8,1,0,0.9c0.3,0.4,0.6,0.1,0.8,0.5C48.2,49.7,48.6,49.8,47.5,48.9z"
						/>
					<path id="XMLID_179_" class="st0" d="M48.4,50.3c0,0.1,0.1,0.2,0.1,0.3C48.5,50.5,48.4,50.4,48.4,50.3z"/>
					<polygon id="XMLID_178_" class="st0" points="30.7,2.4 30.8,1.8 30.4,2.5 					"/>
					<path id="XMLID_177_" class="st0" d="M29.2,3L30,2l-1,0.7C29.2,2.7,29.4,2.7,29.2,3z"/>
					<path id="XMLID_176_" class="st0" d="M52.6,41.1l0.3-0.1c0.3-0.1,0.4-0.2,0.4-0.2c0,0-0.2,0.1-0.4,0.2
						C52.8,41,52.6,41.1,52.6,41.1z"/>
					<polygon id="XMLID_175_" class="st0" points="52.3,39.4 52.3,39.5 53,38.5 					"/>
					<path id="XMLID_174_" class="st0" d="M48.5,37.7c0.1,0.1,0.4,0.1,0.5,0.2C48.5,37.8,49.5,36.6,48.5,37.7z"/>
				</g>
			</g>
		</g>
	</g>
</g>
</svg>
